<svg width="32" height="32" viewBox="0 0 32 32" fill="none" xmlns="http://www.w3.org/2000/svg">
<mask id="mask0_609_13114" style="mask-type:alpha" maskUnits="userSpaceOnUse" x="0" y="0" width="32" height="32">
<rect width="32" height="32" fill="#D9D9D9"/>
</mask>
<g mask="url(#mask0_609_13114)">
<path fill-rule="evenodd" clip-rule="evenodd" d="M22.1367 19.453C23.7023 17.8831 24.6667 15.7227 24.6667 13.3332C24.6667 8.5467 20.7865 4.6665 16 4.6665C11.2136 4.6665 7.33337 8.5467 7.33337 13.3332C7.33337 15.7226 8.29774 17.883 9.86327 19.4529C10.682 20.2739 11.3333 21.4575 11.3333 22.8515C11.3333 23.1175 11.549 23.3332 11.815 23.3332H20.1851C20.451 23.3332 20.6667 23.1176 20.6667 22.8516C20.6667 21.4576 21.318 20.274 22.1367 19.453ZM23.5529 20.8652C23.0212 21.3984 22.6667 22.0986 22.6667 22.8516C22.6667 23.9658 21.9323 24.9086 20.9212 25.2222C20.5017 27.5594 18.458 29.333 16 29.333C13.542 29.333 11.4983 27.5594 11.0788 25.2222C10.0677 24.9085 9.33333 23.9658 9.33333 22.8515C9.33333 22.0985 8.97883 21.3984 8.4471 20.8652C6.52297 18.9357 5.33337 16.2734 5.33337 13.3332C5.33337 7.44213 10.109 2.6665 16 2.6665C21.8911 2.6665 26.6667 7.44213 26.6667 13.3332C26.6667 16.2734 25.4771 18.9358 23.5529 20.8652ZM13.1708 25.3332C13.5826 26.4983 14.6938 27.333 16 27.333C17.3062 27.333 18.4174 26.4983 18.8292 25.3332H13.1708ZM16.3521 7.80688C16.4586 7.26496 16.9842 6.91198 17.5261 7.01847C19.9203 7.48894 21.8441 9.41271 22.3146 11.8069C22.421 12.3488 22.0681 12.8744 21.5261 12.9809C20.9842 13.0874 20.4586 12.7344 20.3521 12.1925C20.0382 10.5954 18.7376 9.29478 17.1405 8.98094C16.5986 8.87444 16.2456 8.3488 16.3521 7.80688Z" fill="#1F1F1F"/>
</g>
</svg>
