<svg width="104" height="97" viewBox="0 0 104 97" fill="none" xmlns="http://www.w3.org/2000/svg">
<g clip-path="url(#clip0_679_2633)">
<path d="M145.602 24.851H38.5916L38.6595 22.5198C38.7953 18.7853 41.8507 15.8203 45.5852 15.8203H145.896L145.579 24.8284L145.602 24.851Z" fill="#FBBFE4"/>
<path d="M192.565 24.851H85.5549L85.6228 22.5198C85.7586 18.7853 88.8141 15.8203 92.5486 15.8203H192.859L192.543 24.8284L192.565 24.851Z" fill="#DA68B0"/>
<path d="M147.821 89.4038H6.11433C2.67406 89.4038 -0.109834 86.552 0.00333231 83.0891L0.342831 73.2437H147.799V89.4038H147.821Z" fill="#461B76"/>
<path d="M39.6303 95.5569C45.0397 95.5569 49.4305 89.6496 49.4305 82.3617C49.4305 75.0738 45.0397 69.1665 39.6303 69.1665C34.2209 69.1665 29.8301 75.0738 29.8301 82.3617C29.8301 89.6496 34.2209 95.5569 39.6303 95.5569Z" fill="#461B76"/>
<path d="M91.2819 95.5569C96.6913 95.5569 101.082 89.6496 101.082 82.3617C101.082 75.0738 96.6913 69.1665 91.2819 69.1665C85.8726 69.1665 81.4817 75.0738 81.4817 82.3617C81.4817 89.6496 85.8726 95.5569 91.2819 95.5569Z" fill="#461B76"/>
<path d="M43.9098 95.5569C49.3192 95.5569 53.7101 89.6496 53.7101 82.3617C53.7101 75.0738 49.3192 69.1665 43.9098 69.1665C38.5005 69.1665 34.1096 75.0738 34.1096 82.3617C34.1096 89.6496 38.5005 95.5569 43.9098 95.5569Z" fill="#461B76"/>
<path d="M147.816 21.2561H27.4517V82.366H147.816V21.2561Z" fill="#DA68B0"/>
<path d="M27.4784 61.4076V82.366H6.72362C2.96649 82.366 -0.0437325 79.2426 0.0920673 75.4855L0.567365 61.4076L1.51796 34.0892C1.58586 32.2106 2.03853 30.4452 2.80806 28.8383C4.93559 24.3569 9.53016 21.2561 14.8037 21.2561H27.4557V61.4076H27.4784Z" fill="#FBBFE4"/>
<path d="M111.06 82.3628H86.6165L87.6123 76.2518C88.495 70.7519 93.248 66.7231 98.8158 66.7231C104.384 66.7231 109.137 70.7519 110.019 76.2518L111.015 82.3628H111.038H111.06Z" fill="#461B76"/>
<path d="M61.6493 21.2561C54.4972 21.2561 48.6352 26.9144 48.3636 34.0666L46.915 75.4855C46.7792 79.2426 49.7895 82.3434 53.5466 82.3434H20.6604V21.2561H61.6493Z" fill="#FBBFE4"/>
<path d="M42.1421 34.8279L41.2368 60.4488C41.2368 60.9694 40.8067 61.3768 40.2862 61.3768L0.564697 61.3994L1.5153 34.081C1.5832 32.2024 2.03586 30.437 2.80539 28.8301H36.348C39.6298 28.8301 42.2553 31.5687 42.1421 34.8279Z" fill="#5F259F"/>
<mask id="mask0_679_2633" style="mask-type:luminance" maskUnits="userSpaceOnUse" x="0" y="28" width="43" height="34">
<path d="M42.1421 34.8279L41.2368 60.4488C41.2368 60.9694 40.8067 61.3768 40.2862 61.3768L0.564697 61.3994L1.5153 34.081C1.5832 32.2024 2.03586 30.437 2.80539 28.8301H36.348C39.6298 28.8301 42.2553 31.5687 42.1421 34.8279Z" fill="white"/>
</mask>
<g mask="url(#mask0_679_2633)">
<path d="M-7.92132 54.319C16.4538 54.319 36.2136 41.1458 36.2136 24.8957C36.2136 8.64567 16.4538 -4.52759 -7.92132 -4.52759C-32.2964 -4.52759 -52.0563 8.64567 -52.0563 24.8957C-52.0563 41.1458 -32.2964 54.319 -7.92132 54.319Z" fill="#8B54C7"/>
</g>
<path d="M147.815 61.4076H59.9076C57.3953 61.4076 55.3809 59.3253 55.4714 56.813L56.1957 36.1036C56.3541 32.0748 59.636 28.8835 63.71 28.8835H147.838V61.4302L147.815 61.4076Z" fill="#461B76"/>
<mask id="mask1_679_2633" style="mask-type:alpha" maskUnits="userSpaceOnUse" x="55" y="28" width="93" height="34">
<path d="M147.816 61.4076H59.9081C57.3958 61.4076 55.3814 59.3253 55.4719 56.813L56.1962 36.1036C56.3546 32.0748 59.6365 28.8835 63.7105 28.8835H147.838V61.4302L147.816 61.4076Z" fill="#461B76"/>
</mask>
<g mask="url(#mask1_679_2633)">
<path d="M151.062 53.209C161.139 31.0146 157.313 7.57628 142.517 0.858154C127.721 -5.85997 107.557 6.68606 97.4795 28.8805C87.4023 51.075 91.2279 74.5133 106.024 81.2314C120.821 87.9495 140.984 75.4035 151.062 53.209Z" fill="#7A3E94"/>
</g>
<path d="M91.2739 95.5605H99.0598L92.2472 88.5442L91.2739 95.5605Z" fill="#461B76"/>
<path d="M99.0695 95.5569C104.479 95.5569 108.87 89.6496 108.87 82.3617C108.87 75.0738 104.479 69.1665 99.0695 69.1665C93.6601 69.1665 89.2693 75.0738 89.2693 82.3617C89.2693 89.6496 93.6601 95.5569 99.0695 95.5569Z" fill="#461B76"/>
<path d="M99.066 87.4074C101.148 87.4074 102.823 85.1441 102.823 82.3602C102.823 79.5763 101.148 77.313 99.066 77.313C96.9837 77.313 95.3088 79.5763 95.3088 82.3602C95.3088 85.1441 96.9837 87.4074 99.066 87.4074Z" fill="#B05BA8"/>
<path d="M71.4067 43.772H79.102C81.569 43.772 83.6287 45.7863 83.6287 48.2986V82.3844H66.9253V48.2986C66.9253 45.8316 68.9397 43.772 71.452 43.772H71.4293H71.4067Z" fill="#DA68B0"/>
<path d="M12.9953 71.0746C12.9274 73.2248 11.1394 74.9449 8.9892 74.9449C6.83904 74.9449 5.18681 73.2022 5.25471 71.0746C5.32261 68.9245 7.11064 67.2043 9.2608 67.2043C11.411 67.2043 13.0632 68.9471 12.9953 71.0746Z" fill="white"/>
<path d="M40.8102 71.0746C40.7423 73.2248 38.9543 74.9449 36.8041 74.9449C34.654 74.9449 33.0017 73.2022 33.0696 71.0746C33.1375 68.9245 34.9256 67.2043 37.0757 67.2043C39.2259 67.2043 40.8781 68.9471 40.8102 71.0746Z" fill="white"/>
<path d="M43.9064 95.5577H39.6061L38.5649 87.0249L43.9064 95.5577Z" fill="#461B76"/>
<path d="M29.2026 78.3793H16.709C15.5774 78.3793 14.7173 77.4966 14.7399 76.365C14.7852 75.2333 15.7132 74.3506 16.8448 74.3506H29.3384C30.4701 74.3506 31.3302 75.2333 31.3075 76.365C31.2623 77.4966 30.3343 78.3793 29.2026 78.3793Z" fill="#8F70D7"/>
</g>
<defs>
<clipPath id="clip0_679_2633">
<rect width="108.64" height="108.64" fill="white"/>
</clipPath>
</defs>
</svg>
