<svg width="32" height="32" viewBox="0 0 32 32" fill="none" xmlns="http://www.w3.org/2000/svg">
<path fill-rule="evenodd" clip-rule="evenodd" d="M8.55206 3.37534C8.89707 2.94408 9.52636 2.87416 9.95762 3.21917L15.9996 8.05275L22.0416 3.21917C22.4728 2.87416 23.1021 2.94408 23.4471 3.37534C23.7921 3.8066 23.7222 4.4359 23.291 4.78091L18.8504 8.33337H22.9757C24.0595 8.33336 24.9337 8.33335 25.6416 8.39119C26.3704 8.45074 27.0106 8.57655 27.6029 8.87834C28.5437 9.3577 29.3086 10.1226 29.788 11.0634C30.0897 11.6557 30.2156 12.2959 30.2751 13.0247C30.3329 13.7326 30.3329 14.6068 30.3329 15.6906V21.6428C30.3329 22.7266 30.3329 23.6008 30.2751 24.3087C30.2156 25.0375 30.0897 25.6777 29.788 26.27C29.3086 27.2108 28.5437 27.9757 27.6029 28.4551C27.0106 28.7569 26.3704 28.8827 25.6416 28.9422C24.9337 29.0001 24.0595 29 22.9758 29H9.02343C7.93965 29 7.06551 29.0001 6.35764 28.9422C5.62879 28.8827 4.9886 28.7569 4.39631 28.4551C3.4555 27.9757 2.69059 27.2108 2.21123 26.27C1.90944 25.6777 1.78363 25.0375 1.72408 24.3087C1.66624 23.6008 1.66625 22.7266 1.66626 21.6428V15.6906C1.66625 14.6068 1.66624 13.7326 1.72408 13.0247C1.78363 12.2959 1.90944 11.6557 2.21123 11.0634C2.69059 10.1226 3.4555 9.3577 4.39631 8.87834C4.9886 8.57655 5.62879 8.45074 6.35764 8.39119C7.06552 8.33335 7.93967 8.33336 9.02345 8.33337H13.1488L8.70823 4.78091C8.27697 4.4359 8.20705 3.8066 8.55206 3.37534ZM15.9991 10.3334H9.06626C7.92965 10.3334 7.13734 10.3341 6.5205 10.3845C5.91533 10.434 5.56764 10.5262 5.30429 10.6604C4.7398 10.948 4.28086 11.4069 3.99324 11.9714C3.85905 12.2348 3.76688 12.5824 3.71744 13.1876C3.66704 13.8045 3.66626 14.5968 3.66626 15.7334V21.6C3.66626 22.7366 3.66704 23.529 3.71744 24.1458C3.76688 24.751 3.85905 25.0987 3.99324 25.362C4.28086 25.9265 4.7398 26.3854 5.30429 26.6731C5.56764 26.8072 5.91533 26.8994 6.5205 26.9489C7.13734 26.9993 7.92965 27 9.06626 27H22.9329C24.0695 27 24.8618 26.9993 25.4787 26.9489C26.0839 26.8994 26.4315 26.8072 26.6949 26.6731C27.2594 26.3854 27.7183 25.9265 28.0059 25.362C28.1401 25.0987 28.2323 24.751 28.2818 24.1458C28.3321 23.529 28.3329 22.7366 28.3329 21.6V15.7334C28.3329 14.5968 28.3321 13.8045 28.2818 13.1876C28.2323 12.5824 28.1401 12.2348 28.0059 11.9714C27.7183 11.4069 27.2594 10.948 26.6949 10.6604C26.4315 10.5262 26.0839 10.434 25.4787 10.3845C24.8618 10.3341 24.0695 10.3334 22.9329 10.3334H15.9991C15.9994 10.3334 15.9988 10.3334 15.9991 10.3334Z" fill="#1F1F1F"/>
</svg>
