<svg width="32" height="32" viewBox="0 0 32 32" fill="none" xmlns="http://www.w3.org/2000/svg">
<path fill-rule="evenodd" clip-rule="evenodd" d="M10.9061 4.33311C10.9616 4.33316 11.0178 4.33321 11.0748 4.33321H20.9243C20.9813 4.33321 21.0375 4.33316 21.0931 4.33311C22.0322 4.33223 22.7684 4.33155 23.4196 4.58763C23.9908 4.8123 24.4965 5.17679 24.8903 5.64768C25.3391 6.18441 25.5713 6.88308 25.8675 7.7743C25.885 7.827 25.9027 7.88037 25.9207 7.93441L27.2503 11.9231L28.8857 11.1055C29.3797 10.8585 29.9803 11.0587 30.2273 11.5527C30.4743 12.0466 30.2741 12.6473 29.7801 12.8943L28.5528 13.508C29.0614 13.9362 29.4826 14.464 29.7879 15.0633C30.0897 15.6556 30.2155 16.2957 30.2751 17.0246C30.3329 17.7325 30.3329 18.6067 30.3329 19.6905V23.3332C30.3329 23.3662 30.3329 23.3988 30.3329 23.4309C30.3332 23.9545 30.3334 24.3585 30.2624 24.7152C29.9731 26.1697 28.8361 27.3068 27.3816 27.5961C27.0249 27.667 26.6209 27.6668 26.0973 27.6666C26.0651 27.6666 26.0326 27.6665 25.9996 27.6665H25.3329C23.4202 27.6665 21.8496 26.202 21.6812 24.3332H10.318C10.1495 26.202 8.57892 27.6665 6.66623 27.6665H5.99957C5.96654 27.6665 5.93399 27.6666 5.90188 27.6666C5.37824 27.6668 4.97425 27.667 4.61757 27.5961C3.16304 27.3068 2.02601 26.1697 1.73669 24.7152C1.66574 24.3585 1.66594 23.9545 1.6662 23.4309C1.66622 23.3988 1.66623 23.3662 1.66623 23.3332L1.66623 19.6904C1.66622 18.6066 1.66622 17.7325 1.72405 17.0246C1.7836 16.2957 1.90941 15.6556 2.2112 15.0633C2.51653 14.464 2.93769 13.9362 3.44636 13.508L2.21902 12.8943C1.72504 12.6473 1.52482 12.0466 1.77181 11.5527C2.0188 11.0587 2.61947 10.8585 3.11345 11.1055L4.74883 11.9231L6.07841 7.93441C6.09642 7.88036 6.11416 7.827 6.13167 7.7743C6.42782 6.88308 6.65999 6.18441 7.10884 5.64768C7.50262 5.17679 8.00832 4.8123 8.57957 4.58763C9.2307 4.33155 9.96693 4.33223 10.9061 4.33311ZM6.70888 12.3676C7.34943 12.3332 8.11236 12.3332 9.02343 12.3332H22.9757C23.8868 12.3332 24.6497 12.3332 25.2903 12.3676L24.0234 8.56687C23.6467 7.43683 23.5293 7.13786 23.3561 6.9307C23.1771 6.71666 22.9472 6.55098 22.6876 6.44886C22.4362 6.35002 22.1155 6.33321 20.9243 6.33321H11.0748C9.88364 6.33321 9.56289 6.35002 9.31158 6.44886C9.05192 6.55098 8.82206 6.71666 8.64307 6.9307C8.46983 7.13786 8.35245 7.43683 7.97578 8.56687L6.70888 12.3676ZM6.52047 14.3844C5.91531 14.4338 5.56762 14.526 5.30426 14.6602C4.73978 14.9478 4.28084 15.4068 3.99322 15.9712C3.85903 16.2346 3.76685 16.5823 3.71741 17.1875C3.66701 17.8043 3.66623 18.5966 3.66623 19.7332V23.3332C3.66623 24.0007 3.67108 24.1884 3.69826 24.325C3.82977 24.9862 4.3466 25.503 5.00775 25.6345C5.1444 25.6617 5.3321 25.6665 5.99957 25.6665H6.66623C7.58671 25.6665 8.3329 24.9204 8.3329 23.9999C8.3329 23.0794 9.07909 22.3332 9.99957 22.3332H21.9996C22.92 22.3332 23.6662 23.0794 23.6662 23.9999C23.6662 24.9204 24.4124 25.6665 25.3329 25.6665H25.9996C26.667 25.6665 26.8547 25.6617 26.9914 25.6345C27.6525 25.503 28.1694 24.9862 28.3009 24.325C28.3281 24.1884 28.3329 24.0007 28.3329 23.3332V19.7332C28.3329 18.5966 28.3321 17.8043 28.2817 17.1875C28.2323 16.5823 28.1401 16.2346 28.0059 15.9712C27.7183 15.4068 27.2594 14.9478 26.6949 14.6602C26.4315 14.526 26.0838 14.4338 25.4787 14.3844C24.8618 14.334 24.0695 14.3332 22.9329 14.3332H9.06624C7.92963 14.3332 7.13732 14.334 6.52047 14.3844ZM5.66623 17.3332C5.66623 16.7809 6.11395 16.3332 6.66623 16.3332H10.6662C11.2185 16.3332 11.6662 16.7809 11.6662 17.3332C11.6662 17.8855 11.2185 18.3332 10.6662 18.3332H6.66623C6.11395 18.3332 5.66623 17.8855 5.66623 17.3332ZM20.3329 17.3332C20.3329 16.7809 20.7806 16.3332 21.3329 16.3332H25.3329C25.8852 16.3332 26.3329 16.7809 26.3329 17.3332C26.3329 17.8855 25.8852 18.3332 25.3329 18.3332H21.3329C20.7806 18.3332 20.3329 17.8855 20.3329 17.3332Z" fill="#1F1F1F"/>
</svg>
