<svg width="32" height="32" viewBox="0 0 32 32" fill="none" xmlns="http://www.w3.org/2000/svg">
<mask id="mask0_609_13929" style="mask-type:alpha" maskUnits="userSpaceOnUse" x="0" y="0" width="32" height="32">
<rect width="32" height="32" fill="#D9D9D9"/>
</mask>
<g mask="url(#mask0_609_13929)">
<path fill-rule="evenodd" clip-rule="evenodd" d="M12.6666 7.3335H19.3333C21.7469 7.3335 23.3558 7.33774 24.5532 7.49872C25.6929 7.65196 26.1559 7.91348 26.4546 8.21218C26.7533 8.51087 27.0148 8.97384 27.1681 10.1136C27.2047 10.3862 27.2332 10.6801 27.2554 11H4.74448C4.76668 10.6801 4.7952 10.3862 4.83185 10.1136C4.98509 8.97384 5.24661 8.51087 5.54531 8.21218C5.844 7.91348 6.30697 7.65196 7.44676 7.49872C8.64409 7.33774 10.2531 7.3335 12.6666 7.3335ZM4.67565 13C4.66719 13.684 4.66663 14.4555 4.66663 15.3335V16.6668C4.66663 19.0804 4.67087 20.6894 4.83185 21.8867C4.98509 23.0265 5.24661 23.4895 5.54531 23.7882C5.844 24.0868 6.30697 24.3484 7.44676 24.5016C8.64409 24.6626 10.2531 24.6668 12.6666 24.6668H19.3333C21.7469 24.6668 23.3558 24.6626 24.5532 24.5016C25.6929 24.3484 26.1559 24.0868 26.4546 23.7882C26.7533 23.4895 27.0148 23.0265 27.1681 21.8867C27.329 20.6894 27.3333 19.0804 27.3333 16.6668V15.3335C27.3333 14.4555 27.3327 13.684 27.3243 13H4.67565ZM2.66663 15.3335C2.66663 10.6195 2.66663 8.26243 4.13109 6.79796C5.59556 5.3335 7.95258 5.3335 12.6666 5.3335H19.3333C24.0473 5.3335 26.4044 5.3335 27.8688 6.79796C29.3333 8.26243 29.3333 10.6195 29.3333 15.3335V16.6668C29.3333 21.3809 29.3333 23.7379 27.8688 25.2024C26.4044 26.6668 24.0473 26.6668 19.3333 26.6668H12.6666C7.95258 26.6668 5.59556 26.6668 4.13109 25.2024C2.66663 23.7379 2.66663 21.3809 2.66663 16.6668V15.3335ZM7 20C7 19.4477 7.44772 19 8 19H10.6667C11.219 19 11.6667 19.4477 11.6667 20C11.6667 20.5523 11.219 21 10.6667 21H8C7.44772 21 7 20.5523 7 20ZM14.6666 19C14.1143 19 13.6666 19.4477 13.6666 20C13.6666 20.5523 14.1143 21 14.6666 21H20C20.5522 21 21 20.5523 21 20C21 19.4477 20.5522 19 20 19H14.6666Z" fill="#1F1F1F"/>
</g>
</svg>
