<svg width="32" height="32" viewBox="0 0 32 32" fill="none" xmlns="http://www.w3.org/2000/svg">
<mask id="mask0_609_13171" style="mask-type:alpha" maskUnits="userSpaceOnUse" x="0" y="0" width="32" height="32">
<rect width="32" height="32" fill="#D9D9D9"/>
</mask>
<g mask="url(#mask0_609_13171)">
<path fill-rule="evenodd" clip-rule="evenodd" d="M10.6667 3C10.1145 3 9.66675 3.44772 9.66675 4C9.66675 4.55228 10.1145 5 10.6667 5H11.0001V8.17135C9.93972 8.31983 9.15896 8.59697 8.52015 9.11427C8.24862 9.33415 8.00089 9.58187 7.78102 9.8534C6.66675 11.2294 6.66675 13.2641 6.66675 17.3333V20C6.66675 24.0693 6.66675 26.1039 7.78102 27.4799C8.00089 27.7515 8.24862 27.9992 8.52015 28.2191C9.89616 29.3333 11.9308 29.3333 16.0001 29.3333C20.0694 29.3333 22.104 29.3333 23.48 28.2191C23.7515 27.9992 23.9993 27.7515 24.2191 27.4799C25.3334 26.1039 25.3334 24.0693 25.3334 20V17.3333C25.3334 13.264 25.3334 11.2294 24.2191 9.8534C23.9993 9.58187 23.7515 9.33415 23.48 9.11427C22.8412 8.59698 22.0605 8.31984 21.0001 8.17136V5H21.3334C21.8857 5 22.3334 4.55228 22.3334 4C22.3334 3.44772 21.8857 3 21.3334 3H21.0001H19.0001H13.0001H11.0001H10.6667ZM19.0001 5H13.0001V8.02534C13.8577 8 14.8472 8 16.0001 8C17.153 8 18.1426 8 19.0001 8.02534V5ZM23.3334 20V17.3333C23.3334 15.2502 23.3302 13.862 23.2077 12.816C23.0903 11.8134 22.887 11.3864 22.6649 11.112C22.5329 10.9491 22.3843 10.8005 22.2214 10.6686C21.947 10.4464 21.52 10.2431 20.5174 10.1257C19.4714 10.0032 18.0832 10 16.0001 10C13.9169 10 12.5287 10.0032 11.4828 10.1257C10.4802 10.2431 10.0531 10.4464 9.77879 10.6686C9.61587 10.8005 9.46724 10.9491 9.33531 11.112C9.11316 11.3864 8.90987 11.8134 8.79246 12.816C8.66996 13.862 8.66675 15.2502 8.66675 17.3333V20C8.66675 20.8974 8.66734 21.6658 8.67782 22.3335H23.3223C23.3328 21.6658 23.3334 20.8974 23.3334 20ZM8.79246 24.5173C8.78542 24.4572 8.77877 24.3959 8.77249 24.3335H23.2277C23.2214 24.3959 23.2147 24.4572 23.2077 24.5173C23.0903 25.5199 22.887 25.947 22.6649 26.2213C22.5329 26.3842 22.3843 26.5328 22.2214 26.6648C21.947 26.8869 21.52 27.0902 20.5174 27.2076C19.4714 27.3301 18.0832 27.3333 16.0001 27.3333C13.9169 27.3333 12.5287 27.3301 11.4828 27.2076C10.4802 27.0902 10.0531 26.8869 9.77879 26.6648C9.61587 26.5328 9.46724 26.3842 9.33531 26.2213C9.11316 25.947 8.90987 25.5199 8.79246 24.5173Z" fill="#1F1F1F"/>
</g>
</svg>
