<svg width="85" height="106" viewBox="0 0 85 106" fill="none" xmlns="http://www.w3.org/2000/svg">
<mask id="mask0_1191_1579" style="mask-type:alpha" maskUnits="userSpaceOnUse" x="41" y="1" width="26" height="25">
<rect x="40.4518" y="20.2393" width="29.0412" height="8.29936" rx="2.09566" transform="rotate(-42.0844 40.4518 20.2393)" fill="#D9D9D9"/>
</mask>
<g mask="url(#mask0_1191_1579)">
<rect x="40.4518" y="20.2393" width="29.0412" height="8.29936" rx="2.09566" transform="rotate(-42.0844 40.4518 20.2393)" fill="#D88532"/>
<rect x="40.4518" y="20.2393" width="29.0412" height="8.29936" rx="2.09566" transform="rotate(-42.0844 40.4518 20.2393)" fill="#D88532"/>
<path d="M46.9451 22.7093C47.7208 23.5683 49.046 23.6358 49.905 22.8601L54.2047 18.9771L53.6863 19.4453C52.8273 20.221 51.5021 20.1535 50.7264 19.2945L47.9876 16.2618C47.2119 15.4028 47.2794 14.0776 48.1384 13.3019L48.6568 12.8337L44.3571 16.7167C43.4981 17.4924 43.4306 18.8176 44.2063 19.6766L46.9451 22.7093Z" fill="#EFBB6E"/>
<path d="M66.5584 5.04037C67.3341 5.89934 67.2666 7.22452 66.4076 8.00024L45.7753 26.6328L45.148 25.9382L59.9253 12.5932C61.0706 11.5589 61.1606 9.792 60.1263 8.6467L58.93 7.32209C57.8958 6.17679 56.1288 6.0868 54.9835 7.12109L60.8386 1.83353C61.6976 1.05781 63.0228 1.1253 63.7985 1.98428L66.5584 5.04037Z" fill="#703307"/>
<path d="M40.317 21.8047L64.1227 0.306409L63.2588 -0.650156L40.4089 19.985L40.317 21.8047Z" fill="#EFBB6E"/>
</g>
<mask id="mask1_1191_1579" style="mask-type:alpha" maskUnits="userSpaceOnUse" x="19" y="31" width="66" height="75">
<path d="M20.7256 48.5396C20.85 44.4253 24.1083 41.0936 28.2189 40.8776C30.0867 40.7794 31.5508 39.2363 31.5508 37.3659V31.2894L74.4283 31.2832V36.9414C74.4283 38.5963 75.7698 39.9378 77.4247 39.9378C81.1481 39.9378 84.1666 42.9563 84.1666 46.6797V96.5826C84.1666 101.397 80.2638 105.3 75.4495 105.3H27.9934C23.0758 105.3 19.1316 101.234 19.2803 96.319L20.7256 48.5396Z" fill="#D9D9D9"/>
</mask>
<g mask="url(#mask1_1191_1579)">
<path d="M20.7256 48.5401C20.85 44.4257 24.1083 41.0941 28.2189 40.878C30.0867 40.7798 31.5508 39.2367 31.5508 37.3663V35.6078L74.4283 35.6016V36.9418C74.4283 38.5967 75.7698 39.9382 77.4247 39.9382C81.1481 39.9382 84.1666 42.9567 84.1666 46.6801V96.583C84.1666 101.397 80.2638 105.3 75.4495 105.3H27.9934C23.0758 105.3 19.1316 101.235 19.2803 96.3194L20.7256 48.5401Z" fill="#AEBCFF"/>
<mask id="mask2_1191_1579" style="mask-type:alpha" maskUnits="userSpaceOnUse" x="20" y="35" width="65" height="71">
<path d="M54.4056 50.4309C54.4056 47.299 56.5346 44.5679 59.5718 43.8037C60.9217 43.464 61.8679 42.2502 61.8679 40.8583V36.2357L70.5768 35.9678V39.4222C70.5768 41.5341 72.2683 43.257 74.3799 43.2958L75.3958 43.3144C78.3648 43.3689 80.7431 45.7913 80.7431 48.7608V97.0499C80.7431 98.0868 81.5837 98.9274 82.6206 98.9274C83.4247 98.9274 84.0861 98.2941 84.1211 97.4908L84.1617 96.5594C84.2864 101.38 80.4124 105.356 75.59 105.356H20.1309L20.1309 102.216L46.3728 101.579C50.8404 101.47 54.4056 97.8174 54.4056 93.3484V50.4309Z" fill="#A5B4FF"/>
</mask>
<g mask="url(#mask2_1191_1579)">
<path d="M55.5715 48.9343C55.625 46.5287 57.4589 44.5381 59.8521 44.2882C60.9803 44.1703 61.8167 43.1867 61.7517 42.0542L61.4197 36.278L71.8654 35.9697V40.3951C71.8654 42.1423 73.2818 43.5588 75.0291 43.5588C78.9604 43.5588 82.1474 46.7458 82.1474 50.6771V97.9241C82.1474 98.5456 82.6741 99.037 83.2941 98.994C83.7296 98.9637 84.0729 98.6115 84.0919 98.1754L84.1617 96.5729C84.2864 101.394 80.4124 105.369 75.59 105.369H20.1309L20.1309 102.23L46.5494 101.588C50.9461 101.481 54.4825 97.9375 54.5802 93.5406L55.5715 48.9343Z" fill="#5770EC"/>
<path d="M92.6902 53.6588C92.7473 79.9601 81.8763 90.9328 68.5413 90.9328C55.2064 90.9328 44.3924 74.2477 44.3924 53.6588C44.3924 33.0699 55.2064 16.3848 68.5413 16.3848C81.8763 16.3848 92.656 33.0699 92.6902 53.6588Z" fill="#CCD5FF"/>
</g>
<path d="M58.8305 67.4297L53.6007 105.301L82.0678 105.301L82.8927 102.941H79.6646C76.9504 102.941 74.6129 101.027 74.0778 98.3663L68.2186 69.2301L58.8305 67.4297Z" fill="#240544"/>
</g>
<g opacity="0.9">
<mask id="mask3_1191_1579" style="mask-type:alpha" maskUnits="userSpaceOnUse" x="29" y="21" width="47" height="15">
<path d="M29.2215 26.0263C29.2706 23.5993 31.2561 21.6596 33.6835 21.6673L71.5618 21.7874C74.0484 21.7953 76.0458 23.8399 75.9956 26.326L75.8601 33.0336C75.8307 34.4898 74.6394 35.6536 73.1829 35.649L31.7451 35.5176C30.2532 35.5129 29.0547 34.2861 29.0849 32.7944L29.2215 26.0263Z" fill="#727272"/>
</mask>
<g mask="url(#mask3_1191_1579)">
<path opacity="0.8" d="M29.2215 26.0263C29.2706 23.5993 31.2561 21.6596 33.6835 21.6673L71.5618 21.7874C74.0484 21.7953 76.0458 23.8399 75.9956 26.326L75.8601 33.0336C75.8307 34.4898 74.6394 35.6536 73.1829 35.649L31.7451 35.5176C30.2532 35.5129 29.0547 34.2861 29.0849 32.7944L29.2215 26.0263Z" fill="#CCD5FF"/>
<ellipse opacity="0.9" cx="41.4627" cy="29.2872" rx="22.8414" ry="13.4791" transform="rotate(1.15689 41.4627 29.2872)" fill="#CCD5FF"/>
</g>
</g>
<mask id="mask4_1191_1579" style="mask-type:alpha" maskUnits="userSpaceOnUse" x="45" y="72" width="30" height="9">
<rect x="45.2065" y="72.0293" width="29.0412" height="8.29936" rx="2.09566" fill="#D9D9D9"/>
</mask>
<g mask="url(#mask4_1191_1579)">
<rect x="45.2065" y="72.0293" width="29.0412" height="8.29936" rx="2.09566" fill="#D88532"/>
<path d="M48.3679 78.2178C48.3679 79.3752 49.3062 80.3135 50.4636 80.3135H56.2572H55.5586C54.4012 80.3135 53.4629 79.3752 53.4629 78.2178V74.1314C53.4629 72.974 54.4012 72.0358 55.5586 72.0358H56.2572H50.4636C49.3062 72.0358 48.3679 72.974 48.3679 74.1314V78.2178Z" fill="#EFBB6E"/>
<path d="M74.7678 78.2461C74.7678 79.4035 73.8296 80.3418 72.6722 80.3418L44.8717 80.3418V79.4058H64.7829C66.3261 79.4058 67.5771 78.1548 67.5771 76.6116V74.8268C67.5771 73.2836 66.3261 72.0326 64.7829 72.0326H72.6722C73.8296 72.0326 74.7678 72.9709 74.7678 74.1283V78.2461Z" fill="#703307"/>
<path d="M44.0558 73.0986H76.132V71.8097H45.3436L44.0558 73.0986Z" fill="#EFBB6E"/>
</g>
<mask id="mask5_1191_1579" style="mask-type:alpha" maskUnits="userSpaceOnUse" x="39" y="80" width="30" height="9">
<rect x="39.7692" y="80.3271" width="29.0412" height="8.29936" rx="2.09566" fill="#D9D9D9"/>
</mask>
<g mask="url(#mask5_1191_1579)">
<rect x="39.7692" y="80.3271" width="29.0412" height="8.29936" rx="2.09566" fill="#D88532"/>
<path d="M42.9306 86.5157C42.9306 87.6731 43.8689 88.6113 45.0263 88.6113H50.8198H50.1213C48.9639 88.6113 48.0256 87.6731 48.0256 86.5157V82.4293C48.0256 81.2719 48.9639 80.3336 50.1213 80.3336H50.8198H45.0263C43.8689 80.3336 42.9306 81.2719 42.9306 82.4293V86.5157Z" fill="#EFBB6E"/>
<path d="M69.3306 86.544C69.3306 87.7014 68.3923 88.6396 67.2349 88.6396L39.4344 88.6396V87.7037H59.3457C60.8889 87.7037 62.1399 86.4527 62.1399 84.9095V83.1247C62.1399 81.5815 60.8889 80.3305 59.3457 80.3305H67.2349C68.3923 80.3305 69.3306 81.2687 69.3306 82.4261V86.544Z" fill="#703307"/>
<path d="M38.6185 81.3965H70.6948V80.1076H39.9063L38.6185 81.3965Z" fill="#EFBB6E"/>
</g>
<mask id="mask6_1191_1579" style="mask-type:alpha" maskUnits="userSpaceOnUse" x="39" y="88" width="30" height="9">
<rect x="39.7692" y="88.6328" width="29.0412" height="8.29936" rx="2.09566" fill="#D9D9D9"/>
</mask>
<g mask="url(#mask6_1191_1579)">
<rect x="39.7692" y="88.6328" width="29.0412" height="8.29936" rx="2.09566" fill="#D88532"/>
<path d="M42.9305 94.8204C42.9305 95.9778 43.8688 96.916 45.0262 96.916H50.8198H50.1212C48.9638 96.916 48.0256 95.9778 48.0256 94.8204V90.734C48.0256 89.5766 48.9638 88.6383 50.1212 88.6383H50.8198H45.0262C43.8688 88.6383 42.9305 89.5766 42.9305 90.734V94.8204Z" fill="#EFBB6E"/>
<path d="M69.3306 94.8496C69.3306 96.007 68.3923 96.9453 67.2349 96.9453L39.4344 96.9453V96.0094H59.3457C60.8889 96.0094 62.1399 94.7583 62.1399 93.2151V91.4303C62.1399 89.8871 60.8889 88.6361 59.3457 88.6361H67.2349C68.3923 88.6361 69.3306 89.5744 69.3306 90.7318V94.8496Z" fill="#703307"/>
<path d="M38.6185 89.7021H70.6948V88.4133H39.9063L38.6185 89.7021Z" fill="#EFBB6E"/>
</g>
<mask id="mask7_1191_1579" style="mask-type:alpha" maskUnits="userSpaceOnUse" x="39" y="96" width="30" height="10">
<rect x="39.7692" y="96.9307" width="29.0412" height="8.29936" rx="2.09566" fill="#D9D9D9"/>
</mask>
<g mask="url(#mask7_1191_1579)">
<rect x="39.7692" y="96.9307" width="29.0412" height="8.29936" rx="2.09566" fill="#D88532"/>
<path d="M42.9305 103.119C42.9305 104.277 43.8688 105.215 45.0262 105.215H50.8198H50.1212C48.9638 105.215 48.0256 104.277 48.0256 103.119V99.0328C48.0256 97.8754 48.9638 96.9371 50.1212 96.9371H50.8198H45.0262C43.8688 96.9371 42.9305 97.8754 42.9305 99.0328V103.119Z" fill="#EFBB6E"/>
<path d="M69.3306 103.147C69.3306 104.305 68.3923 105.243 67.2349 105.243L39.4344 105.243V104.307H59.3457C60.8889 104.307 62.1399 103.056 62.1399 101.513V99.7282C62.1399 98.185 60.8889 96.934 59.3457 96.934H67.2349C68.3923 96.934 69.3306 97.8722 69.3306 99.0296V103.147Z" fill="#703307"/>
<path d="M38.6185 98H70.6947V96.7111H39.9063L38.6185 98Z" fill="#EFBB6E"/>
</g>
<mask id="mask8_1191_1579" style="mask-type:alpha" maskUnits="userSpaceOnUse" x="39" y="63" width="30" height="10">
<rect x="39.7692" y="63.7373" width="29.0412" height="8.29936" rx="2.09566" fill="#D9D9D9"/>
</mask>
<g mask="url(#mask8_1191_1579)">
<rect x="39.7692" y="63.7373" width="29.0412" height="8.29936" rx="2.09566" fill="#D88532"/>
<path d="M42.9305 69.9249C42.9305 71.0823 43.8688 72.0205 45.0262 72.0205H50.8198H50.1212C48.9638 72.0205 48.0256 71.0823 48.0256 69.9249V65.8384C48.0256 64.681 48.9638 63.7428 50.1212 63.7428H50.8198H45.0262C43.8688 63.7428 42.9305 64.681 42.9305 65.8384V69.9249Z" fill="#EFBB6E"/>
<path d="M69.3306 69.9541C69.3306 71.1115 68.3923 72.0498 67.2349 72.0498L39.4344 72.0498V71.1138H59.3457C60.8889 71.1138 62.1399 69.8628 62.1399 68.3196V66.5348C62.1399 64.9916 60.8889 63.7406 59.3457 63.7406H67.2349C68.3923 63.7406 69.3306 64.6789 69.3306 65.8363V69.9541Z" fill="#703307"/>
<path d="M38.6185 64.8066H70.6948V63.5177H39.9063L38.6185 64.8066Z" fill="#EFBB6E"/>
</g>
<mask id="mask9_1191_1579" style="mask-type:alpha" maskUnits="userSpaceOnUse" x="44" y="49" width="30" height="14">
<rect x="45.1398" y="49.5811" width="29.0412" height="8.29936" rx="2.09566" transform="rotate(9.01886 45.1398 49.5811)" fill="#D9D9D9"/>
</mask>
<g mask="url(#mask9_1191_1579)">
<rect x="45.1398" y="49.5811" width="29.0412" height="8.29936" rx="2.09566" transform="rotate(9.01886 45.1398 49.5811)" fill="#D88532"/>
<rect x="45.1398" y="49.5811" width="29.0412" height="8.29936" rx="2.09566" transform="rotate(9.01886 45.1398 49.5811)" fill="#D88532"/>
<path d="M47.2951 56.1851C47.1136 57.3282 47.8932 58.402 49.0363 58.5834L54.7583 59.4916L54.0683 59.3821C52.9253 59.2007 52.1457 58.1269 52.3271 56.9838L52.9677 52.9479C53.1491 51.8049 54.2229 51.0253 55.366 51.2067L56.0559 51.3162L50.3339 50.408C49.1908 50.2266 48.1171 51.0062 47.9357 52.1492L47.2951 56.1851Z" fill="#EFBB6E"/>
<path d="M73.362 60.356C73.1806 61.4991 72.1069 62.2787 70.9638 62.0972L43.507 57.7393L43.6537 56.8149L63.3188 59.9362C64.8429 60.1781 66.2745 59.1386 66.5165 57.6145L66.7962 55.8518C67.0382 54.3277 65.9987 52.896 64.4746 52.6541L72.2663 53.8908C73.4094 54.0722 74.189 55.146 74.0075 56.2891L73.362 60.356Z" fill="#703307"/>
<path d="M43.837 50.459L75.5167 55.4872L75.7188 54.2143L45.311 49.3879L43.837 50.459Z" fill="#EFBB6E"/>
</g>
<path d="M26.15 71.627L21.6231 105.167L41.7734 106.573L41.571 85.7853L39.723 78.2671L26.15 71.627Z" fill="#240544"/>
<path d="M61.4777 70.2428C58.6716 70.7981 57.0748 72.4088 56.5302 75.195C55.9856 72.418 54.3794 70.7889 51.5826 70.252C54.3702 69.7059 55.9763 68.0953 56.5209 65.2998C57.0655 68.0767 58.6716 69.7059 61.4777 70.252V70.2428Z" fill="white"/>
<path d="M16.916 32.7437C14.1099 33.2991 12.5131 34.9097 11.9685 37.6959C11.4238 34.919 9.81773 33.2899 7.02087 32.753C9.8085 32.2069 11.4146 30.5962 11.9592 27.8008C12.5038 30.5777 14.1099 32.2069 16.916 32.753V32.7437Z" fill="white"/>
<path d="M21.5939 20.3666C20.2398 20.6346 19.4693 21.4118 19.2065 22.7563C18.9437 21.4163 18.1686 20.6302 16.819 20.3711C18.1642 20.1076 18.9392 19.3304 19.202 17.9814C19.4648 19.3214 20.2398 20.1076 21.5939 20.3711V20.3666Z" fill="#AEBCFF"/>
<path d="M3.92866 94.477C7.21112 99.9842 10.8583 104.251 17.1679 105.09C27.2341 106.476 37.9569 99.8748 41.1664 90.3192C42.99 84.8485 40.2546 77.8823 37.5192 72.9951L2.49432 91.8513L3.92866 94.477Z" fill="#7E3E30"/>
<mask id="mask10_1191_1579" style="mask-type:alpha" maskUnits="userSpaceOnUse" x="2" y="73" width="40" height="33">
<path d="M3.94325 94.5063C7.22571 100.014 10.8729 104.281 17.1825 105.12C27.2487 106.506 37.9715 99.9041 41.181 90.3485C43.0046 84.8777 40.2691 77.9116 37.5338 73.0244L2.50891 91.8806L3.94325 94.5063Z" fill="#7E3E30"/>
</mask>
<g mask="url(#mask10_1191_1579)">
<ellipse cx="18.2541" cy="17.2514" rx="18.2541" ry="17.2514" transform="matrix(0.397121 -0.917766 -0.917766 -0.397121 42.7726 111.67)" fill="#D1674F"/>
</g>
<path d="M13.9924 99.2026C3.92619 97.8167 -1.65399 88.9176 1.59199 79.362C4.83798 69.8064 15.5972 63.205 25.6634 64.6274C35.6931 66.0498 41.2368 74.9124 38.0273 84.468C34.8178 94.0236 24.0951 100.625 14.0289 99.2391L13.9924 99.2026Z" fill="#FFC165"/>
<path d="M14.7874 94.5161C11.2132 94.0055 8.3319 92.2548 6.69067 89.5924C5.08591 86.9664 4.83061 83.7204 5.92476 80.438C7.12833 76.9002 9.7543 73.7272 13.2921 71.5753C16.8298 69.387 20.8782 68.4752 24.6348 69.0223C28.209 69.5329 31.0903 71.2835 32.7315 73.9824C34.3363 76.6084 34.5916 79.8179 33.4974 83.1369C32.2939 86.6746 29.7044 89.8112 26.1666 91.9995C22.6288 94.1878 18.5805 95.0996 14.8239 94.589L14.7874 94.5161Z" fill="#FFE0B2"/>
<path d="M20.1285 89.1016L14.1801 83.9111H16.8029C19.3031 83.8182 21.954 82.6381 22.4549 80.0097C22.6942 78.7235 22.8455 75.792 18.9798 75.792" stroke="#F0AD46" stroke-width="2.10704" stroke-linecap="round" stroke-linejoin="round"/>
<path d="M14.1241 79.6504H25.2594" stroke="#F0AD46" stroke-width="2.10704" stroke-linecap="round" stroke-linejoin="round"/>
<path d="M15.0339 75.792L26.2604 75.7914" stroke="#F0AD46" stroke-width="2.10704" stroke-linecap="round" stroke-linejoin="round"/>
</svg>
