<svg width="32" height="32" viewBox="0 0 32 32" fill="none" xmlns="http://www.w3.org/2000/svg">
<mask id="mask0_609_13657" style="mask-type:alpha" maskUnits="userSpaceOnUse" x="0" y="0" width="32" height="32">
<rect width="32" height="32" fill="#D9D9D9"/>
</mask>
<g mask="url(#mask0_609_13657)">
<path fill-rule="evenodd" clip-rule="evenodd" d="M24.6667 5.99984C24.6667 6.73622 24.0697 7.33317 23.3333 7.33317C22.597 7.33317 22 6.73622 22 5.99984C22 5.26346 22.597 4.6665 23.3333 4.6665C24.0697 4.6665 24.6667 5.26346 24.6667 5.99984ZM26.6667 5.99984C26.6667 7.84079 25.1743 9.33317 23.3333 9.33317C22.7771 9.33317 22.2527 9.19693 21.7916 8.95599L19.6054 11.1422L25.4516 16.9848L25.4555 16.9887C26.817 18.3645 26.5594 20.6554 24.9285 21.6973C22.7114 23.1171 20.1468 23.7685 17.6113 23.6534L19.2846 27H22.6667C23.219 27 23.6667 27.4477 23.6667 28C23.6667 28.5523 23.219 29 22.6667 29H18.6908C18.6752 29.0004 18.6596 29.0004 18.644 29H10.6894C10.6738 29.0004 10.6582 29.0004 10.6425 29H6.66675C6.11446 29 5.66675 28.5523 5.66675 28C5.66675 27.4477 6.11446 27 6.66675 27H10.0487L12.4169 22.2636C11.3055 21.687 10.2626 20.9328 9.3303 20.0011C5.09523 15.7687 4.5356 9.25796 7.63251 4.41176L7.63388 4.40963C8.68353 2.77621 10.9658 2.50809 12.3467 3.88812L18.1907 9.72848L20.3773 7.54185C20.1363 7.08073 20 6.5562 20 5.99984C20 4.15889 21.4924 2.6665 23.3333 2.6665C25.1743 2.6665 26.6667 4.15889 26.6667 5.99984ZM15.2028 23.3084C14.8863 23.2312 14.5723 23.1415 14.2614 23.0393C14.2513 23.0644 14.2401 23.0893 14.2278 23.1139L12.2848 27H17.0486L15.2028 23.3084ZM10.7441 18.5864C7.18957 15.0341 6.71436 9.56391 9.31704 5.4899C9.68767 4.91438 10.468 4.83819 10.9329 5.30278L24.0339 18.3955L24.0356 18.3972C24.4978 18.8664 24.4103 19.6552 23.8516 20.0119L23.8504 20.0127C19.775 22.623 14.3003 22.1403 10.7441 18.5864Z" fill="#1F1F1F"/>
</g>
</svg>
