<svg width="147" height="109" viewBox="0 0 147 109" fill="none" xmlns="http://www.w3.org/2000/svg">
<g clip-path="url(#clip0_679_2472)">
<path d="M0 44.7959V48.5292L3.73329 49.7736V46.0403L0 44.7959Z" fill="#88B4FE"/>
<path d="M57.8411 57.5409L4.65417 53.7578C2.01598 53.5836 0 51.3934 0 48.7801V48.0583H57.8411V57.5658V57.5409Z" fill="#99AAFF"/>
<mask id="mask0_679_2472" style="mask-type:alpha" maskUnits="userSpaceOnUse" x="0" y="48" width="58" height="10">
<path d="M57.8411 57.5409L4.65417 53.7578C2.01598 53.5836 0 51.3934 0 48.7801V48.0583H57.8411V57.5658V57.5409Z" fill="#99AAFF"/>
</mask>
<g mask="url(#mask0_679_2472)">
<path d="M59.4916 30.8566C40.8954 35.807 28.5433 50.0497 31.9025 62.6685C35.2617 75.2874 53.0601 81.5039 71.6563 76.5535C90.2524 71.6032 102.604 57.3605 99.2453 44.7416C95.8861 32.1228 78.0878 25.9063 59.4916 30.8566Z" fill="#5770EC"/>
</g>
<path d="M3.9324 39.8232H12.3447C14.51 39.8232 16.2771 41.5903 16.2771 43.7556V45.7965C16.2771 47.1711 15.1628 48.2854 13.7883 48.2854H2.48886C1.1143 48.2854 0 47.1711 0 45.7965V43.7556C0 41.5903 1.76709 39.8232 3.9324 39.8232Z" fill="#5770EC"/>
<path d="M157.507 36.3005V76.4956L48.2612 75.535C40.1973 75.535 35.2943 66.6747 39.5751 59.8303L44.1795 52.4882L48.8088 45.0963C49.9786 43.2296 51.3474 41.5621 52.8656 40.0688C58.3162 34.7675 65.8326 31.9053 73.5978 32.4031L157.507 36.3005Z" fill="#99AAFF"/>
<mask id="mask1_679_2472" style="mask-type:alpha" maskUnits="userSpaceOnUse" x="37" y="32" width="83" height="44">
<path d="M119.235 35.34V75.535H48.2527C40.1888 75.535 35.2857 66.6747 39.5666 59.8303L44.171 52.4882L48.8002 45.0963C49.97 43.2296 51.3389 41.5621 52.8571 40.0688C58.3077 34.7675 65.824 31.9053 73.5893 32.4031L119.235 35.34Z" fill="#88B4FE"/>
</mask>
<g mask="url(#mask1_679_2472)">
<path d="M72.7055 48.98C85.2288 34.3686 87.3434 15.6348 77.4285 7.13685C67.5137 -1.3611 49.324 3.5948 36.8007 18.2062C24.2774 32.8175 22.1628 51.5513 32.0777 60.0493C41.9925 68.5472 60.1822 63.5913 72.7055 48.98Z" fill="#CCD5FF"/>
</g>
<path d="M72.2749 75.5403C86.337 75.5403 122.036 64.7795 149.363 64.7795V76.5021L72.2749 75.5403Z" fill="#455CD4"/>
<path d="M84.5685 46.495C84.4938 48.1625 83.7969 49.6558 82.677 50.7509C81.557 51.8211 80.0139 52.4931 78.3463 52.4931H44.1743L48.8036 45.1012C49.9734 43.2346 51.3422 41.567 52.8604 40.0737H78.3463C81.8805 40.0737 84.6929 42.9857 84.5685 46.495Z" fill="#5F259F"/>
<mask id="mask2_679_2472" style="mask-type:alpha" maskUnits="userSpaceOnUse" x="44" y="40" width="41" height="13">
<path d="M84.5685 46.495C84.4938 48.1625 83.7969 49.6558 82.677 50.7509C81.557 51.8211 80.0139 52.4931 78.3463 52.4931H44.1743L48.8036 45.1012C49.9734 43.2346 51.3422 41.567 52.8604 40.0737H78.3463C81.8805 40.0737 84.6929 42.9857 84.5685 46.495Z" fill="#5F259F"/>
</mask>
<g mask="url(#mask2_679_2472)">
<path d="M32.3535 59.7312C51.5974 59.7312 67.1976 43.0167 67.1976 22.3983C67.1976 1.77993 51.5974 -14.9346 32.3535 -14.9346C13.1097 -14.9346 -2.49048 1.77993 -2.49048 22.3983C-2.49048 43.0167 13.1097 59.7312 32.3535 59.7312Z" fill="#8B54C7"/>
</g>
<path d="M96.5664 40.7163H94.6748C93.2453 40.7163 92.0864 41.8752 92.0864 43.3047V47.71C92.0864 49.1395 93.2453 50.2984 94.6748 50.2984H96.5664C97.9959 50.2984 99.1548 49.1395 99.1548 47.71V43.3047C99.1548 41.8752 97.9959 40.7163 96.5664 40.7163Z" fill="#461B76"/>
<path d="M107.813 40.7163H105.922C104.492 40.7163 103.333 41.8752 103.333 43.3047V47.71C103.333 49.1395 104.492 50.2984 105.922 50.2984H107.813C109.243 50.2984 110.402 49.1395 110.402 47.71V43.3047C110.402 41.8752 109.243 40.7163 107.813 40.7163Z" fill="#461B76"/>
<path d="M119.081 40.7163H117.19C115.76 40.7163 114.601 41.8752 114.601 43.3047V47.71C114.601 49.1395 115.76 50.2984 117.19 50.2984H119.081C120.511 50.2984 121.67 49.1395 121.67 47.71V43.3047C121.67 41.8752 120.511 40.7163 119.081 40.7163Z" fill="#461B76"/>
<mask id="mask3_679_2472" style="mask-type:alpha" maskUnits="userSpaceOnUse" x="92" y="40" width="30" height="11">
<path d="M96.5664 40.7163H94.6748C93.2453 40.7163 92.0864 41.8752 92.0864 43.3047V47.71C92.0864 49.1395 93.2453 50.2984 94.6748 50.2984H96.5664C97.9959 50.2984 99.1548 49.1395 99.1548 47.71V43.3047C99.1548 41.8752 97.9959 40.7163 96.5664 40.7163Z" fill="#461B76"/>
<path d="M107.813 40.7163H105.922C104.492 40.7163 103.333 41.8752 103.333 43.3047V47.71C103.333 49.1395 104.492 50.2984 105.922 50.2984H107.813C109.243 50.2984 110.402 49.1395 110.402 47.71V43.3047C110.402 41.8752 109.243 40.7163 107.813 40.7163Z" fill="#461B76"/>
<path d="M119.081 40.7163H117.19C115.76 40.7163 114.601 41.8752 114.601 43.3047V47.71C114.601 49.1395 115.76 50.2984 117.19 50.2984H119.081C120.511 50.2984 121.67 49.1395 121.67 47.71V43.3047C121.67 41.8752 120.511 40.7163 119.081 40.7163Z" fill="#461B76"/>
</mask>
<g mask="url(#mask3_679_2472)">
<path d="M99.1639 44.0767C112.492 46.6221 124.671 41.4829 126.368 32.5978C128.065 23.7128 118.637 14.4465 105.309 11.901C91.9816 9.35551 79.8018 14.4948 78.1048 23.3798C76.4078 32.2649 85.8363 41.5312 99.1639 44.0767Z" fill="#7A3E94"/>
</g>
<path d="M53.6973 104.069C54.886 104.069 55.7445 102.93 55.4308 101.791C54.9355 99.9912 53.2846 98.5384 50.9072 97.7459C50.9402 97.6303 50.9898 97.5148 51.0228 97.3992C52.4261 91.7199 46.6477 87.1138 38.1288 87.1138C30.4189 87.1138 23.1382 90.8614 20.7608 95.7813C16.3362 96.4582 12.407 98.5384 10.3102 101.262C9.41873 102.418 10.3102 104.086 11.7631 104.086H53.6973V104.069Z" fill="white"/>
<path d="M97.1968 22.3779C98.7558 22.3779 99.8818 20.8745 99.4704 19.371C98.8208 16.9959 96.6554 15.0784 93.5373 14.0325C93.5806 13.88 93.6456 13.7275 93.6889 13.5749C95.5294 6.0793 87.9506 0 76.7773 0C66.665 0 57.1157 4.94624 53.9975 11.4396C48.1943 12.3329 43.0407 15.0784 40.2907 18.6737C39.1214 20.199 40.2907 22.3997 42.1962 22.3997H97.1968V22.3779Z" fill="white"/>
</g>
<defs>
<clipPath id="clip0_679_2472">
<rect width="200.691" height="112.264" fill="white"/>
</clipPath>
</defs>
</svg>
