<svg width="88" height="105" viewBox="0 0 88 105" fill="none" xmlns="http://www.w3.org/2000/svg">
<rect x="17.5953" y="19.8145" width="53.0774" height="12.7095" rx="4" fill="#99AAFF"/>
<path d="M20.5383 32.5234C8.6602 40.2506 0.805908 53.6426 0.805908 68.8691C0.805908 81.4168 6.13969 92.7188 14.6637 100.631C19.663 105.272 26.6379 106.734 33.4591 106.734H54.8089C61.6302 106.734 68.6051 105.272 73.6044 100.631C82.1284 92.7188 87.4622 81.4168 87.4622 68.8691C87.4622 53.6426 79.6079 40.2506 67.7298 32.5234H20.5383Z" fill="#B5C1FF"/>
<path d="M73.7666 100.48H14.5018C15.1028 101.044 15.7198 101.591 16.3522 102.12C20.4079 105.512 25.7462 106.709 31.0349 106.734H57.2335C62.5222 106.709 67.8605 105.512 71.9162 102.12C72.5486 101.591 73.1656 101.044 73.7666 100.48Z" fill="#7A87C8"/>
<rect x="27.3126" y="75.4365" width="23.7472" height="6.26902" rx="2" fill="#5D3128"/>
<mask id="mask0_1187_1484" style="mask-type:alpha" maskUnits="userSpaceOnUse" x="27" y="75" width="25" height="7">
<rect x="27.3127" y="75.4365" width="23.7472" height="6.26902" rx="2" fill="#5D3128"/>
</mask>
<g mask="url(#mask0_1187_1484)">
<rect x="33.6953" y="81.0713" width="17.5964" height="0.633636" rx="0.316818" fill="#46251F"/>
</g>
<rect x="28.7098" y="69.1729" width="23.7472" height="6.26902" rx="2" fill="#5D3128"/>
<mask id="mask1_1187_1484" style="mask-type:alpha" maskUnits="userSpaceOnUse" x="28" y="69" width="25" height="7">
<rect x="28.7095" y="69.1738" width="23.7472" height="6.26902" rx="2" fill="#5D3128"/>
</mask>
<g mask="url(#mask1_1187_1484)">
<rect x="35.0922" y="74.8096" width="17.5964" height="0.633636" rx="0.316818" fill="#42231D"/>
</g>
<rect x="32.8777" y="81.71" width="23.7472" height="6.26902" rx="2" fill="#5D3128"/>
<mask id="mask2_1187_1484" style="mask-type:alpha" maskUnits="userSpaceOnUse" x="32" y="81" width="25" height="7">
<rect x="32.8777" y="81.71" width="23.7472" height="6.26902" rx="2" fill="#5D3128"/>
</mask>
<g mask="url(#mask2_1187_1484)">
<ellipse cx="36.3376" cy="80.899" rx="10.7353" ry="7.8424" fill="#E87E66"/>
<rect x="39.4482" y="87.3457" width="25.4962" height="0.633636" rx="0.316818" fill="#5D3128"/>
</g>
<rect x="36.0289" y="87.9785" width="23.7472" height="6.26902" rx="2" fill="#5D3128"/>
<mask id="mask3_1187_1484" style="mask-type:alpha" maskUnits="userSpaceOnUse" x="36" y="87" width="24" height="8">
<rect x="36.0289" y="87.9775" width="23.7472" height="6.26902" rx="2" fill="#5D3128"/>
</mask>
<g mask="url(#mask3_1187_1484)">
<ellipse cx="45.4835" cy="91.1119" rx="10.7353" ry="7.8424" fill="#E87E66"/>
<rect x="38.9644" y="93.6133" width="25.4962" height="0.633636" rx="0.316818" fill="#5D3128"/>
</g>
<rect x="30.8491" y="94.249" width="23.7472" height="6.26902" rx="2" fill="#5D3128"/>
<mask id="mask4_1187_1484" style="mask-type:alpha" maskUnits="userSpaceOnUse" x="30" y="94" width="25" height="7">
<rect x="30.8491" y="94.25" width="23.7472" height="6.26902" rx="2" fill="#5D3128"/>
</mask>
<g mask="url(#mask4_1187_1484)">
<ellipse cx="35.755" cy="94.6539" rx="10.7353" ry="7.8424" fill="#E87E66"/>
<rect x="39.0895" y="99.8857" width="25.4962" height="0.633636" rx="0.316818" fill="#5D3128"/>
</g>
<path d="M52.0697 100.471L49.5532 92.751C51.4255 94.1953 55.17 97.3407 55.17 98.3678C55.17 99.3949 54.2071 100.187 53.7257 100.454L52.0697 100.471Z" fill="#240544"/>
<mask id="mask5_1187_1484" style="mask-type:alpha" maskUnits="userSpaceOnUse" x="48" y="79" width="26" height="23">
<path fill-rule="evenodd" clip-rule="evenodd" d="M50.1975 83.5435L52.464 80.0956L53.3587 80.6934C54.0691 80.3068 54.8518 79.9975 55.7008 79.7785C61.7223 78.2257 68.805 81.8058 71.5203 87.7749C72.407 89.7241 72.7184 91.6871 72.526 93.501L73.357 94.0563L71.116 97.5129L71.1155 97.5125C69.9117 99.3563 68.004 100.758 65.5341 101.395C59.5127 102.948 52.43 99.3676 49.7146 93.3984C48.0893 89.8254 48.3971 86.2063 50.1975 83.5435Z" fill="#9E513F"/>
</mask>
<g mask="url(#mask5_1187_1484)">
<path d="M49.7141 93.4007C52.4295 99.3699 59.5121 102.95 65.5336 101.397C68.3251 100.677 71.8227 96.9403 72.9733 94.7324C74.3046 92.1778 72.9763 90.9791 71.5198 87.7773C68.8044 81.8081 61.7218 78.228 55.7003 79.7808C49.6788 81.3337 46.9987 87.4315 49.7141 93.4007Z" fill="#9E513F"/>
<ellipse cx="8.84838" cy="11.7516" rx="8.84838" ry="11.7516" transform="matrix(-0.731632 0.6817 0.6817 0.731632 50.6063 75.3291)" fill="#E87E66"/>
</g>
<path d="M53.5335 89.5381C55.9168 94.7772 62.0526 97.7909 67.1424 96.4783C72.2322 95.1657 74.6255 89.9524 72.2423 84.7133C69.859 79.4742 63.7232 76.4606 58.6334 77.7732C53.5436 79.0858 51.1502 84.299 53.5335 89.5381Z" fill="#FDE6C4" stroke="#F9C372" stroke-width="3.19825"/>
<mask id="mask6_1187_1484" style="mask-type:alpha" maskUnits="userSpaceOnUse" x="50" y="75" width="25" height="24">
<path d="M53.531 89.5225C55.9143 94.7616 62.0501 97.7753 67.1399 96.4627C72.2297 95.1501 74.623 89.9368 72.2398 84.6977C69.8565 79.4586 63.7207 76.445 58.6309 77.7576C53.5411 79.0702 51.1477 84.2834 53.531 89.5225Z" fill="#FDE6C4" stroke="#F9C372" stroke-width="3.19825"/>
</mask>
<g mask="url(#mask6_1187_1484)">
<path d="M63.9329 92.126L60.291 88.329L61.8078 88.4287C63.25 88.4598 64.7371 87.7487 64.9246 85.9596C65.0129 85.0838 64.9864 83.0728 62.7508 82.9258" stroke="#F9C372" stroke-width="1.531" stroke-linecap="round" stroke-linejoin="round"/>
<path d="M60.0912 85.3867L66.5308 85.81" stroke="#F9C372" stroke-width="1.531" stroke-linecap="round" stroke-linejoin="round"/>
<path d="M60.4662 82.7754L66.9585 83.2018" stroke="#F9C372" stroke-width="1.531" stroke-linecap="round" stroke-linejoin="round"/>
</g>
<path d="M57.9627 81.5649L52.1475 77.8128L52.7787 79.1894L49.7013 84.3405L57.9627 81.5649Z" fill="#240544"/>
<mask id="mask7_1187_1484" style="mask-type:alpha" maskUnits="userSpaceOnUse" x="40" y="59" width="25" height="24">
<path fill-rule="evenodd" clip-rule="evenodd" d="M42.0692 63.3845L44.5251 60.0405L45.3881 60.6843C46.1174 60.3353 46.9149 60.0671 47.7739 59.8925C53.8678 58.6542 60.7551 62.5971 63.1571 68.6991C63.9413 70.6914 64.1505 72.6676 63.8643 74.4689L64.6655 75.0666L62.2482 78.4023L62.2478 78.4021C60.95 80.1811 58.972 81.482 56.4721 81.99C50.3782 83.2283 43.4909 79.2854 41.0889 73.1834C39.6545 69.5393 40.1441 65.9492 42.0692 63.3845Z" fill="#9E513F"/>
</mask>
<g mask="url(#mask7_1187_1484)">
<path d="M41.0886 73.1857C43.4905 79.2877 50.3778 83.2306 56.4718 81.9923C58.853 81.5084 62.9743 77.3973 64.2717 75.7466C66.2946 73.1728 64.6201 72.4191 63.1567 68.7014C60.7548 62.5994 53.8675 58.6565 47.7735 59.8948C41.6796 61.1331 38.6866 67.0836 41.0886 73.1857Z" fill="#9E513F"/>
<ellipse cx="8.84838" cy="11.7516" rx="8.84838" ry="11.7516" transform="matrix(-0.766024 0.642812 0.642812 0.766024 56.2962 66.6768)" fill="#E87E66"/>
</g>
<path d="M45.1036 69.53C47.2118 74.8857 53.1829 78.2137 58.334 77.167C63.4851 76.1203 66.1458 71.0383 64.0376 65.6826C61.9294 60.3269 55.9583 56.9989 50.8072 58.0456C45.6561 59.0923 42.9954 64.1743 45.1036 69.53Z" fill="#FDE6C4" stroke="#F9C372" stroke-width="3.19825"/>
<mask id="mask8_1187_1484" style="mask-type:alpha" maskUnits="userSpaceOnUse" x="42" y="56" width="25" height="23">
<path d="M45.1031 69.531C47.2113 74.8867 53.1824 78.2147 58.3335 77.168C63.4845 76.1213 66.1452 71.0393 64.037 65.6836C61.9289 60.3279 55.9577 56.9998 50.8066 58.0465C45.6556 59.0932 42.9949 64.1752 45.1031 69.531Z" fill="#FDE6C4" stroke="#F9C372" stroke-width="3.19825"/>
</mask>
<g mask="url(#mask8_1187_1484)">
<path d="M60.1485 70.3239L54.6317 71.0522L55.6661 69.8214C56.5954 68.6113 56.9199 66.8984 55.5119 65.6187C54.8206 64.9952 53.0894 63.7591 51.5648 65.5731" stroke="#F9C372" stroke-width="1.531" stroke-linecap="round" stroke-linejoin="round"/>
<path d="M51.9984 69.3809L56.39 64.1557" stroke="#F9C372" stroke-width="1.531" stroke-linecap="round" stroke-linejoin="round"/>
<path d="M50.0063 67.4268L54.4336 62.1585" stroke="#F9C372" stroke-width="1.531" stroke-linecap="round" stroke-linejoin="round"/>
</g>
<mask id="mask9_1187_1484" style="mask-type:alpha" maskUnits="userSpaceOnUse" x="40" y="56" width="27" height="27">
<path d="M41.9914 63.2355L44.4525 59.8843L45.3156 60.5282C46.045 60.1792 46.8424 59.911 47.7013 59.7365C53.7953 58.4982 60.6826 62.441 63.0845 68.5431C63.8688 70.5353 64.0779 72.5114 63.7918 74.3127L64.593 74.9104L62.1756 78.2461C60.8778 80.0252 58.8995 81.326 56.3996 81.8339C50.3056 83.0722 43.4184 79.1294 41.0164 73.0273C39.6091 69.4522 40.0537 65.929 41.8889 63.3752L41.8936 63.3687C41.9257 63.324 41.9583 63.2796 41.9914 63.2355Z" fill="#FDE6C4"/>
<path d="M41.016 73.0287C43.418 79.1308 50.3053 83.0736 56.3992 81.8353C58.7804 81.3515 62.9017 77.2404 64.1991 75.5896C66.222 73.0158 64.5476 72.2622 63.0842 68.5445C60.6822 62.4424 53.7949 58.4996 47.701 59.7379C41.607 60.9762 38.614 66.9267 41.016 73.0287Z" fill="#FDE6C4"/>
<path d="M43.4639 69.6911C45.8659 75.7932 52.7531 79.736 58.8471 78.4977C64.9411 77.2594 67.934 71.3089 65.5321 65.2069C63.1301 59.1048 56.2428 55.162 50.1489 56.4003C44.0549 57.6386 41.0619 63.5891 43.4639 69.6911Z" fill="#FDE6C4"/>
<path d="M43.4639 69.6911C45.8659 75.7932 52.7531 79.736 58.8471 78.4977C64.9411 77.2594 67.934 71.3089 65.5321 65.2069C63.1301 59.1048 56.2428 55.162 50.1489 56.4003C44.0549 57.6386 41.0619 63.5891 43.4639 69.6911Z" fill="#FDE6C4"/>
</mask>
<g mask="url(#mask9_1187_1484)">
<path d="M44.6152 72.0296L45.2616 66.75L43.5863 66.8315L39.4185 70.7542L41.3493 74.3829L44.6152 72.0296Z" fill="#240544"/>
</g>
<mask id="mask10_1187_1484" style="mask-type:alpha" maskUnits="userSpaceOnUse" x="22" y="51" width="26" height="23">
<path fill-rule="evenodd" clip-rule="evenodd" d="M45.2893 54.8098L42.8395 51.4741L41.9767 52.1178C41.2472 51.7687 40.4498 51.5005 39.5906 51.3259C33.4967 50.0876 26.6094 54.0305 24.2074 60.1325C23.4232 62.1249 23.2141 64.1011 23.5003 65.9025L22.6991 66.5002L25.1164 69.8359L25.1169 69.8356C26.4147 71.6146 28.3926 72.9154 30.8924 73.4234C36.9864 74.6617 43.8736 70.7188 46.2756 64.6168C47.7115 60.9688 47.2194 57.375 45.2893 54.8098Z" fill="#9E513F"/>
</mask>
<g mask="url(#mask10_1187_1484)">
<path d="M46.276 64.618C43.8741 70.72 36.9868 74.6629 30.8928 73.4246C28.0677 72.8505 24.3809 69.3001 23.1173 67.1549C21.6552 64.6728 22.9195 63.4069 24.2079 60.1337C26.6098 54.0317 33.4971 50.0888 39.5911 51.3271C45.685 52.5654 48.678 58.5159 46.276 64.618Z" fill="#9E513F"/>
<ellipse cx="43.6712" cy="61.3061" rx="8.84838" ry="11.7516" transform="rotate(40.0018 43.6712 61.3061)" fill="#E87E66"/>
</g>
<path d="M42.2612 60.9616C40.1531 66.3173 34.1819 69.6454 29.0309 68.5987C23.8798 67.552 21.2191 62.47 23.3273 57.1142C25.4355 51.7585 31.4066 48.4305 36.5577 49.4772C41.7087 50.5239 44.3694 55.6059 42.2612 60.9616Z" fill="#FDE6C4" stroke="#F9C372" stroke-width="3.19825"/>
<mask id="mask11_1187_1484" style="mask-type:alpha" maskUnits="userSpaceOnUse" x="20" y="47" width="25" height="24">
<path d="M42.2611 60.9626C40.1529 66.3183 34.1817 69.6463 29.0307 68.5996C23.8796 67.553 21.2189 62.4709 23.3271 57.1152C25.4353 51.7595 31.4064 48.4315 36.5575 49.4782C41.7086 50.5249 44.3692 55.6069 42.2611 60.9626Z" fill="#FDE6C4" stroke="#F9C372" stroke-width="3.19825"/>
</mask>
<g mask="url(#mask11_1187_1484)">
<path d="M32.5267 64.3566L29.6742 59.9357L31.1443 60.3223C32.5542 60.6274 34.1495 60.2125 34.6742 58.4917C34.9277 57.6489 35.2845 55.6695 33.1177 55.0996" stroke="#F9C372" stroke-width="1.531" stroke-linecap="round" stroke-linejoin="round"/>
<path d="M30.0383 57.0098L36.2795 58.6514" stroke="#F9C372" stroke-width="1.531" stroke-linecap="round" stroke-linejoin="round"/>
<path d="M30.9038 54.5166L37.1962 56.1713" stroke="#F9C372" stroke-width="1.531" stroke-linecap="round" stroke-linejoin="round"/>
</g>
<path d="M37.1698 100.522C39.2646 97.3568 40.5231 89.9154 37.7448 84.7012L28.4225 100.61L37.1698 100.522Z" fill="#240544"/>
<mask id="mask12_1187_1484" style="mask-type:alpha" maskUnits="userSpaceOnUse" x="17" y="76" width="22" height="26">
<path fill-rule="evenodd" clip-rule="evenodd" d="M30.4093 77.152L26.3372 76.2493L26.112 77.3025C25.3334 77.5204 24.5569 77.8439 23.7958 78.2784C18.3953 81.3613 15.8111 88.8649 18.0239 95.038C18.7463 97.0534 19.8907 98.6779 21.2925 99.8446L21.0835 100.822L25.0997 101.739L25.0997 101.739C27.2482 102.222 29.5934 101.898 31.8089 100.633C37.2094 97.5505 39.7935 90.047 37.5808 83.8738C36.2843 80.257 33.6288 77.8992 30.5656 77.1869L30.5656 77.1867L30.5455 77.1822C30.5002 77.1718 30.4548 77.1617 30.4093 77.152Z" fill="#9E513F"/>
</mask>
<g mask="url(#mask12_1187_1484)">
<path d="M37.5814 83.8737C39.7942 90.0469 37.21 97.5504 31.8095 100.633C29.3059 102.063 24.1933 101.82 21.8294 101.039C19.0943 100.135 19.2114 98.3492 18.0245 95.0379C15.8117 88.8647 18.3959 81.3612 23.7964 78.2783C29.1969 75.1954 35.3687 77.7005 37.5814 83.8737Z" fill="#9E513F"/>
<ellipse cx="33.4409" cy="83.0992" rx="8.84838" ry="11.7516" transform="rotate(-1.20445 33.4409 83.0992)" fill="#E87E66"/>
</g>
<path d="M32.1516 83.7661C34.0937 89.1842 31.7938 95.6217 27.2289 98.2276C22.664 100.833 17.3143 98.7628 15.3722 93.3447C13.4301 87.9265 15.73 81.4891 20.2949 78.8832C24.8598 76.2773 30.2094 78.3479 32.1516 83.7661Z" fill="#FDE6C4" stroke="#F9C372" stroke-width="3.19825"/>
<mask id="mask13_1187_1484" style="mask-type:alpha" maskUnits="userSpaceOnUse" x="13" y="76" width="22" height="26">
<path d="M32.1517 83.7661C34.0938 89.1842 31.7939 95.6217 27.229 98.2276C22.6641 100.833 17.3145 98.7628 15.3723 93.3447C13.4302 87.9265 15.7301 81.4891 20.295 78.8832C24.8599 76.2773 30.2096 78.3479 32.1517 83.7661Z" fill="#FDE6C4" stroke="#F9C372" stroke-width="3.19825"/>
</mask>
<g mask="url(#mask13_1187_1484)">
<path d="M27.1928 92.5579L22.1002 91.2363L23.4438 90.5253C24.6879 89.7951 25.5808 88.4095 24.8017 86.788C24.4174 85.9962 23.3397 84.2981 21.3594 85.3459" stroke="#F9C372" stroke-width="1.531" stroke-linecap="round" stroke-linejoin="round"/>
<path d="M20.3863 88.8359L26.0905 85.8177" stroke="#F9C372" stroke-width="1.531" stroke-linecap="round" stroke-linejoin="round"/>
<path d="M19.3352 86.415L25.0859 83.3717" stroke="#F9C372" stroke-width="1.531" stroke-linecap="round" stroke-linejoin="round"/>
</g>
<mask id="mask14_1187_1484" style="mask-type:alpha" maskUnits="userSpaceOnUse" x="3" y="35" width="83" height="71">
<path d="M23.6012 35.4121C11.7231 42.8688 3.86884 55.792 3.86884 70.4856C3.86884 82.6149 9.22098 92.5074 17.7706 99.6753C22.8419 103.927 29.5842 105.297 36.2021 105.297H53.3012C59.919 105.297 66.6613 103.927 71.7327 99.6753C80.2823 92.5074 85.6344 82.6149 85.6344 70.4856C85.6344 55.792 77.7801 42.8688 65.902 35.4121H23.6012Z" fill="#EBEEFF"/>
</mask>
<g mask="url(#mask14_1187_1484)">
<g style="mix-blend-mode:hard-light" opacity="0.4">
<ellipse cx="26.7628" cy="51.2444" rx="31.2383" ry="30.8176" fill="#EBEEFF"/>
</g>
</g>
<mask id="mask15_1187_1484" style="mask-type:alpha" maskUnits="userSpaceOnUse" x="33" y="8" width="25" height="24">
<path fill-rule="evenodd" clip-rule="evenodd" d="M56.182 12.5818L53.7261 9.23774L52.8631 9.88159C52.1338 9.53253 51.3364 9.26434 50.4773 9.08978C44.3834 7.85149 37.4961 11.7943 35.0941 17.8964C34.3099 19.8887 34.1008 21.8649 34.3869 23.6661L33.5857 24.2639L36.0031 27.5996L36.0034 27.5993C37.3013 29.3784 39.2793 30.6793 41.7791 31.1873C47.873 32.4255 54.7603 28.4827 57.1623 22.3806C58.5967 18.7365 58.1071 15.1465 56.182 12.5818Z" fill="#9E513F"/>
</mask>
<g mask="url(#mask15_1187_1484)">
<path d="M57.1627 22.3825C54.7608 28.4846 47.8735 32.4274 41.7795 31.1892C38.9544 30.6151 35.2676 27.0647 34.004 24.9195C32.5419 22.4374 33.8061 21.1714 35.0946 17.8983C37.4965 11.7962 43.2391 5.29421 49.333 6.53251C55.427 7.7708 59.5647 16.2805 57.1627 22.3825Z" fill="#9E513F"/>
</g>
<path d="M53.1482 18.7253C51.04 24.081 45.0689 27.409 39.9178 26.3623C34.7668 25.3156 32.1061 20.2336 34.2143 14.8779C36.3224 9.52219 42.2936 6.19417 47.4446 7.24087C52.5957 8.28756 55.2564 13.3696 53.1482 18.7253Z" fill="#FDE6C4" stroke="#F9C372" stroke-width="3.19825"/>
<mask id="mask16_1187_1484" style="mask-type:alpha" maskUnits="userSpaceOnUse" x="31" y="5" width="25" height="24">
<path d="M53.1484 18.7263C51.0402 24.082 45.0691 27.41 39.918 26.3633C34.7669 25.3166 32.1063 20.2346 34.2144 14.8789C36.3226 9.52317 42.2937 6.19514 47.4448 7.24184C52.5959 8.28854 55.2566 13.3706 53.1484 18.7263Z" fill="#FDE6C4" stroke="#F9C372" stroke-width="3.19825"/>
</mask>
<g mask="url(#mask16_1187_1484)">
<path d="M43.8095 22.0517L40.9215 17.6539L42.3946 18.0287C43.807 18.3224 45.3989 17.8946 45.9096 16.1697C46.1563 15.3248 46.4971 13.3427 44.3258 12.7903" stroke="#F9C372" stroke-width="1.531" stroke-linecap="round" stroke-linejoin="round"/>
<path d="M41.2617 14.7246L47.5159 16.3158" stroke="#F9C372" stroke-width="1.531" stroke-linecap="round" stroke-linejoin="round"/>
<path d="M42.1073 12.2256L48.4128 13.8294" stroke="#F9C372" stroke-width="1.531" stroke-linecap="round" stroke-linejoin="round"/>
</g>
<g style="mix-blend-mode:hard-light" opacity="0.7">
<rect x="17.5947" y="19.8145" width="53.0774" height="12.7095" rx="4" fill="#CCD5FF"/>
</g>
<rect x="16.3595" y="30.0947" width="55.5342" height="2.432" rx="1.216" fill="#7A87C8"/>
</svg>
