<svg width="108" height="107" viewBox="0 0 108 107" fill="none" xmlns="http://www.w3.org/2000/svg">
<g clip-path="url(#clip0_679_2707)">
<path d="M9.95619 87.3546L34.3578 85.2415L37.3011 109.14H4.5979L5.17649 92.3607C5.27712 89.7444 7.33993 87.581 9.95619 87.3546Z" fill="#99AAFF"/>
<path d="M59.7484 9.79664H105.96C110.941 9.79664 115.017 13.8468 115.017 18.8529V111.176H50.7173V18.8277C50.7173 13.8468 54.7674 9.77148 59.7735 9.77148H59.7484V9.79664Z" fill="#3143A1"/>
<path d="M27.0503 34.1758C27.7295 34.1758 28.2075 33.5218 28.0314 32.8929C27.7547 31.8866 26.8239 31.0565 25.4655 30.6037C25.4655 30.5282 25.5158 30.4779 25.5158 30.4024C26.2956 27.1824 23.0505 24.5913 18.2205 24.5913C13.8684 24.5913 9.76795 26.7044 8.40951 29.4968C5.91904 29.8741 3.68013 31.0565 2.49779 32.591C1.99466 33.2451 2.49779 34.1758 3.32794 34.1758H27.0503Z" fill="white"/>
<path d="M32.2676 9.79664H78.4796C83.4606 9.79664 87.5359 13.8468 87.5359 18.8529V111.176H19.0857L22.3057 18.8277C22.4818 13.8468 27.2615 9.77148 32.2676 9.77148V9.79664Z" fill="#99AAFF"/>
<mask id="mask0_679_2707" style="mask-type:alpha" maskUnits="userSpaceOnUse" x="19" y="9" width="69" height="103">
<path d="M32.2676 9.79664H78.4796C83.4606 9.79664 87.5359 13.8468 87.5359 18.8529V111.176H19.0857L22.3057 18.8277C22.4818 13.8468 27.2615 9.77148 32.2676 9.77148V9.79664Z" fill="#88B4FE"/>
</mask>
<g mask="url(#mask0_679_2707)">
<ellipse cx="24.5819" cy="5.35077" rx="43.8902" ry="29.2601" transform="rotate(-42.2513 24.5819 5.35077)" fill="#AEBCFF"/>
</g>
<path d="M40.9545 85.249H74.8149C78.5632 85.249 81.6071 88.3181 81.6071 92.0412V111.185H34.1624V92.0412C34.1624 88.2929 37.2314 85.249 40.9545 85.249Z" fill="#5770EC"/>
<path d="M46.3596 93.345H69.9058C71.5662 93.345 72.8994 94.7034 72.8994 96.3386V111.181H43.366V96.3386C43.366 94.6782 44.7244 93.345 46.3596 93.345Z" fill="#CCD5FF"/>
<mask id="mask1_679_2707" style="mask-type:alpha" maskUnits="userSpaceOnUse" x="43" y="93" width="30" height="19">
<path d="M46.3596 93.345H69.9058C71.5662 93.345 72.8994 94.7034 72.8994 96.3386V111.181H43.366V96.3386C43.366 94.6782 44.7244 93.345 46.3596 93.345Z" fill="#AFCCFC"/>
</mask>
<g mask="url(#mask1_679_2707)">
<ellipse cx="35.6413" cy="85.9769" rx="29.9855" ry="19.9903" transform="rotate(-13.7557 35.6413 85.9769)" fill="#E5EAFF"/>
</g>
<path d="M57.5847 111.157V91.988" stroke="#5770EC" stroke-width="2.51563" stroke-miterlimit="10"/>
<path d="M80.5735 19.7634H59.0649C58.4952 19.7634 58.0334 20.2252 58.0334 20.7948V36.6181C58.0334 37.1878 58.4952 37.6495 59.0649 37.6495H80.5735C81.1431 37.6495 81.6049 37.1878 81.6049 36.6181V20.7948C81.6049 20.2252 81.1431 19.7634 80.5735 19.7634Z" fill="#CCD5FF"/>
<path d="M80.5735 41.2437H59.0649C58.4952 41.2437 58.0334 41.7054 58.0334 42.2751V58.0984C58.0334 58.668 58.4952 59.1298 59.0649 59.1298H80.5735C81.1431 59.1298 81.6049 58.668 81.6049 58.0984V42.2751C81.6049 41.7054 81.1431 41.2437 80.5735 41.2437Z" fill="#CCD5FF"/>
<path d="M80.5732 62.7317H59.0646C58.495 62.7317 58.0332 63.1935 58.0332 63.7631V79.5864C58.0332 80.156 58.495 80.6178 59.0646 80.6178H80.5732C81.1429 80.6178 81.6046 80.156 81.6046 79.5864V63.7631C81.6046 63.1935 81.1429 62.7317 80.5732 62.7317Z" fill="#CCD5FF"/>
<mask id="mask2_679_2707" style="mask-type:alpha" maskUnits="userSpaceOnUse" x="58" y="19" width="24" height="62">
<path d="M80.5735 19.7634H59.0649C58.4952 19.7634 58.0334 20.2252 58.0334 20.7948V36.6181C58.0334 37.1878 58.4952 37.6495 59.0649 37.6495H80.5735C81.1431 37.6495 81.6049 37.1878 81.6049 36.6181V20.7948C81.6049 20.2252 81.1431 19.7634 80.5735 19.7634Z" fill="#CAE0FF"/>
<path d="M80.5735 41.2437H59.0649C58.4952 41.2437 58.0334 41.7054 58.0334 42.2751V58.0984C58.0334 58.668 58.4952 59.1298 59.0649 59.1298H80.5735C81.1431 59.1298 81.6049 58.668 81.6049 58.0984V42.2751C81.6049 41.7054 81.1431 41.2437 80.5735 41.2437Z" fill="#CAE0FF"/>
<path d="M80.5732 62.7317H59.0646C58.495 62.7317 58.0332 63.1935 58.0332 63.7631V79.5864C58.0332 80.156 58.495 80.6178 59.0646 80.6178H80.5732C81.1429 80.6178 81.6046 80.156 81.6046 79.5864V63.7631C81.6046 63.1935 81.1429 62.7317 80.5732 62.7317Z" fill="#CAE0FF"/>
</mask>
<g mask="url(#mask2_679_2707)">
<ellipse cx="42.9698" cy="28.329" rx="43.8902" ry="29.2601" transform="rotate(-42.2513 42.9698 28.329)" fill="#F0F4FB"/>
</g>
<path d="M110.423 19.7629H92.8644C92.2948 19.7629 91.833 20.2247 91.833 20.7943V36.6176C91.833 37.1873 92.2948 37.6491 92.8644 37.6491H110.423C110.993 37.6491 111.455 37.1873 111.455 36.6176V20.7943C111.455 20.2247 110.993 19.7629 110.423 19.7629Z" fill="#5770EC"/>
<path d="M110.423 41.2434H92.8644C92.2948 41.2434 91.833 41.7052 91.833 42.2748V58.0981C91.833 58.6677 92.2948 59.1295 92.8644 59.1295H110.423C110.993 59.1295 111.455 58.6677 111.455 58.0981V42.2748C111.455 41.7052 110.993 41.2434 110.423 41.2434Z" fill="#5770EC"/>
<path d="M110.423 62.7314H92.8642C92.2945 62.7314 91.8328 63.1932 91.8328 63.7629V79.5862C91.8328 80.1558 92.2945 80.6176 92.8642 80.6176H110.423C110.993 80.6176 111.455 80.1558 111.455 79.5862V63.7629C111.455 63.1932 110.993 62.7314 110.423 62.7314Z" fill="#5770EC"/>
<mask id="mask3_679_2707" style="mask-type:alpha" maskUnits="userSpaceOnUse" x="91" y="19" width="21" height="62">
<path d="M110.423 19.7629H92.8644C92.2948 19.7629 91.833 20.2247 91.833 20.7943V36.6176C91.833 37.1873 92.2948 37.6491 92.8644 37.6491H110.423C110.993 37.6491 111.455 37.1873 111.455 36.6176V20.7943C111.455 20.2247 110.993 19.7629 110.423 19.7629Z" fill="#4F64CF"/>
<path d="M110.423 41.2434H92.8644C92.2948 41.2434 91.833 41.7052 91.833 42.2748V58.0981C91.833 58.6677 92.2948 59.1295 92.8644 59.1295H110.423C110.993 59.1295 111.455 58.6677 111.455 58.0981V42.2748C111.455 41.7052 110.993 41.2434 110.423 41.2434Z" fill="#4F64CF"/>
<path d="M110.423 62.7314H92.8642C92.2945 62.7314 91.8328 63.1932 91.8328 63.7629V79.5862C91.8328 80.1558 92.2945 80.6176 92.8642 80.6176H110.423C110.993 80.6176 111.455 80.1558 111.455 79.5862V63.7629C111.455 63.1932 110.993 62.7314 110.423 62.7314Z" fill="#4F64CF"/>
</mask>
<g mask="url(#mask3_679_2707)">
<ellipse cx="80.4318" cy="26.5855" rx="44.8177" ry="29.8784" transform="rotate(-22.6312 80.4318 26.5855)" fill="#8095FF"/>
</g>
<path d="M19.1675 109.142L19.8719 91.1299" stroke="#5770EC" stroke-width="2.51563" stroke-miterlimit="10" stroke-linecap="round"/>
<path d="M48.4531 67.9933L37.0268 71.0201C35.6269 71.3985 34.1892 71.3985 32.8271 71.0201L21.4008 67.9933C17.8065 67.0474 15.2715 63.7557 15.2715 60.0479V56.1886C15.2715 52.4429 17.7686 49.1891 21.4008 48.2432L32.8271 45.2164C34.227 44.838 35.6648 44.838 37.0268 45.2164L48.4531 48.2432C52.0475 49.1891 54.5825 52.4808 54.5825 56.1886V60.0479C54.5825 63.7936 52.0853 67.0474 48.4531 67.9933Z" fill="#26184E"/>
<path d="M44.6743 67.9933L33.248 71.0201C31.8481 71.3985 30.4104 71.3985 29.0483 71.0201L17.622 67.9933C14.0276 67.0474 11.4927 63.7557 11.4927 60.0479V56.1886C11.4927 52.4429 13.9898 49.1891 17.622 48.2432L29.0483 45.2164C30.4482 44.838 31.886 44.838 33.248 45.2164L44.6743 48.2432C48.2687 49.1891 50.8037 52.4808 50.8037 56.1886V60.0479C50.8037 63.7936 48.3065 67.0474 44.6743 67.9933Z" fill="#3F50AB"/>
<path d="M31.1245 67.4973C30.7462 67.4973 30.3678 67.4595 29.9895 67.346L18.5632 64.3191C16.6336 63.7894 15.2715 62.049 15.2715 60.0437V56.1845C15.2715 54.1793 16.6336 52.401 18.5632 51.9091L29.9895 48.8823C30.3678 48.7688 30.7462 48.731 31.1245 48.731C31.5029 48.731 31.8812 48.7688 32.2596 48.8823L43.6859 51.9091C45.6155 52.4388 46.9775 54.1793 46.9775 56.1845V60.0437C46.9775 62.049 45.6155 63.8273 43.6859 64.3191L32.2596 67.346C31.8812 67.4595 31.5029 67.4973 31.1245 67.4973Z" fill="#6AC8A9"/>
<path d="M26.238 55.0957C25.5191 55.0957 24.9137 55.7011 24.9137 56.4199V57.4037H22.795V56.4199C22.795 55.7011 22.1896 55.0957 21.4707 55.0957C20.7518 55.0957 20.1465 55.7011 20.1465 56.4199V59.8251C20.1465 60.544 20.7518 61.1494 21.4707 61.1494C22.1896 61.1494 22.795 60.544 22.795 59.8251V59.2576H24.9137V59.8251C24.9137 60.544 25.5191 61.1494 26.238 61.1494C26.9569 61.1494 27.5622 60.544 27.5622 59.8251V56.4199C27.5622 55.7011 26.9569 55.0957 26.238 55.0957Z" fill="white"/>
<path d="M33.8736 55.0957H29.8631C29.1442 55.0957 28.5388 55.7011 28.5388 56.4199C28.5388 57.1388 29.1442 57.7442 29.8631 57.7442H30.5441V59.8251C30.5441 60.544 31.1495 61.1494 31.8683 61.1494C32.5872 61.1494 33.1926 60.544 33.1926 59.8251V57.7442H33.8736C34.5925 57.7442 35.1978 57.1388 35.1978 56.4199C35.1978 55.7011 34.5925 55.0957 33.8736 55.0957Z" fill="white"/>
<path d="M40.7627 58.5009H39.2871V56.4199C39.2871 55.7011 38.6818 55.0957 37.9629 55.0957C37.244 55.0957 36.6387 55.7011 36.6387 56.4199V59.8251C36.6387 60.544 37.244 61.1494 37.9629 61.1494C38.0007 61.1494 38.0764 61.1494 38.1142 61.1494C38.1521 61.1494 38.2278 61.1494 38.2656 61.1494H40.7627C41.4816 61.1494 42.087 60.544 42.087 59.8251C42.087 59.1063 41.4816 58.5009 40.7627 58.5009Z" fill="white"/>
</g>
<defs>
<clipPath id="clip0_679_2707">
<rect width="110.32" height="110.32" fill="white" transform="translate(0 0.154541)"/>
</clipPath>
</defs>
</svg>
