<svg width="32" height="32" viewBox="0 0 32 32" fill="none" xmlns="http://www.w3.org/2000/svg">
<path fill-rule="evenodd" clip-rule="evenodd" d="M15.6662 1.7818C15.8875 1.74982 16.1122 1.74982 16.3336 1.7818C16.587 1.81842 16.8241 1.90777 17.0457 1.99126C17.0639 1.99813 17.082 2.00496 17.1001 2.01171L24.2491 4.69261C24.3004 4.71184 24.351 4.73077 24.401 4.74947C25.2496 5.06682 25.9152 5.31572 26.4242 5.76428C26.8709 6.15799 27.215 6.65457 27.4268 7.2111C27.6681 7.84518 27.6674 8.55577 27.6666 9.46175C27.6666 9.51513 27.6665 9.56919 27.6665 9.62395V16.0005C27.6665 19.6452 25.6831 22.7083 23.494 24.9889C21.2937 27.281 18.7712 28.9042 17.4344 29.6841C17.4178 29.6938 17.401 29.7036 17.3841 29.7135C17.1339 29.8601 16.8575 30.0221 16.4891 30.1011C16.1893 30.1654 15.8105 30.1654 15.5106 30.1011C15.1423 30.0221 14.8658 29.8601 14.6156 29.7135C14.5987 29.7036 14.582 29.6938 14.5653 29.6841C13.2285 28.9042 10.706 27.281 8.50575 24.9889C6.31665 22.7083 4.3332 19.6452 4.3332 16.0005V9.62395C4.3332 9.56919 4.33315 9.51513 4.3331 9.46176C4.33228 8.55578 4.33164 7.84518 4.57293 7.2111C4.7847 6.65457 5.12883 6.15799 5.57557 5.76428C6.08456 5.31572 6.75013 5.06682 7.59872 4.74947C7.64871 4.73078 7.69934 4.71184 7.75061 4.69261L14.8997 2.01171C14.9177 2.00496 14.9358 1.99813 14.9541 1.99126C15.1756 1.90777 15.4127 1.81842 15.6662 1.7818ZM16.0475 3.76124C16.0159 3.75667 15.9838 3.75667 15.9522 3.76124C15.9479 3.76209 15.9312 3.7659 15.892 3.77876C15.8294 3.7993 15.748 3.8296 15.6019 3.88437L8.45286 6.56527C7.37809 6.96831 7.0945 7.0915 6.89791 7.26475C6.69485 7.44371 6.53843 7.66943 6.44217 7.9224C6.34897 8.16731 6.3332 8.47609 6.3332 9.62395V16.0005C6.3332 18.9004 7.91905 21.4895 9.94861 23.6039C11.967 25.7067 14.3125 27.2211 15.5731 27.9566C15.7319 28.0492 15.8065 28.092 15.8653 28.1206C15.9033 28.1392 15.9165 28.1426 15.9277 28.1451C15.9293 28.1453 15.9347 28.1461 15.9442 28.147C15.9593 28.1483 15.9785 28.1493 15.9999 28.1493C16.0212 28.1493 16.0404 28.1483 16.0555 28.147C16.0653 28.1461 16.0708 28.1452 16.0721 28.145C16.0833 28.1426 16.0965 28.1391 16.1344 28.1206C16.1932 28.092 16.2678 28.0492 16.4266 27.9566C17.6872 27.2211 20.0327 25.7067 22.0511 23.6039C24.0807 21.4895 25.6665 18.9004 25.6665 16.0005V9.62395C25.6665 8.47609 25.6508 8.16731 25.5576 7.9224C25.4613 7.66943 25.3049 7.44371 25.1018 7.26475C24.9052 7.0915 24.6216 6.96831 23.5469 6.56527L16.3978 3.88437C16.2517 3.8296 16.1704 3.7993 16.1077 3.77876C16.0685 3.7659 16.0518 3.76209 16.0475 3.76124ZM16.0464 3.76103C16.0463 3.76101 16.0467 3.76107 16.0475 3.76124L16.0464 3.76103ZM21.3736 11.2934C21.7642 11.6839 21.7642 12.3171 21.3736 12.7076L15.3736 18.7076C15.1861 18.8951 14.9317 19.0005 14.6665 19.0005C14.4013 19.0005 14.147 18.8951 13.9594 18.7076L11.2928 16.0409C10.9022 15.6504 10.9022 15.0172 11.2928 14.6267C11.6833 14.2362 12.3164 14.2362 12.707 14.6267L14.6665 16.5863L19.9594 11.2934C20.3499 10.9028 20.9831 10.9028 21.3736 11.2934Z" fill="#1F1F1F"/>
</svg>
