<svg width="32" height="32" viewBox="0 0 32 32" fill="none" xmlns="http://www.w3.org/2000/svg">
<path fill-rule="evenodd" clip-rule="evenodd" d="M3.66675 9.15195V11.9977C3.67038 12.0159 3.69715 12.0998 3.85777 12.2467C4.06903 12.44 4.43107 12.6619 4.96649 12.8738C6.03059 13.295 7.57711 13.5977 9.36616 13.6563C9.5748 13.6632 9.78625 13.6667 10.0001 13.6667C10.5524 13.6667 11.0001 14.1144 11.0001 14.6667C11.0001 15.219 10.5524 15.6667 10.0001 15.6667C9.76446 15.6667 9.53117 15.6628 9.30066 15.6553C7.35206 15.5914 5.56524 15.2618 4.23043 14.7334C4.03667 14.6567 3.84804 14.5741 3.66675 14.4853V17.3305C3.67043 17.3492 3.70023 17.4456 3.89496 17.613C4.14139 17.8249 4.55649 18.061 5.15637 18.2792C6.34792 18.7124 8.06029 19 10.0001 19C10.5524 19 11.0001 19.4477 11.0001 20C11.0001 20.5523 10.5524 21 10.0001 21C7.88979 21 5.93549 20.6906 4.47289 20.1587C4.19217 20.0567 3.92164 19.9436 3.66675 19.8186V22.6638C3.67043 22.6825 3.70023 22.779 3.89496 22.9464C4.14139 23.1582 4.55649 23.3944 5.15637 23.6125C6.34792 24.0458 8.06029 24.3333 10.0001 24.3333C10.5524 24.3333 11.0001 24.781 11.0001 25.3333C11.0001 25.8856 10.5524 26.3333 10.0001 26.3333C7.88979 26.3333 5.93549 26.0239 4.47289 25.4921C3.7457 25.2276 3.08686 24.8891 2.59111 24.4629C2.09862 24.0395 1.66675 23.436 1.66675 22.6667V6.66667C1.66675 5.89737 2.09862 5.29381 2.59111 4.87039C3.08686 4.44419 3.7457 4.10569 4.47289 3.84126C5.93549 3.3094 7.88979 3 10.0001 3C12.1104 3 14.0647 3.3094 15.5273 3.84126C16.2545 4.10569 16.9133 4.44419 17.409 4.87039C17.9015 5.29381 18.3334 5.89737 18.3334 6.66667V8.66667C18.3334 9.21895 17.8857 9.66667 17.3334 9.66667C16.9372 9.66667 16.5948 9.43626 16.433 9.10214C16.1494 9.247 15.8448 9.3766 15.5273 9.49208C14.0647 10.0239 12.1104 10.3333 10.0001 10.3333C7.88979 10.3333 5.93549 10.0239 4.47289 9.49208C4.19217 9.39 3.92164 9.27688 3.66675 9.15195ZM16.3335 6.66337C16.3336 6.6614 16.3338 6.66043 16.3339 6.66043L16.3335 6.66337ZM16.3328 6.66667C16.3268 6.691 16.2915 6.7862 16.1052 6.94637C15.8588 7.15824 15.4437 7.39435 14.8438 7.61249C13.6522 8.04578 11.9399 8.33333 10.0001 8.33333C8.06029 8.33333 6.34792 8.04578 5.15637 7.61249C4.55649 7.39435 4.14139 7.15824 3.89496 6.94637C3.70865 6.7862 3.67332 6.691 3.66738 6.66667C3.67332 6.64233 3.70865 6.54714 3.89496 6.38697C4.14139 6.1751 4.55649 5.93898 5.15637 5.72084C6.34792 5.28755 8.06029 5 10.0001 5C11.9399 5 13.6522 5.28755 14.8438 5.72084C15.4437 5.93898 15.8588 6.1751 16.1052 6.38697C16.2915 6.54714 16.3268 6.64233 16.3328 6.66667ZM3.66631 6.66043C3.66637 6.66043 3.66656 6.6614 3.66667 6.66337L3.66631 6.66043ZM3.66631 22.6604C3.66637 22.6604 3.66664 22.6618 3.66675 22.6638L3.66631 22.6604Z" fill="#1F1F1F"/>
<path fill-rule="evenodd" clip-rule="evenodd" d="M15.3605 17.4249V19.9368C15.3642 19.9555 15.394 20.0519 15.5887 20.2193C15.8351 20.4312 16.2502 20.6673 16.8501 20.8854C18.0416 21.3187 19.754 21.6063 21.6938 21.6063C23.6336 21.6063 25.346 21.3187 26.5375 20.8854C27.1374 20.6673 27.5525 20.4312 27.7989 20.2193C27.9937 20.0519 28.0235 19.9555 28.0271 19.9368V17.4249C27.7722 17.5498 27.5017 17.6629 27.221 17.765C25.7584 18.2969 23.8041 18.6063 21.6938 18.6063C19.5835 18.6063 17.6292 18.2969 16.1666 17.765C15.8859 17.6629 15.6154 17.5498 15.3605 17.4249ZM30.0271 14.9396V24.9396C30.0271 25.7089 29.5953 26.3125 29.1028 26.7359C28.607 27.1621 27.9482 27.5006 27.221 27.765C25.7584 28.2969 23.8041 28.6063 21.6938 28.6063C19.5835 28.6063 17.6292 28.2969 16.1666 27.765C15.4394 27.5006 14.7806 27.1621 14.2848 26.7359C13.7923 26.3125 13.3605 25.7089 13.3605 24.9396V14.9396C13.3605 14.1703 13.7923 13.5668 14.2848 13.1433C14.7806 12.7171 15.4394 12.3786 16.1666 12.1142C17.6292 11.5823 19.5835 11.2729 21.6938 11.2729C23.8041 11.2729 25.7584 11.5823 27.221 12.1142C27.9482 12.3786 28.607 12.7171 29.1028 13.1433C29.5953 13.5668 30.0271 14.1703 30.0271 14.9396ZM15.3611 14.9396C15.367 14.9639 15.4024 15.0591 15.5887 15.2193C15.8351 15.4312 16.2502 15.6673 16.8501 15.8854C18.0416 16.3187 19.754 16.6063 21.6938 16.6063C23.6336 16.6063 25.346 16.3187 26.5375 15.8854C27.1374 15.6673 27.5525 15.4312 27.7989 15.2193C27.9852 15.0591 28.0206 14.9639 28.0265 14.9396C28.0206 14.9153 27.9852 14.8201 27.7989 14.6599C27.5525 14.448 27.1374 14.2119 26.5375 13.9938C25.346 13.5605 23.6336 13.2729 21.6938 13.2729C19.754 13.2729 18.0416 13.5605 16.8501 13.9938C16.2502 14.2119 15.8351 14.448 15.5887 14.6599C15.4024 14.8201 15.367 14.9153 15.3611 14.9396ZM28.0276 14.9334C28.0276 14.9334 28.0276 14.9344 28.0272 14.9363L28.0276 14.9334ZM15.3605 19.9368C15.3604 19.9366 15.3605 19.9369 15.3605 19.9368V19.9368ZM15.36 19.9334C15.3601 19.9334 15.3604 19.9348 15.3605 19.9368L15.36 19.9334ZM15.3605 19.9396V22.4249C15.6154 22.5498 15.8859 22.6629 16.1666 22.765C17.6292 23.2969 19.5835 23.6063 21.6938 23.6063C23.8041 23.6063 25.7584 23.2969 27.221 22.765C27.5017 22.6629 27.7722 22.5498 28.0271 22.4249V24.9368C28.0235 24.9555 27.9937 25.0519 27.7989 25.2193C27.5525 25.4312 27.1374 25.6673 26.5375 25.8854C25.346 26.3187 23.6336 26.6063 21.6938 26.6063C19.754 26.6063 18.0416 26.3187 16.8501 25.8854C16.2502 25.6673 15.8351 25.4312 15.5887 25.2193C15.394 25.0519 15.3642 24.9555 15.3605 24.9368V22.4249M15.36 24.9334C15.3601 24.9334 15.3604 24.9348 15.3605 24.9368L15.36 24.9334ZM28.0276 24.9334C28.0276 24.9334 28.0275 24.9348 28.0271 24.9368L28.0276 24.9334ZM28.0271 19.9368C28.0271 19.9369 28.0272 19.9366 28.0271 19.9368V19.9368ZM15.36 14.9334C15.3601 14.9334 15.3603 14.9344 15.3604 14.9363L15.36 14.9334Z" fill="#1F1F1F"/>
</svg>
