<svg width="32" height="32" viewBox="0 0 32 32" fill="none" xmlns="http://www.w3.org/2000/svg">
<mask id="mask0_609_14046" style="mask-type:alpha" maskUnits="userSpaceOnUse" x="0" y="0" width="32" height="33">
<rect y="0.00195312" width="32" height="32" fill="#D9D9D9"/>
</mask>
<g mask="url(#mask0_609_14046)">
<path fill-rule="evenodd" clip-rule="evenodd" d="M16.4994 13.8019C16.978 14.0773 17.1428 14.6887 16.8673 15.1674L15.428 17.6686H16.9806C17.5627 17.6686 18.2285 17.8843 18.5891 18.5051C18.9496 19.1259 18.8069 19.8106 18.5188 20.3148L18.5173 20.3174L18.5173 20.3174L16.8773 23.1674C16.6019 23.6461 15.9905 23.8108 15.5118 23.5354C15.0332 23.2599 14.8684 22.6486 15.1439 22.1699L16.5832 19.6686H15.0306C14.4486 19.6686 13.7769 19.4559 13.4161 18.8282C13.0574 18.2041 13.208 17.5202 13.4924 17.0225L13.4939 17.0199L13.4939 17.0199L15.1339 14.1699C15.4093 13.6912 16.0207 13.5264 16.4994 13.8019Z" fill="#1F1F1F"/>
<path fill-rule="evenodd" clip-rule="evenodd" d="M13.6667 8.00195C13.6667 7.44967 14.1145 7.00195 14.6667 7.00195H17.3334C17.8857 7.00195 18.3334 7.44967 18.3334 8.00195C18.3334 8.55424 17.8857 9.00195 17.3334 9.00195H14.6667C14.1145 9.00195 13.6667 8.55424 13.6667 8.00195Z" fill="#1F1F1F"/>
<path fill-rule="evenodd" clip-rule="evenodd" d="M23.3334 20.0018V12.0018C23.3334 9.91865 23.3302 8.53045 23.2077 7.48448C23.0903 6.48186 22.887 6.05483 22.6649 5.7805C22.5329 5.61758 22.3843 5.46894 22.2214 5.33702C21.947 5.11487 21.52 4.91158 20.5174 4.79417C19.4714 4.67167 18.0832 4.66846 16.0001 4.66846C13.9169 4.66846 12.5287 4.67167 11.4828 4.79417C10.4802 4.91158 10.0531 5.11487 9.77879 5.33702C9.61587 5.46894 9.46724 5.61758 9.33531 5.7805C9.11316 6.05483 8.90987 6.48186 8.79246 7.48448C8.66996 8.53045 8.66675 9.91865 8.66675 12.0018V20.0018C8.66675 22.0849 8.66996 23.4731 8.79246 24.5191C8.90987 25.5217 9.11316 25.9488 9.33531 26.2231C9.46724 26.386 9.61587 26.5346 9.77879 26.6666C10.0531 26.8887 10.4802 27.092 11.4828 27.2094C12.5287 27.3319 13.9169 27.3351 16.0001 27.3351C18.0832 27.3351 19.4714 27.3319 20.5174 27.2094C21.52 27.092 21.947 26.8887 22.2214 26.6666C22.3843 26.5346 22.5329 26.386 22.6649 26.2231C22.887 25.9488 23.0903 25.5217 23.2077 24.5191C23.3302 23.4731 23.3334 22.0849 23.3334 20.0018ZM7.78102 4.52186C6.66675 5.89786 6.66675 7.9325 6.66675 12.0018V20.0018C6.66675 24.0711 6.66675 26.1057 7.78102 27.4817C8.00089 27.7532 8.24862 28.001 8.52015 28.2209C9.89616 29.3351 11.9308 29.3351 16.0001 29.3351C20.0694 29.3351 22.104 29.3351 23.48 28.2209C23.7515 28.001 23.9993 27.7532 24.2191 27.4817C25.3334 26.1057 25.3334 24.0711 25.3334 20.0018V12.0018C25.3334 7.93251 25.3334 5.89786 24.2191 4.52186C23.9993 4.25033 23.7515 4.0026 23.48 3.78273C22.104 2.66846 20.0694 2.66846 16.0001 2.66846C11.9308 2.66846 9.89616 2.66846 8.52015 3.78273C8.24862 4.0026 8.00089 4.25033 7.78102 4.52186Z" fill="#1F1F1F"/>
</g>
</svg>
