<svg width="32" height="32" viewBox="0 0 32 32" fill="none" xmlns="http://www.w3.org/2000/svg">
<mask id="mask0_609_13158" style="mask-type:alpha" maskUnits="userSpaceOnUse" x="0" y="0" width="32" height="32">
<rect width="32" height="32" fill="#D9D9D9"/>
</mask>
<g mask="url(#mask0_609_13158)">
<path fill-rule="evenodd" clip-rule="evenodd" d="M18.0069 4.48496C16.8659 3.45814 15.134 3.45814 13.9931 4.48496L6.33337 11.3787V18C6.33337 20.3853 6.3355 22.0737 6.50752 23.3531C6.67567 24.6038 6.98948 25.313 7.50495 25.8284C8.02041 26.3439 8.72958 26.6577 9.98026 26.8259C11.2597 26.9979 12.9481 27 15.3334 27H16.6667C19.052 27 20.7404 26.9979 22.0198 26.8259C23.2705 26.6577 23.9797 26.3439 24.4951 25.8284C25.0106 25.313 25.3244 24.6038 25.4926 23.3531C25.6646 22.0737 25.6667 20.3853 25.6667 18V11.3788L18.0069 4.48496ZM3.3356 14.0767L4.33337 13.1787L4.33337 18.0748C4.33335 20.3684 4.33333 22.1914 4.52535 23.6196C4.72332 25.0921 5.14173 26.2936 6.09073 27.2426C7.03974 28.1916 8.24131 28.6101 9.71377 28.808C11.142 29 12.965 29 15.2585 29H16.7415C19.0351 29 20.8581 29 22.2863 28.808C23.7588 28.6101 24.9603 28.1916 25.9093 27.2426C26.8584 26.2936 27.2768 25.0921 27.4747 23.6196C27.6667 22.1914 27.6667 20.3683 27.6667 18.0748V13.1788L28.6643 14.0767C29.0748 14.4461 29.7071 14.4129 30.0766 14.0024C30.4461 13.5918 30.4128 12.9596 30.0023 12.5901L19.3448 2.99837C17.4433 1.287 14.5567 1.287 12.6551 2.99837L1.99767 12.5901C1.58716 12.9596 1.55388 13.5918 1.92334 14.0024C2.2928 14.4129 2.92509 14.4461 3.3356 14.0767ZM19.4987 13.8883C19.8051 13.4288 19.6809 12.8079 19.2214 12.5016C18.7619 12.1952 18.141 12.3194 17.8346 12.7789L12.5013 20.7789C12.195 21.2384 12.3191 21.8593 12.7787 22.1657C13.2382 22.472 13.8591 22.3478 14.1654 21.8883L19.4987 13.8883ZM20 19.667C19.8159 19.667 19.6666 19.8162 19.6666 20.0003C19.6666 20.1844 19.8159 20.3337 20 20.3337C20.1841 20.3337 20.3333 20.1844 20.3333 20.0003C20.3333 19.8162 20.1841 19.667 20 19.667ZM17.6666 20.0003C17.6666 18.7117 18.7113 17.667 20 17.667C21.2886 17.667 22.3333 18.7117 22.3333 20.0003C22.3333 21.289 21.2886 22.3337 20 22.3337C18.7113 22.3337 17.6666 21.289 17.6666 20.0003ZM11.6666 14.6668C11.6666 14.4827 11.8159 14.3335 12 14.3335C12.1841 14.3335 12.3333 14.4827 12.3333 14.6668C12.3333 14.8509 12.1841 15.0002 12 15.0002C11.8159 15.0002 11.6666 14.8509 11.6666 14.6668ZM12 12.3335C10.7113 12.3335 9.66663 13.3782 9.66663 14.6668C9.66663 15.9555 10.7113 17.0002 12 17.0002C13.2886 17.0002 14.3333 15.9555 14.3333 14.6668C14.3333 13.3782 13.2886 12.3335 12 12.3335Z" fill="#1F1F1F"/>
</g>
</svg>
