<svg width="96" height="79" viewBox="0 0 96 79" fill="none" xmlns="http://www.w3.org/2000/svg">
<mask id="mask0_1191_1667" style="mask-type:alpha" maskUnits="userSpaceOnUse" x="49" y="44" width="43" height="12">
<rect width="41.1977" height="11.324" rx="2.42041" transform="matrix(-1 0 0 1 91.1748 44.1914)" fill="#D9D9D9"/>
</mask>
<g mask="url(#mask0_1191_1667)">
<rect width="41.1977" height="11.324" rx="2.42041" transform="matrix(-1 0 0 1 91.1748 44.1914)" fill="#D1674F"/>
<path d="M92.1356 53.0679C92.1356 54.4046 91.052 55.4883 89.7152 55.4883H61.1247H62.6681C64.0049 55.4883 65.0885 54.4046 65.0885 53.0679V46.6143C65.0885 45.2775 64.0049 44.1938 62.6681 44.1938H61.1247H89.7152C91.052 44.1938 92.1356 45.2775 92.1356 46.6143V53.0679Z" fill="#F7993B"/>
<path d="M61.7791 53.0942C61.7791 54.4309 62.8627 55.5146 64.1995 55.5146L104.19 55.5146V54.2376H73.5933C72.7022 54.2376 71.9797 53.5152 71.9797 52.624V47.2566C71.9797 46.3654 72.7022 45.643 73.5933 45.643H75.9436L64.4486 44.4535C63.0209 44.3058 61.7791 45.4258 61.7791 46.8611V53.0942Z" fill="#D1674F"/>
<path d="M90.395 54.2549H77.4776H79.8278C80.719 54.2549 81.4414 53.5324 81.4414 52.6413V47.2898C81.4414 46.3987 80.719 45.6762 79.8278 45.6762H77.4776H90.3948H88.3009C87.4097 45.6762 86.6873 46.3987 86.6873 47.2898V52.6413C86.6873 53.5324 87.4097 54.2549 88.3009 54.2549H90.395Z" fill="#FFD79B"/>
<path d="M51.7473 53.1049C51.7473 54.4417 52.831 55.5253 54.1677 55.5253L94.1578 55.5254V54.2483H63.5616C62.6704 54.2483 61.948 53.5259 61.948 52.6347V47.0813C61.948 46.1902 62.6704 45.4677 63.5616 45.4677H65.9119H51.7473V53.1049Z" fill="#703307"/>
<path d="M92.8021 45.667H47.2989V43.9084H90.9752L92.8021 45.667Z" fill="#FFD79B"/>
</g>
<mask id="mask1_1191_1667" style="mask-type:alpha" maskUnits="userSpaceOnUse" x="48" y="34" width="42" height="12">
<rect width="41.1977" height="11.324" rx="2.42041" transform="matrix(-1 0 0 1 89.5615 34.1191)" fill="#D9D9D9"/>
</mask>
<g mask="url(#mask1_1191_1667)">
<rect width="41.1977" height="11.324" rx="2.42041" transform="matrix(-1 0 0 1 89.5615 34.1191)" fill="#D1674F"/>
<path d="M90.5236 42.9966C90.5236 44.3333 89.4399 45.417 88.1031 45.417H59.5126H61.0561C62.3928 45.417 63.4765 44.3333 63.4765 42.9966V36.543C63.4765 35.2062 62.3928 34.1226 61.0561 34.1226H59.5126H88.1031C89.4399 34.1226 90.5236 35.2062 90.5236 36.543V42.9966Z" fill="#F7993B"/>
<path d="M55.0533 43.0375C55.0533 44.3743 56.137 45.458 57.4738 45.458L97.4639 45.458V44.181H66.8676C65.9765 44.181 65.254 43.4585 65.254 42.5673V37.1999C65.254 36.3088 65.9765 35.5863 66.8676 35.5863H69.2179L57.7229 34.3969C56.2952 34.2491 55.0533 35.3691 55.0533 36.8044V43.0375Z" fill="#D1674F"/>
<path d="M71.7941 44.3418H58.8766H61.2269C62.1181 44.3418 62.8405 43.6194 62.8405 42.7282V37.3767C62.8405 36.4856 62.1181 35.7631 61.2269 35.7631H58.8766H71.7938H69.7C68.8088 35.7631 68.0863 36.4856 68.0863 37.3767V42.7282C68.0863 43.6194 68.8088 44.3418 69.7 44.3418H71.7941Z" fill="#FFD79B"/>
<path d="M47.6212 43.0375C47.6212 44.3743 48.7049 45.458 50.0416 45.458L90.0317 45.458V44.181H59.4355C58.5443 44.181 57.8219 43.4585 57.8219 42.5673V37.014C57.8219 36.1228 58.5443 35.4003 59.4355 35.4003H61.7858H47.6212V43.0375Z" fill="#703307"/>
<path d="M91.189 35.5957H45.6858V33.8371H89.3621L91.189 35.5957Z" fill="#FFD79B"/>
</g>
<mask id="mask2_1191_1667" style="mask-type:alpha" maskUnits="userSpaceOnUse" x="54" y="55" width="42" height="12">
<rect width="41.1977" height="11.324" rx="2.42041" transform="matrix(-1 0 0 1 95.9899 55.5156)" fill="#D9D9D9"/>
</mask>
<g mask="url(#mask2_1191_1667)">
<rect width="41.1977" height="11.324" rx="2.42041" transform="matrix(-1 0 0 1 95.9899 55.5156)" fill="#D1674F"/>
<path d="M96.9517 64.3921C96.9517 65.7288 95.868 66.8125 94.5312 66.8125H65.9407H67.4842C68.8209 66.8125 69.9046 65.7288 69.9046 64.3921V57.9385C69.9046 56.6017 68.8209 55.5181 67.4842 55.5181H65.9407H94.5312C95.868 55.5181 96.9517 56.6017 96.9517 57.9385V64.3921Z" fill="#F7993B"/>
<path d="M60.5717 64.4184C60.5717 65.7552 61.6553 66.8388 62.9921 66.8388L102.982 66.8389V65.5618H72.3859C71.4948 65.5618 70.7723 64.8394 70.7723 63.9482V58.5808C70.7723 57.6896 71.4948 56.9672 72.3859 56.9672H74.7362L63.2412 55.7777C61.8135 55.63 60.5717 56.75 60.5717 58.1853V64.4184Z" fill="#D1674F"/>
<path d="M86.1571 65.4678H73.2397H75.5899C76.4811 65.4678 77.2035 64.7453 77.2035 63.8542V58.5027C77.2035 57.6115 76.4811 56.8891 75.5899 56.8891H73.2397H86.1568H84.063C83.1718 56.8891 82.4494 57.6115 82.4494 58.5027V63.8542C82.4494 64.7453 83.1718 65.4678 84.063 65.4678H86.1571Z" fill="#FFD79B"/>
<path d="M54.0494 64.434C54.0494 65.7708 55.1331 66.8544 56.4698 66.8544L96.4599 66.8545V65.5774H65.8637C64.9726 65.5774 64.2501 64.855 64.2501 63.9638V58.4104C64.2501 57.5193 64.9726 56.7968 65.8637 56.7968H68.214H54.0494V64.434Z" fill="#703307"/>
<path d="M97.6171 56.9912H52.1139V55.2326H95.7902L97.6171 56.9912Z" fill="#FFD79B"/>
</g>
<mask id="mask3_1191_1667" style="mask-type:alpha" maskUnits="userSpaceOnUse" x="52" y="23" width="42" height="13">
<rect width="41.1977" height="11.324" rx="2.42041" transform="matrix(-1 0 0 1 93.9425 23.8477)" fill="#D9D9D9"/>
</mask>
<g mask="url(#mask3_1191_1667)">
<rect width="41.1977" height="11.324" rx="2.42041" transform="matrix(-1 0 0 1 93.9425 23.8477)" fill="#D1674F"/>
<path d="M94.9048 32.7241C94.9048 34.0609 93.8211 35.1445 92.4844 35.1445H63.8938H65.4373C66.774 35.1445 67.8577 34.0609 67.8577 32.7241V26.2705C67.8577 24.9338 66.774 23.8501 65.4373 23.8501H63.8938H92.4844C93.8211 23.8501 94.9048 24.9338 94.9048 26.2705V32.7241Z" fill="#F7993B"/>
<path d="M58.5247 32.7504C58.5247 34.0872 59.6083 35.1708 60.9451 35.1709L100.935 35.1709V33.8938H70.3389C69.4478 33.8938 68.7253 33.1714 68.7253 32.2802V26.9128C68.7253 26.0217 69.4478 25.2992 70.3389 25.2992H72.6892L61.1942 24.1098C59.7665 23.962 58.5247 25.082 58.5247 26.5173V32.7504Z" fill="#D1674F"/>
<path d="M84.1101 33.7988H71.1927H73.5429C74.4341 33.7988 75.1565 33.0764 75.1565 32.1852V26.8338C75.1565 25.9426 74.4341 25.2202 73.5429 25.2202H71.1927H84.1098H82.016C81.1248 25.2202 80.4024 25.9426 80.4024 26.8338V32.1852C80.4024 33.0764 81.1248 33.7988 82.016 33.7988H84.1101Z" fill="#FFD79B"/>
<path d="M52.0022 32.7641C52.0022 34.1009 53.0859 35.1845 54.4226 35.1845L94.4127 35.1846V33.9075H63.8165C62.9253 33.9075 62.2029 33.1851 62.2029 32.2939V26.7405C62.2029 25.8493 62.9253 25.1269 63.8165 25.1269H66.1667H52.0022V32.7641Z" fill="#703307"/>
<path d="M95.5702 25.3232H50.067V23.5646H93.7433L95.5702 25.3232Z" fill="#FFD79B"/>
</g>
<mask id="mask4_1191_1667" style="mask-type:alpha" maskUnits="userSpaceOnUse" x="46" y="66" width="42" height="13">
<rect width="41.1977" height="11.324" rx="2.42041" transform="matrix(-1 0 0 1 87.5143 66.8408)" fill="#D9D9D9"/>
</mask>
<g mask="url(#mask4_1191_1667)">
<rect width="41.1977" height="11.324" rx="2.42041" transform="matrix(-1 0 0 1 87.5143 66.8408)" fill="#D1674F"/>
<path d="M88.4766 75.7173C88.4766 77.054 87.3929 78.1377 86.0561 78.1377H57.4656H59.0091C60.3458 78.1377 61.4295 77.054 61.4295 75.7173V69.2637C61.4295 67.9269 60.3458 66.8433 59.0091 66.8433H57.4656H86.0561C87.3929 66.8433 88.4766 67.9269 88.4766 69.2637V75.7173Z" fill="#F7993B"/>
<path d="M53.0063 75.7573C53.0063 77.094 54.09 78.1777 55.4268 78.1777L95.4169 78.1777V76.9007H64.8206C63.9295 76.9007 63.207 76.1782 63.207 75.2871V69.9197C63.207 69.0285 63.9295 68.3061 64.8206 68.3061H67.1709L55.6759 67.1166C54.2482 66.9689 53.0063 68.0889 53.0063 69.5242V75.7573Z" fill="#D1674F"/>
<path d="M76.7321 76.792H63.8146H66.1649C67.056 76.792 67.7785 76.0696 67.7785 75.1784V69.8269C67.7785 68.9358 67.056 68.2133 66.1649 68.2133H63.8146H76.7318H74.6379C73.7468 68.2133 73.0243 68.9358 73.0243 69.8269V75.1784C73.0243 76.0696 73.7468 76.792 74.6379 76.792H76.7321Z" fill="#FFD79B"/>
<path d="M45.574 75.7573C45.574 77.094 46.6576 78.1777 47.9944 78.1777L87.9845 78.1777V76.9007H57.3883C56.4971 76.9007 55.7747 76.1782 55.7747 75.2871V69.7337C55.7747 68.8425 56.4971 68.1201 57.3883 68.1201H59.7385H45.574V75.7573Z" fill="#703307"/>
<path d="M89.142 68.3164H43.6388V66.5578H87.3151L89.142 68.3164Z" fill="#FFD79B"/>
</g>
<path d="M24.3644 67.8379C30.8947 69.9598 36.844 70.8252 42.52 67.0497C51.6089 61.0649 55.5919 48.1808 51.4367 38.2167C49.0466 32.5219 41.9279 28.8386 36.2758 26.8303L21.3562 66.7341L24.3644 67.8379Z" fill="#7E3E30"/>
<mask id="mask5_1191_1667" style="mask-type:alpha" maskUnits="userSpaceOnUse" x="21" y="26" width="33" height="44">
<path d="M24.3779 67.8428C30.9082 69.9647 36.8575 70.8301 42.5335 67.0546C51.6225 61.0698 55.6055 48.1857 51.4503 38.2216C49.0601 32.5268 41.9414 28.8434 36.2894 26.8352L21.3698 66.739L24.3779 67.8428Z" fill="#7E3E30"/>
</mask>
<g mask="url(#mask5_1191_1667)">
<ellipse cx="19.5499" cy="18.4759" rx="19.5499" ry="18.4759" transform="matrix(-0.305777 -0.952103 -0.952103 0.305777 68.9626 50.6943)" fill="#D1674F"/>
</g>
<path d="M35.8031 64.5467C26.7142 70.5316 15.9395 67.2976 11.8137 57.3078C7.68786 47.318 11.7002 34.4082 20.8149 28.4527C29.9002 22.523 40.6198 25.7533 44.775 35.7174C48.9302 45.6814 44.9472 58.5655 35.8583 64.5504L35.8031 64.5467Z" fill="#FFC165"/>
<path d="M33.1346 60.2004C29.8944 62.3106 26.3376 62.9326 23.1368 61.9452C19.9911 60.9613 17.4954 58.5259 16.0613 55.109C14.5352 51.4092 14.4126 46.9999 15.7452 42.7701C17.0521 38.5109 19.6709 34.9201 23.0839 32.7107C26.3242 30.6005 29.8809 29.9785 33.1075 30.9953C36.2531 31.9792 38.7231 34.3852 40.183 37.8315C41.709 41.5313 41.8353 45.8855 40.5284 50.1447C39.2216 54.4039 36.6027 57.9947 33.2155 60.2335L33.1346 60.2004Z" fill="#FFE0B2"/>
<path d="M27.179 53.5462L23.5156 46.3736L25.6951 47.189C27.7955 47.8708 30.2891 47.4846 31.3532 44.9446C31.8691 43.6999 32.7174 40.7403 29.5051 39.5386" stroke="#F7993B" stroke-width="1.90812" stroke-linecap="round" stroke-linejoin="round"/>
<path d="M24.5176 41.9814L33.7703 45.443" stroke="#F7993B" stroke-width="1.90812" stroke-linecap="round" stroke-linejoin="round"/>
<path d="M26.2219 38.3066L35.5506 41.796" stroke="#F7993B" stroke-width="1.90812" stroke-linecap="round" stroke-linejoin="round"/>
<mask id="mask6_1191_1667" style="mask-type:alpha" maskUnits="userSpaceOnUse" x="5" y="66" width="42" height="13">
<rect x="5.56726" y="66.8428" width="41.1977" height="11.324" rx="2.42041" fill="#D9D9D9"/>
</mask>
<g mask="url(#mask6_1191_1667)">
<rect x="5.56726" y="66.8428" width="41.1977" height="11.324" rx="2.42041" fill="#D1674F"/>
<path d="M4.60522 75.7192C4.60522 77.056 5.68888 78.1396 7.02564 78.1396H35.6162H34.0727C32.736 78.1396 31.6523 77.056 31.6523 75.7192V69.2656C31.6523 67.9289 32.736 66.8452 34.0727 66.8452H35.6162H7.02564C5.68888 66.8452 4.60522 67.9289 4.60522 69.2656V75.7192Z" fill="#F7993B"/>
<path d="M40.0754 75.7592C40.0754 77.096 38.9918 78.1796 37.655 78.1796L-2.33507 78.1797V76.9026H28.2612C29.1523 76.9026 29.8748 76.1802 29.8748 75.289V69.9216C29.8748 69.0305 29.1523 68.308 28.2612 68.308H25.9109L37.4059 67.1186C38.8336 66.9708 40.0754 68.0908 40.0754 69.5261V75.7592Z" fill="#D1674F"/>
<path d="M6.34692 76.9062H19.2644H16.9141C16.0229 76.9062 15.3005 76.1838 15.3005 75.2926V69.9412C15.3005 69.05 16.0229 68.3276 16.9141 68.3276H19.2644H6.34719H8.44104C9.33221 68.3276 10.0546 69.05 10.0546 69.9412V75.2926C10.0546 76.1838 9.33221 76.9062 8.44104 76.9062H6.34692Z" fill="#FFD79B"/>
<path d="M47.5076 75.7592C47.5076 77.096 46.4239 78.1796 45.0872 78.1796L5.09706 78.1797V76.9026H35.6933C36.5845 76.9026 37.3069 76.1802 37.3069 75.289V69.7356C37.3069 68.8445 36.5845 68.122 35.6933 68.122H33.343H47.5076V75.7592Z" fill="#703307"/>
<path d="M3.93982 68.3184H49.443V66.5597H5.76669L3.93982 68.3184Z" fill="#FFD79B"/>
</g>
<path d="M33.0698 19.622L34.3332 14.9754C34.4344 14.5966 34.8305 14.3623 35.2168 14.4401C49.3575 17.3815 59.5293 8.47993 61.8059 6.25828C62.0849 5.984 62.5175 5.97197 62.8021 6.21456L66.4236 9.32477C66.7414 9.58769 66.7553 10.0688 66.4588 10.3641C63.7635 13.0789 51.3547 24.2491 33.6125 20.4908C33.217 20.3983 32.9686 20.0007 33.0726 19.61L33.0698 19.622Z" fill="#6AC8A9"/>
<path d="M70.2878 3.08013L58.0433 3.43655C57.5212 3.45281 57.2324 4.03919 57.5435 4.43887L66.404 15.6902C66.7151 16.0899 67.3666 15.953 67.5076 15.4578L70.8943 3.83812C71.0131 3.43833 70.7112 3.05338 70.2906 3.06821L70.2878 3.08013Z" fill="#6AC8A9"/>
</svg>
