<svg width="392" height="280" viewBox="0 0 392 280" fill="none" xmlns="http://www.w3.org/2000/svg">
<rect x="391.562" y="0.202637" width="279.777" height="390.813" rx="46.8" transform="rotate(90.0297 391.562 0.202637)" fill="#4FC1C2"/>
<mask id="mask0_1633_1563" style="mask-type:alpha" maskUnits="userSpaceOnUse" x="0" y="0" width="392" height="280">
<rect x="391.562" y="0.202637" width="279.777" height="390.813" rx="46.8" transform="rotate(90.0297 391.562 0.202637)" fill="#4FC1C2"/>
</mask>
<g mask="url(#mask0_1633_1563)">
<path opacity="0.2" d="M213.057 -12.4644L-28.758 229.351" stroke="#1C8788" stroke-width="19" stroke-dasharray="38 38"/>
<path opacity="0.2" d="M322.5 -34.1099L15.5438 263.808" stroke="#1C8788" stroke-width="19" stroke-dasharray="38 38"/>
<path opacity="0.2" d="M377.938 -21.5361L64.7686 287.19" stroke="#1C8788" stroke-width="19" stroke-dasharray="38 38"/>
<path opacity="0.2" d="M228.199 -127.268L-84.9705 181.458" stroke="#1C8788" stroke-width="19" stroke-dasharray="38 38"/>
<path opacity="0.2" d="M371.806 58.9111L129.991 300.726" stroke="#1C8788" stroke-width="19" stroke-dasharray="38 38"/>
<path opacity="0.2" d="M417.339 89.6763L175.523 331.492" stroke="#1C8788" stroke-width="19" stroke-dasharray="38 38"/>
</g>
<path d="M309.086 232.294C309.086 214.622 323.448 200.297 341.164 200.297C358.882 200.297 373.243 214.622 373.243 232.294C373.243 249.966 358.882 264.291 341.164 264.291C323.452 264.291 309.086 249.966 309.086 232.294Z" fill="white"/>
<path d="M355.686 223.908C355.686 222.669 354.677 221.662 353.435 221.662H349.16L339.301 210.316C338.387 209.262 336.941 208.841 335.604 209.238L332.182 210.254C331.661 210.41 331.5 211.072 331.893 211.446L342.629 221.658H326.224C325.75 221.658 325.371 222.04 325.371 222.509V224.357C325.371 225.596 326.376 226.603 327.623 226.603H330.13V235.24C330.13 241.689 333.576 245.537 339.344 245.537C341.098 245.537 342.605 245.334 344.335 244.658V250.417C344.335 251.977 345.605 253.244 347.169 253.244H349.658C350.25 253.244 350.729 252.766 350.729 252.175V226.603H354.843C355.317 226.603 355.696 226.22 355.696 225.752V223.908H355.686ZM344.325 239.283C343.316 239.737 341.846 239.992 340.761 239.992C337.823 239.992 336.514 238.526 336.514 235.245V226.608H344.325V239.283Z" fill="#4FC1C2"/>
<rect x="108.333" y="0.106934" width="279.777" height="20.4958" transform="rotate(90.0297 108.333 0.106934)" fill="white"/>
<rect x="391.696" y="119.267" width="390.928" height="17.7078" transform="rotate(-180 391.696 119.267)" fill="white"/>
<path d="M134.418 49.187C118.336 49.1872 105.3 62.2244 105.3 78.3062V107.424H134.418C150.5 107.424 163.537 94.3878 163.537 78.3062C163.537 62.2243 150.5 49.187 134.418 49.187Z" stroke="white" stroke-width="14"/>
<path d="M55.4885 49.187C71.5701 49.1872 84.6066 62.2244 84.6066 78.3062V107.424H55.4885C39.4067 107.424 26.3695 94.3878 26.3693 78.3062C26.3693 62.2243 39.4066 49.187 55.4885 49.187Z" stroke="white" stroke-width="14"/>
</svg>
