<svg width="32" height="32" viewBox="0 0 32 32" fill="none" xmlns="http://www.w3.org/2000/svg">
<mask id="mask0_609_13146" style="mask-type:alpha" maskUnits="userSpaceOnUse" x="0" y="0" width="32" height="32">
<rect width="32" height="32" fill="#D9D9D9"/>
</mask>
<g mask="url(#mask0_609_13146)">
<path fill-rule="evenodd" clip-rule="evenodd" d="M16 19.3332C20.05 19.3332 23.3333 16.0499 23.3333 11.9998C23.3333 7.94975 20.05 4.6665 16 4.6665C11.9499 4.6665 8.66663 7.94975 8.66663 11.9998C8.66663 16.0499 11.9499 19.3332 16 19.3332ZM16 21.3332C21.1546 21.3332 25.3333 17.1545 25.3333 11.9998C25.3333 6.84518 21.1546 2.6665 16 2.6665C10.8453 2.6665 6.66663 6.84518 6.66663 11.9998C6.66663 17.1545 10.8453 21.3332 16 21.3332Z" fill="#1F1F1F"/>
<path fill-rule="evenodd" clip-rule="evenodd" d="M17 20.333V23.6663H15V20.333H17Z" fill="#1F1F1F"/>
<path fill-rule="evenodd" clip-rule="evenodd" d="M18 24.6665H14C13.2636 24.6665 12.6666 25.2635 12.6666 25.9998C12.6666 26.7362 13.2636 27.3332 14 27.3332H18C18.7363 27.3332 19.3333 26.7362 19.3333 25.9998C19.3333 25.2635 18.7363 24.6665 18 24.6665ZM14 22.6665C12.159 22.6665 10.6666 24.1589 10.6666 25.9998C10.6666 27.8408 12.159 29.3332 14 29.3332H18C19.8409 29.3332 21.3333 27.8408 21.3333 25.9998C21.3333 24.1589 19.8409 22.6665 18 22.6665H14Z" fill="#1F1F1F"/>
<path fill-rule="evenodd" clip-rule="evenodd" d="M3 26C3 25.4477 3.44772 25 4 25H10.6667C11.219 25 11.6667 25.4477 11.6667 26C11.6667 26.5523 11.219 27 10.6667 27H4C3.44772 27 3 26.5523 3 26Z" fill="#1F1F1F"/>
<path fill-rule="evenodd" clip-rule="evenodd" d="M20.3334 26C20.3334 25.4477 20.7811 25 21.3334 25H28C28.5523 25 29 25.4477 29 26C29 26.5523 28.5523 27 28 27H21.3334C20.7811 27 20.3334 26.5523 20.3334 26Z" fill="#1F1F1F"/>
<path fill-rule="evenodd" clip-rule="evenodd" d="M15.5485 9.64316C15.5414 9.67319 15.5338 9.70339 15.5255 9.73373C15.3616 10.342 15.0564 10.8832 14.7338 11.3206C14.6601 11.4215 14.5897 11.5164 14.5226 11.6068C14.2514 11.9723 14.0349 12.2642 13.8724 12.5827C13.6915 12.9373 13.6276 13.2397 13.69 13.5739C13.8517 14.4289 14.8642 15.0825 16.0097 14.9922L16.0137 14.9919L16.0137 14.9919C17.2353 14.9006 18.2035 14.1279 18.3277 13.1339L18.3287 13.1258L18.3288 13.1258C18.3361 13.0708 18.3396 13.0141 18.3392 12.9559C18.321 12.9657 18.3026 12.9752 18.284 12.9844C17.9535 13.1486 17.502 13.2568 17.011 13.1113C15.9598 12.8089 15.7481 11.7571 15.7074 11.3237M15.5485 9.64316C15.5843 9.71396 15.6124 9.7853 15.6315 9.85432L15.5485 9.64316ZM19.6416 10.7848C19.6568 10.8054 19.6713 10.8266 19.685 10.8486C20.1128 11.533 20.4387 12.4245 20.3118 13.3859C20.0303 15.6204 17.9977 16.8485 16.1648 16.9862C14.4128 17.1234 12.1426 16.1613 11.7245 13.9438L11.7242 13.9424C11.5584 13.0562 11.7712 12.3005 12.0908 11.674C12.3373 11.1906 12.6795 10.7316 12.9573 10.359C13.0149 10.2816 13.0698 10.208 13.1205 10.1387L13.1233 10.1348L13.1233 10.1349C13.3445 9.83514 13.5127 9.51676 13.5945 9.2129L13.595 9.21114C13.6616 8.96545 13.6338 8.78747 13.5578 8.30271C13.5512 8.26036 13.5442 8.21568 13.5369 8.1684C13.496 7.90492 13.562 7.63602 13.7203 7.42144C13.8786 7.20687 14.116 7.06439 14.3798 7.02567C15.2066 6.9043 15.9406 7.2208 16.4675 7.65512C16.9904 8.08621 17.3876 8.69198 17.5623 9.33271L17.5649 9.3421L17.5649 9.34211C17.668 9.73517 17.6808 10.11 17.6832 10.4012C17.6839 10.4912 17.6838 10.5708 17.6837 10.6435C17.6836 10.7288 17.6835 10.8046 17.6848 10.876C17.7011 10.8561 17.7177 10.8357 17.7342 10.8151C17.7672 10.7742 17.7943 10.7396 17.8146 10.7131C17.9026 10.5402 18.0417 10.3913 18.2241 10.2912C18.6951 10.0326 19.2863 10.1925 19.5628 10.6533L19.6416 10.7848Z" fill="#1F1F1F"/>
</g>
</svg>
