<svg width="500" height="500" viewBox="0 0 500 500" fill="none" xmlns="http://www.w3.org/2000/svg">
<g clip-path="url(#clip0_214_3801)">
<path d="M500 0H0V500H500V0Z" fill="white"/>
<mask id="mask0_214_3801" style="mask-type:luminance" maskUnits="userSpaceOnUse" x="19" y="19" width="462" height="462">
<path d="M19 159H33V152C33 150.143 32.2625 148.363 30.9498 147.05C29.637 145.737 27.8565 145 26 145C24.1435 145 22.363 145.737 21.0502 147.05C19.7375 148.363 19 150.143 19 152" fill="white"/>
<path d="M33 159H19V173H33V159Z" fill="white"/>
<path d="M33 173H19V187H33V173Z" fill="white"/>
<path d="M33 187H19V201H33V187Z" fill="white"/>
<path d="M33 201H19V208C19 209.857 19.7375 211.637 21.0502 212.95C22.363 214.263 24.1435 215 26 215C27.8565 215 29.637 214.263 30.9498 212.95C32.2625 211.637 33 209.857 33 208" fill="white"/>
<path d="M19 243H33V229H26C25.0807 229 24.1705 229.181 23.3212 229.533C22.4719 229.885 21.7003 230.4 21.0502 231.05C20.4002 231.7 19.8846 232.472 19.5328 233.321C19.1811 234.17 19 235.081 19 236" fill="white"/>
<path d="M33 243H19V257H33V243Z" fill="white"/>
<path d="M33 257H19V271H33V257Z" fill="white"/>
<path d="M33 271H19V285H33V271Z" fill="white"/>
<path d="M33 285H19V299H33V285Z" fill="white"/>
<path d="M33 299H19V306C19 307.857 19.7375 309.637 21.0503 310.95C22.363 312.263 24.1435 313 26 313C27.8565 313 29.637 312.263 30.9497 310.95C32.2625 309.637 33 307.857 33 306" fill="white"/>
<path d="M33 355V341H26C24.1435 341 22.363 341.738 21.0503 343.05C19.7375 344.363 19 346.143 19 348C19 349.857 19.7375 351.637 21.0503 352.95C22.363 354.262 24.1435 355 26 355" fill="white"/>
<path d="M47 145V131H40C38.1435 131 36.363 131.737 35.0503 133.05C33.7375 134.363 33 136.143 33 138C33 139.857 33.7375 141.637 35.0503 142.95C36.363 144.263 38.1435 145 40 145" fill="white"/>
<path d="M33 159V173H40C41.8565 173 43.637 172.263 44.9497 170.95C46.2625 169.637 47 167.857 47 166C47 164.143 46.2625 162.363 44.9497 161.05C43.637 159.737 41.8565 159 40 159" fill="white"/>
<path d="M33 229H47V215H40C38.1435 215 36.363 215.737 35.0502 217.05C33.7375 218.363 33 220.143 33 222" fill="white"/>
<path d="M47 229H33V243H47V229Z" fill="white"/>
<path d="M47 243H33V257H40C41.8565 257 43.637 256.263 44.9498 254.95C46.2625 253.637 47 251.857 47 250" fill="white"/>
<path d="M33 271V285H40C41.8565 285 43.637 284.262 44.9497 282.95C46.2625 281.637 47 279.857 47 278C47 276.143 46.2625 274.363 44.9497 273.05C43.637 271.738 41.8565 271 40 271" fill="white"/>
<path d="M33 327H47V313H40C38.1435 313 36.363 313.737 35.0503 315.05C33.7375 316.363 33 318.143 33 320" fill="white"/>
<path d="M47 327H33V341H47V327Z" fill="white"/>
<path d="M47 341H33V355H47V341Z" fill="white"/>
<path d="M47 369V355H33V362C33 363.857 33.7375 365.637 35.0503 366.95C36.363 368.262 38.1435 369 40 369" fill="white"/>
<path d="M47 131V145H54C55.8565 145 57.637 144.263 58.9497 142.95C60.2625 141.637 61 139.857 61 138C61 136.143 60.2625 134.363 58.9497 133.05C57.637 131.737 55.8565 131 54 131" fill="white"/>
<path d="M47 187H61V180C61 178.143 60.2625 176.363 58.9498 175.05C57.637 173.737 55.8565 173 54 173C52.1435 173 50.363 173.737 49.0502 175.05C47.7375 176.363 47 178.143 47 180" fill="white"/>
<path d="M61 187H47V201H61V187Z" fill="white"/>
<path d="M61 201H47V215H61V201Z" fill="white"/>
<path d="M61 215H47V229H61V215Z" fill="white"/>
<path d="M61 229H47V243H61V229Z" fill="white"/>
<path d="M54 271C57.866 271 61 267.866 61 264C61 260.134 57.866 257 54 257C50.134 257 47 260.134 47 264C47 267.866 50.134 271 54 271Z" fill="white"/>
<path d="M47 299H61V285H54C52.1435 285 50.363 285.737 49.0503 287.05C47.7375 288.363 47 290.143 47 292" fill="white"/>
<path d="M61 299H47V313H61V299Z" fill="white"/>
<path d="M61 313H47V327H61V313Z" fill="white"/>
<path d="M61 327H47V341H61V327Z" fill="white"/>
<path d="M61 341H47V355H61V341Z" fill="white"/>
<path d="M61 355H47V369H61V355Z" fill="white"/>
<path d="M61 159H75V152C75 150.143 74.2625 148.363 72.9498 147.05C71.637 145.738 69.8565 145 68 145C66.1435 145 64.363 145.738 63.0502 147.05C61.7375 148.363 61 150.143 61 152" fill="white"/>
<path d="M75 159H61V166C61 167.857 61.7375 169.637 63.0502 170.95C64.363 172.262 66.1435 173 68 173C69.8565 173 71.637 172.262 72.9498 170.95C74.2625 169.637 75 167.857 75 166" fill="white"/>
<path d="M75 215H61V229H75V215Z" fill="white"/>
<path d="M75 229H61V243H68C69.8565 243 71.637 242.262 72.9498 240.95C74.2625 239.637 75 237.857 75 236" fill="white"/>
<path d="M61 285V299H75V292C75 290.143 74.2625 288.363 72.9497 287.05C71.637 285.738 69.8565 285 68 285" fill="white"/>
<path d="M75 299H61V313H75V299Z" fill="white"/>
<path d="M75 313H61V327H75V313Z" fill="white"/>
<path d="M75 327H61V341H75V327Z" fill="white"/>
<path d="M75 341H61V355H75V341Z" fill="white"/>
<path d="M75 355H61V369H68C69.8565 369 71.637 368.262 72.9497 366.95C74.2625 365.637 75 363.857 75 362" fill="white"/>
<path d="M75 187H89V173H82C80.1435 173 78.363 173.738 77.0502 175.05C75.7375 176.363 75 178.143 75 180" fill="white"/>
<path d="M89 187H75V194C75 195.857 75.7375 197.637 77.0502 198.95C78.363 200.262 80.1435 201 82 201C83.8565 201 85.637 200.262 86.9498 198.95C88.2625 197.637 89 195.857 89 194" fill="white"/>
<path d="M75 215V229H82C83.8565 229 85.637 228.263 86.9497 226.95C88.2625 225.637 89 223.857 89 222C89 220.143 88.2625 218.363 86.9497 217.05C85.637 215.737 83.8565 215 82 215" fill="white"/>
<path d="M82 271C85.866 271 89 267.866 89 264C89 260.134 85.866 257 82 257C78.134 257 75 260.134 75 264C75 267.866 78.134 271 82 271Z" fill="white"/>
<path d="M89 299H75V313H89V299Z" fill="white"/>
<path d="M89 313H75V327H89V313Z" fill="white"/>
<path d="M75 341V355H82C83.8565 355 85.637 354.262 86.9497 352.95C88.2625 351.637 89 349.857 89 348C89 346.143 88.2625 344.363 86.9497 343.05C85.637 341.738 83.8565 341 82 341" fill="white"/>
<path d="M96 159C99.866 159 103 155.866 103 152C103 148.134 99.866 145 96 145C92.134 145 89 148.134 89 152C89 155.866 92.134 159 96 159Z" fill="white"/>
<path d="M89 173V187H96C97.8565 187 99.637 186.263 100.95 184.95C102.262 183.637 103 181.857 103 180C103 178.143 102.262 176.363 100.95 175.05C99.637 173.737 97.8565 173 96 173" fill="white"/>
<path d="M96 215C99.866 215 103 211.866 103 208C103 204.134 99.866 201 96 201C92.134 201 89 204.134 89 208C89 211.866 92.134 215 96 215Z" fill="white"/>
<path d="M89 243H103V236C103 234.143 102.263 232.363 100.95 231.05C99.637 229.738 97.8565 229 96 229C94.1435 229 92.363 229.738 91.0502 231.05C89.7375 232.363 89 234.143 89 236" fill="white"/>
<path d="M103 257V243H89V250C89 251.857 89.7375 253.637 91.0503 254.95C92.363 256.263 94.1435 257 96 257" fill="white"/>
<path d="M89 285H103V271H96C94.1435 271 92.363 271.738 91.0503 273.05C89.7375 274.363 89 276.143 89 278" fill="white"/>
<path d="M103 285H89V299H103V285Z" fill="white"/>
<path d="M103 299H89V313H103V299Z" fill="white"/>
<path d="M103 313H89V327H96C97.8565 327 99.637 326.262 100.95 324.95C102.262 323.637 103 321.857 103 320" fill="white"/>
<path d="M110 145C113.866 145 117 141.866 117 138C117 134.134 113.866 131 110 131C106.134 131 103 134.134 103 138C103 141.866 106.134 145 110 145Z" fill="white"/>
<path d="M117 173V159H110C108.143 159 106.363 159.737 105.05 161.05C103.738 162.363 103 164.143 103 166C103 167.857 103.738 169.637 105.05 170.95C106.363 172.263 108.143 173 110 173" fill="white"/>
<path d="M110 201C113.866 201 117 197.866 117 194C117 190.134 113.866 187 110 187C106.134 187 103 190.134 103 194C103 197.866 106.134 201 110 201Z" fill="white"/>
<path d="M117 229V215H110C108.143 215 106.363 215.737 105.05 217.05C103.738 218.363 103 220.143 103 222C103 223.857 103.738 225.637 105.05 226.95C106.363 228.263 108.143 229 110 229" fill="white"/>
<path d="M103 243V257H110C111.857 257 113.637 256.263 114.95 254.95C116.262 253.637 117 251.857 117 250C117 248.143 116.262 246.363 114.95 245.05C113.637 243.737 111.857 243 110 243" fill="white"/>
<path d="M117 271H103V285H117V271Z" fill="white"/>
<path d="M117 299H103V313H117V299Z" fill="white"/>
<path d="M110 341C113.866 341 117 337.866 117 334C117 330.134 113.866 327 110 327C106.134 327 103 330.134 103 334C103 337.866 106.134 341 110 341Z" fill="white"/>
<path d="M117 369V355H110C108.143 355 106.363 355.738 105.05 357.05C103.738 358.363 103 360.143 103 362C103 363.857 103.738 365.637 105.05 366.95C106.363 368.262 108.143 369 110 369" fill="white"/>
<path d="M117 159H131V145H124C122.143 145 120.363 145.737 119.05 147.05C117.737 148.363 117 150.143 117 152" fill="white"/>
<path d="M131 159H117V173H131V159Z" fill="white"/>
<path d="M131 215H117V229H131V215Z" fill="white"/>
<path d="M117 271H131V257H124C122.143 257 120.363 257.737 119.05 259.05C117.738 260.363 117 262.143 117 264" fill="white"/>
<path d="M131 271H117V285H124C125.857 285 127.637 284.263 128.95 282.95C130.262 281.637 131 279.857 131 278" fill="white"/>
<path d="M117 299V313H124C125.857 313 127.637 312.262 128.95 310.95C130.263 309.637 131 307.857 131 306C131 304.143 130.263 302.363 128.95 301.05C127.637 299.738 125.857 299 124 299" fill="white"/>
<path d="M117 355V369H124C125.857 369 127.637 368.262 128.95 366.95C130.263 365.637 131 363.857 131 362C131 360.143 130.263 358.363 128.95 357.05C127.637 355.738 125.857 355 124 355" fill="white"/>
<path d="M131 47H145V40C145 38.1435 144.263 36.363 142.95 35.0502C141.637 33.7375 139.857 33 138 33C136.143 33 134.363 33.7375 133.05 35.0502C131.737 36.363 131 38.1435 131 40" fill="white"/>
<path d="M145 47H131V61H145V47Z" fill="white"/>
<path d="M145 75V61H131V68C131 69.8565 131.737 71.637 133.05 72.9497C134.363 74.2625 136.143 75 138 75" fill="white"/>
<path d="M131 103H145V96C145 94.1435 144.262 92.363 142.95 91.0502C141.637 89.7375 139.857 89 138 89C136.143 89 134.363 89.7375 133.05 91.0502C131.738 92.363 131 94.1435 131 96" fill="white"/>
<path d="M145 103H131V110C131 111.857 131.738 113.637 133.05 114.95C134.363 116.263 136.143 117 138 117C139.857 117 141.637 116.263 142.95 114.95C144.262 113.637 145 111.857 145 110" fill="white"/>
<path d="M145 145H131V159H145V145Z" fill="white"/>
<path d="M145 159H131V173H145V159Z" fill="white"/>
<path d="M145 215H131V229H145V215Z" fill="white"/>
<path d="M131 257V271H138C139.857 271 141.637 270.262 142.95 268.95C144.263 267.637 145 265.857 145 264C145 262.143 144.263 260.363 142.95 259.05C141.637 257.738 139.857 257 138 257" fill="white"/>
<path d="M145 299V285H138C136.143 285 134.363 285.738 133.05 287.05C131.737 288.363 131 290.143 131 292C131 293.857 131.737 295.637 133.05 296.95C134.363 298.262 136.143 299 138 299" fill="white"/>
<path d="M145 327V313H138C136.143 313 134.363 313.738 133.05 315.05C131.737 316.363 131 318.143 131 320C131 321.857 131.737 323.637 133.05 324.95C134.363 326.262 136.143 327 138 327" fill="white"/>
<path d="M131 453H145V439H138C136.143 439 134.363 439.737 133.05 441.05C131.738 442.363 131 444.143 131 446" fill="white"/>
<path d="M145 453H131V460C131 461.857 131.738 463.637 133.05 464.95C134.363 466.263 136.143 467 138 467C139.857 467 141.637 466.263 142.95 464.95C144.262 463.637 145 461.857 145 460" fill="white"/>
<path d="M152 33C155.866 33 159 29.866 159 26C159 22.134 155.866 19 152 19C148.134 19 145 22.134 145 26C145 29.866 148.134 33 152 33Z" fill="white"/>
<path d="M145 61V75H159V68C159 66.1435 158.263 64.363 156.95 63.0503C155.637 61.7375 153.857 61 152 61" fill="white"/>
<path d="M159 89V75H145V82C145 83.8565 145.737 85.637 147.05 86.9497C148.363 88.2625 150.143 89 152 89" fill="white"/>
<path d="M145 131H159V124C159 122.143 158.263 120.363 156.95 119.05C155.637 117.737 153.857 117 152 117C150.143 117 148.363 117.737 147.05 119.05C145.738 120.363 145 122.143 145 124" fill="white"/>
<path d="M159 131H145V145H159V131Z" fill="white"/>
<path d="M159 145H145V159H159V145Z" fill="white"/>
<path d="M159 159H145V173H159V159Z" fill="white"/>
<path d="M159 173H145V187H159V173Z" fill="white"/>
<path d="M159 187H145V194C145 195.857 145.737 197.637 147.05 198.95C148.363 200.263 150.143 201 152 201C153.857 201 155.637 200.263 156.95 198.95C158.263 197.637 159 195.857 159 194" fill="white"/>
<path d="M145 215V229H152C153.857 229 155.637 228.263 156.95 226.95C158.263 225.637 159 223.857 159 222C159 220.143 158.263 218.363 156.95 217.05C155.637 215.737 153.857 215 152 215" fill="white"/>
<path d="M159 257V243H152C150.143 243 148.363 243.737 147.05 245.05C145.737 246.363 145 248.143 145 250C145 251.857 145.737 253.637 147.05 254.95C148.363 256.263 150.143 257 152 257" fill="white"/>
<path d="M145 285H159V278C159 276.143 158.262 274.363 156.95 273.05C155.637 271.737 153.857 271 152 271C150.143 271 148.363 271.737 147.05 273.05C145.738 274.363 145 276.143 145 278" fill="white"/>
<path d="M159 285H145V299H159V285Z" fill="white"/>
<path d="M159 299H145V313H159V299Z" fill="white"/>
<path d="M159 313H145V327H152C153.857 327 155.637 326.263 156.95 324.95C158.262 323.637 159 321.857 159 320" fill="white"/>
<path d="M159 355V341H152C150.143 341 148.363 341.738 147.05 343.05C145.737 344.363 145 346.143 145 348C145 349.857 145.737 351.637 147.05 352.95C148.363 354.262 150.143 355 152 355" fill="white"/>
<path d="M145 397H159V383H152C150.143 383 148.363 383.737 147.05 385.05C145.738 386.363 145 388.143 145 390" fill="white"/>
<path d="M159 411V397H145V404C145 405.857 145.737 407.637 147.05 408.95C148.363 410.262 150.143 411 152 411" fill="white"/>
<path d="M145 439H159V425H152C150.143 425 148.363 425.737 147.05 427.05C145.738 428.363 145 430.143 145 432" fill="white"/>
<path d="M159 439H145V453H152C153.857 453 155.637 452.263 156.95 450.95C158.262 449.637 159 447.857 159 446" fill="white"/>
<path d="M159 481V467H152C150.143 467 148.363 467.738 147.05 469.05C145.737 470.363 145 472.143 145 474C145 475.857 145.737 477.637 147.05 478.95C148.363 480.262 150.143 481 152 481" fill="white"/>
<path d="M166 47C169.866 47 173 43.866 173 40C173 36.134 169.866 33 166 33C162.134 33 159 36.134 159 40C159 43.866 162.134 47 166 47Z" fill="white"/>
<path d="M159 75V89H166C167.857 89 169.637 88.2625 170.95 86.9497C172.263 85.637 173 83.8565 173 82C173 80.1435 172.263 78.363 170.95 77.0503C169.637 75.7375 167.857 75 166 75" fill="white"/>
<path d="M166 117C169.866 117 173 113.866 173 110C173 106.134 169.866 103 166 103C162.134 103 159 106.134 159 110C159 113.866 162.134 117 166 117Z" fill="white"/>
<path d="M166 215C169.866 215 173 211.866 173 208C173 204.134 169.866 201 166 201C162.134 201 159 204.134 159 208C159 211.866 162.134 215 166 215Z" fill="white"/>
<path d="M159 243H173V236C173 234.143 172.263 232.363 170.95 231.05C169.637 229.737 167.857 229 166 229C164.143 229 162.363 229.737 161.05 231.05C159.737 232.363 159 234.143 159 236" fill="white"/>
<path d="M173 243H159V257H173V243Z" fill="white"/>
<path d="M173 257H159V264C159 265.857 159.738 267.637 161.05 268.95C162.363 270.263 164.143 271 166 271C167.857 271 169.637 270.263 170.95 268.95C172.262 267.637 173 265.857 173 264" fill="white"/>
<path d="M173 299H159V313H173V299Z" fill="white"/>
<path d="M173 341H159V355H173V341Z" fill="white"/>
<path d="M159 383H173V376C173 374.143 172.262 372.363 170.95 371.05C169.637 369.737 167.857 369 166 369C164.143 369 162.363 369.737 161.05 371.05C159.738 372.363 159 374.143 159 376" fill="white"/>
<path d="M173 383H159V397H173V383Z" fill="white"/>
<path d="M173 397H159V411H173V397Z" fill="white"/>
<path d="M173 411H159V425H173V411Z" fill="white"/>
<path d="M173 425H159V439H173V425Z" fill="white"/>
<path d="M159 467H173V453H166C164.143 453 162.363 453.737 161.05 455.05C159.738 456.363 159 458.143 159 460" fill="white"/>
<path d="M173 467H159V481H166C167.857 481 169.637 480.263 170.95 478.95C172.262 477.637 173 475.857 173 474" fill="white"/>
<path d="M180 33C183.866 33 187 29.866 187 26C187 22.134 183.866 19 180 19C176.134 19 173 22.134 173 26C173 29.866 176.134 33 180 33Z" fill="white"/>
<path d="M180 75C183.866 75 187 71.866 187 68C187 64.134 183.866 61 180 61C176.134 61 173 64.134 173 68C173 71.866 176.134 75 180 75Z" fill="white"/>
<path d="M187 229V215H180C178.143 215 176.363 215.737 175.05 217.05C173.737 218.363 173 220.143 173 222C173 223.857 173.737 225.637 175.05 226.95C176.363 228.263 178.143 229 180 229" fill="white"/>
<path d="M173 243V257H180C181.857 257 183.637 256.263 184.95 254.95C186.263 253.637 187 251.857 187 250C187 248.143 186.263 246.363 184.95 245.05C183.637 243.737 181.857 243 180 243" fill="white"/>
<path d="M187 285V271H180C178.143 271 176.363 271.738 175.05 273.05C173.737 274.363 173 276.143 173 278C173 279.857 173.737 281.637 175.05 282.95C176.363 284.262 178.143 285 180 285" fill="white"/>
<path d="M173 299V313H180C181.857 313 183.637 312.262 184.95 310.95C186.263 309.637 187 307.857 187 306C187 304.143 186.263 302.363 184.95 301.05C183.637 299.738 181.857 299 180 299" fill="white"/>
<path d="M187 341H173V355H187V341Z" fill="white"/>
<path d="M187 369V355H173V362C173 363.857 173.737 365.637 175.05 366.95C176.363 368.262 178.143 369 180 369" fill="white"/>
<path d="M173 397V411H180C181.857 411 183.637 410.262 184.95 408.95C186.263 407.637 187 405.857 187 404C187 402.143 186.263 400.363 184.95 399.05C183.637 397.738 181.857 397 180 397" fill="white"/>
<path d="M187 425H173V439H187V425Z" fill="white"/>
<path d="M173 453V467H180C181.857 467 183.637 466.262 184.95 464.95C186.263 463.637 187 461.857 187 460C187 458.143 186.263 456.363 184.95 455.05C183.637 453.738 181.857 453 180 453" fill="white"/>
<path d="M187 103H201V89H194C192.143 89 190.363 89.7375 189.05 91.0502C187.738 92.363 187 94.1435 187 96" fill="white"/>
<path d="M201 103H187V117H201V103Z" fill="white"/>
<path d="M201 117H187V131H201V117Z" fill="white"/>
<path d="M201 145V131H187V138C187 139.857 187.737 141.637 189.05 142.95C190.363 144.263 192.143 145 194 145" fill="white"/>
<path d="M187 173H201V159H194C192.143 159 190.363 159.737 189.05 161.05C187.737 162.363 187 164.143 187 166" fill="white"/>
<path d="M201 173H187V187H201V173Z" fill="white"/>
<path d="M201 187H187V194C187 195.857 187.737 197.637 189.05 198.95C190.363 200.263 192.143 201 194 201C195.857 201 197.637 200.263 198.95 198.95C200.263 197.637 201 195.857 201 194" fill="white"/>
<path d="M201 215H187V229H201V215Z" fill="white"/>
<path d="M201 229H187V236C187 237.857 187.737 239.637 189.05 240.95C190.363 242.263 192.143 243 194 243C195.857 243 197.637 242.263 198.95 240.95C200.263 239.637 201 237.857 201 236" fill="white"/>
<path d="M201 271H187V285H201V271Z" fill="white"/>
<path d="M201 285H187V292C187 293.857 187.738 295.637 189.05 296.95C190.363 298.263 192.143 299 194 299C195.857 299 197.637 298.263 198.95 296.95C200.262 295.637 201 293.857 201 292" fill="white"/>
<path d="M194 327C197.866 327 201 323.866 201 320C201 316.134 197.866 313 194 313C190.134 313 187 316.134 187 320C187 323.866 190.134 327 194 327Z" fill="white"/>
<path d="M187 341V355H201V348C201 346.143 200.263 344.363 198.95 343.05C197.637 341.738 195.857 341 194 341" fill="white"/>
<path d="M201 355H187V369H201V355Z" fill="white"/>
<path d="M201 383V369H187V376C187 377.857 187.737 379.637 189.05 380.95C190.363 382.262 192.143 383 194 383" fill="white"/>
<path d="M187 425H201V418C201 416.143 200.262 414.363 198.95 413.05C197.637 411.737 195.857 411 194 411C192.143 411 190.363 411.737 189.05 413.05C187.738 414.363 187 416.143 187 418" fill="white"/>
<path d="M201 425H187V439H201V425Z" fill="white"/>
<path d="M201 47H215V33H208C206.143 33 204.363 33.7375 203.05 35.0502C201.737 36.363 201 38.1435 201 40" fill="white"/>
<path d="M215 47H201V61H215V47Z" fill="white"/>
<path d="M215 61H201V68C201 69.8565 201.738 71.637 203.05 72.9498C204.363 74.2625 206.143 75 208 75C209.857 75 211.637 74.2625 212.95 72.9498C214.263 71.637 215 69.8565 215 68" fill="white"/>
<path d="M201 89V103H208C209.857 103 211.637 102.262 212.95 100.95C214.263 99.637 215 97.8565 215 96C215 94.1435 214.263 92.363 212.95 91.0503C211.637 89.7375 209.857 89 208 89" fill="white"/>
<path d="M201 117V131H215V124C215 122.143 214.263 120.363 212.95 119.05C211.637 117.738 209.857 117 208 117" fill="white"/>
<path d="M215 131H201V145H215V131Z" fill="white"/>
<path d="M215 145H201V159H215V145Z" fill="white"/>
<path d="M215 159H201V173H208C209.857 173 211.637 172.263 212.95 170.95C214.263 169.637 215 167.857 215 166" fill="white"/>
<path d="M201 215V229H208C209.857 229 211.637 228.263 212.95 226.95C214.263 225.637 215 223.857 215 222C215 220.143 214.263 218.363 212.95 217.05C211.637 215.737 209.857 215 208 215" fill="white"/>
<path d="M208 257C211.866 257 215 253.866 215 250C215 246.134 211.866 243 208 243C204.134 243 201 246.134 201 250C201 253.866 204.134 257 208 257Z" fill="white"/>
<path d="M215 271H201V285H215V271Z" fill="white"/>
<path d="M208 341C211.866 341 215 337.866 215 334C215 330.134 211.866 327 208 327C204.134 327 201 330.134 201 334C201 337.866 204.134 341 208 341Z" fill="white"/>
<path d="M201 355V369H215V362C215 360.143 214.263 358.363 212.95 357.05C211.637 355.738 209.857 355 208 355" fill="white"/>
<path d="M215 369H201V383H208C209.857 383 211.637 382.263 212.95 380.95C214.262 379.637 215 377.857 215 376" fill="white"/>
<path d="M201 425V439H215V432C215 430.143 214.263 428.363 212.95 427.05C211.637 425.738 209.857 425 208 425" fill="white"/>
<path d="M215 439H201V453H215V439Z" fill="white"/>
<path d="M215 453H201V460C201 461.857 201.738 463.637 203.05 464.95C204.363 466.263 206.143 467 208 467C209.857 467 211.637 466.263 212.95 464.95C214.262 463.637 215 461.857 215 460" fill="white"/>
<path d="M215 33V47H229V40C229 39.0807 228.819 38.1705 228.467 37.3212C228.115 36.4719 227.6 35.7003 226.95 35.0503C226.3 34.4002 225.528 33.8846 224.679 33.5328C223.83 33.1811 222.919 33 222 33" fill="white"/>
<path d="M229 47H215V61H222C222.919 61 223.83 60.8189 224.679 60.4672C225.528 60.1154 226.3 59.5998 226.95 58.9498C227.6 58.2997 228.115 57.5281 228.467 56.6788C228.819 55.8295 229 54.9193 229 54" fill="white"/>
<path d="M222 117C225.866 117 229 113.866 229 110C229 106.134 225.866 103 222 103C218.134 103 215 106.134 215 110C215 113.866 218.134 117 222 117Z" fill="white"/>
<path d="M215 131V145H222C223.857 145 225.637 144.263 226.95 142.95C228.263 141.637 229 139.857 229 138C229 136.143 228.263 134.363 226.95 133.05C225.637 131.737 223.857 131 222 131" fill="white"/>
<path d="M229 187V173H222C220.143 173 218.363 173.737 217.05 175.05C215.737 176.363 215 178.143 215 180C215 181.857 215.737 183.637 217.05 184.95C218.363 186.263 220.143 187 222 187" fill="white"/>
<path d="M222 215C225.866 215 229 211.866 229 208C229 204.134 225.866 201 222 201C218.134 201 215 204.134 215 208C215 211.866 218.134 215 222 215Z" fill="white"/>
<path d="M222 243C225.866 243 229 239.866 229 236C229 232.134 225.866 229 222 229C218.134 229 215 232.134 215 236C215 239.866 218.134 243 222 243Z" fill="white"/>
<path d="M215 271H229V264C229 262.143 228.262 260.363 226.95 259.05C225.637 257.737 223.857 257 222 257C220.143 257 218.363 257.737 217.05 259.05C215.738 260.363 215 262.143 215 264" fill="white"/>
<path d="M229 271H215V285H229V271Z" fill="white"/>
<path d="M215 397H229V383H222C221.081 383 220.171 383.181 219.321 383.533C218.472 383.885 217.7 384.4 217.05 385.05C216.4 385.7 215.885 386.472 215.533 387.321C215.181 388.17 215 389.081 215 390" fill="white"/>
<path d="M229 397H215V404C215 405.857 215.738 407.637 217.05 408.95C218.363 410.263 220.143 411 222 411C223.857 411 225.637 410.263 226.95 408.95C228.262 407.637 229 405.857 229 404" fill="white"/>
<path d="M229 439H215V453H229V439Z" fill="white"/>
<path d="M229 75H243V68C243 66.1435 242.262 64.363 240.95 63.0502C239.637 61.7375 237.857 61 236 61C234.143 61 232.363 61.7375 231.05 63.0502C229.737 64.363 229 66.1435 229 68" fill="white"/>
<path d="M243 75H229V82C229 83.8565 229.738 85.637 231.05 86.9498C232.363 88.2625 234.143 89 236 89C237.857 89 239.637 88.2625 240.95 86.9498C242.262 85.637 243 83.8565 243 82" fill="white"/>
<path d="M243 131V117H236C234.143 117 232.363 117.737 231.05 119.05C229.737 120.363 229 122.143 229 124C229 125.857 229.737 127.637 231.05 128.95C232.363 130.262 234.143 131 236 131" fill="white"/>
<path d="M229 173V187H236C237.857 187 239.637 186.263 240.95 184.95C242.263 183.637 243 181.857 243 180C243 178.143 242.263 176.363 240.95 175.05C239.637 173.737 237.857 173 236 173" fill="white"/>
<path d="M243 257V243H236C234.143 243 232.363 243.737 231.05 245.05C229.737 246.363 229 248.143 229 250C229 251.857 229.737 253.637 231.05 254.95C232.363 256.263 234.143 257 236 257" fill="white"/>
<path d="M243 271H229V285H243V271Z" fill="white"/>
<path d="M243 285H229V299H243V285Z" fill="white"/>
<path d="M243 299H229V313H243V299Z" fill="white"/>
<path d="M243 313H229V327H243V313Z" fill="white"/>
<path d="M243 341V327H229V334C229 335.857 229.737 337.637 231.05 338.95C232.363 340.262 234.143 341 236 341" fill="white"/>
<path d="M229 369H243V362C243 360.143 242.262 358.363 240.95 357.05C239.637 355.737 237.857 355 236 355C234.143 355 232.363 355.737 231.05 357.05C229.738 358.363 229 360.143 229 362" fill="white"/>
<path d="M243 369H229V383H243V369Z" fill="white"/>
<path d="M243 383H229V397H243V383Z" fill="white"/>
<path d="M229 439H243V432C243 430.143 242.262 428.363 240.95 427.05C239.637 425.737 237.857 425 236 425C234.143 425 232.363 425.737 231.05 427.05C229.738 428.363 229 430.143 229 432" fill="white"/>
<path d="M243 439H229V453H243V439Z" fill="white"/>
<path d="M243 117H257V110C257 108.143 256.262 106.363 254.95 105.05C253.637 103.737 251.857 103 250 103C248.143 103 246.363 103.737 245.05 105.05C243.738 106.363 243 108.143 243 110" fill="white"/>
<path d="M257 117H243V131H257V117Z" fill="white"/>
<path d="M243 201H257V194C257 192.143 256.263 190.363 254.95 189.05C253.637 187.737 251.857 187 250 187C248.143 187 246.363 187.737 245.05 189.05C243.737 190.363 243 192.143 243 194" fill="white"/>
<path d="M257 215V201H243V208C243 209.857 243.737 211.637 245.05 212.95C246.363 214.263 248.143 215 250 215" fill="white"/>
<path d="M243 243H257V236C257 234.143 256.263 232.363 254.95 231.05C253.637 229.737 251.857 229 250 229C248.143 229 246.363 229.737 245.05 231.05C243.737 232.363 243 234.143 243 236" fill="white"/>
<path d="M257 243H243V257H250C251.857 257 253.637 256.263 254.95 254.95C256.263 253.637 257 251.857 257 250" fill="white"/>
<path d="M257 271H243V285H257V271Z" fill="white"/>
<path d="M257 285H243V299H257V285Z" fill="white"/>
<path d="M257 299H243V313H257V299Z" fill="white"/>
<path d="M257 313H243V327H257V313Z" fill="white"/>
<path d="M257 327H243V341H257V327Z" fill="white"/>
<path d="M243 369V383H257V376C257 374.143 256.263 372.363 254.95 371.05C253.637 369.738 251.857 369 250 369" fill="white"/>
<path d="M257 383H243V397H257V383Z" fill="white"/>
<path d="M257 425V411H250C248.143 411 246.363 411.738 245.05 413.05C243.737 414.363 243 416.143 243 418C243 419.857 243.737 421.637 245.05 422.95C246.363 424.262 248.143 425 250 425" fill="white"/>
<path d="M243 439V453H250C251.857 453 253.637 452.262 254.95 450.95C256.263 449.637 257 447.857 257 446C257 444.143 256.263 442.363 254.95 441.05C253.637 439.738 251.857 439 250 439" fill="white"/>
<path d="M264 47C267.866 47 271 43.866 271 40C271 36.134 267.866 33 264 33C260.134 33 257 36.134 257 40C257 43.866 260.134 47 264 47Z" fill="white"/>
<path d="M257 75H271V61H264C262.143 61 260.363 61.7375 259.05 63.0503C257.737 64.363 257 66.1435 257 68" fill="white"/>
<path d="M271 75H257V82C257 83.8565 257.738 85.637 259.05 86.9497C260.363 88.2625 262.143 89 264 89C265.857 89 267.637 88.2625 268.95 86.9497C270.262 85.637 271 83.8565 271 82" fill="white"/>
<path d="M257 117V131H271V124C271 122.143 270.262 120.363 268.95 119.05C267.637 117.738 265.857 117 264 117" fill="white"/>
<path d="M271 131H257V145H271V131Z" fill="white"/>
<path d="M271 145H257V159H271V145Z" fill="white"/>
<path d="M271 159H257V173H271V159Z" fill="white"/>
<path d="M271 173H257V180C257 181.857 257.737 183.637 259.05 184.95C260.363 186.262 262.143 187 264 187C265.857 187 267.637 186.262 268.95 184.95C270.263 183.637 271 181.857 271 180" fill="white"/>
<path d="M257 201V215H264C265.857 215 267.637 214.263 268.95 212.95C270.262 211.637 271 209.857 271 208C271 206.143 270.262 204.363 268.95 203.05C267.637 201.737 265.857 201 264 201" fill="white"/>
<path d="M257 271H271V264C271 262.143 270.262 260.363 268.95 259.05C267.637 257.738 265.857 257 264 257C262.143 257 260.363 257.738 259.05 259.05C257.738 260.363 257 262.143 257 264" fill="white"/>
<path d="M271 271H257V285H264C265.857 285 267.637 284.262 268.95 282.95C270.262 281.637 271 279.857 271 278" fill="white"/>
<path d="M257 313V327H271V320C271 318.143 270.262 316.363 268.95 315.05C267.637 313.738 265.857 313 264 313" fill="white"/>
<path d="M271 327H257V341H271V327Z" fill="white"/>
<path d="M271 341H257V348C257 349.857 257.738 351.637 259.05 352.95C260.363 354.262 262.143 355 264 355C265.857 355 267.637 354.262 268.95 352.95C270.262 351.637 271 349.857 271 348" fill="white"/>
<path d="M257 383V397H264C265.857 397 267.637 396.262 268.95 394.95C270.262 393.637 271 391.857 271 390C271 388.143 270.262 386.363 268.95 385.05C267.637 383.738 265.857 383 264 383" fill="white"/>
<path d="M271 411H257V425H271V411Z" fill="white"/>
<path d="M271 425H257V432C257 433.857 257.738 435.637 259.05 436.95C260.363 438.262 262.143 439 264 439C265.857 439 267.637 438.262 268.95 436.95C270.262 435.637 271 433.857 271 432" fill="white"/>
<path d="M271 61H285V47H278C276.143 47 274.363 47.7375 273.05 49.0503C271.737 50.363 271 52.1435 271 54" fill="white"/>
<path d="M285 61H271V75H278C279.857 75 281.637 74.2625 282.95 72.9497C284.263 71.637 285 69.8565 285 68" fill="white"/>
<path d="M278 117C281.866 117 285 113.866 285 110C285 106.134 281.866 103 278 103C274.134 103 271 106.134 271 110C271 113.866 274.134 117 278 117Z" fill="white"/>
<path d="M285 145H271V159H285V145Z" fill="white"/>
<path d="M285 201V187H278C276.143 187 274.363 187.737 273.05 189.05C271.738 190.363 271 192.143 271 194C271 195.857 271.738 197.637 273.05 198.95C274.363 200.263 276.143 201 278 201" fill="white"/>
<path d="M285 313V299H278C276.143 299 274.363 299.738 273.05 301.05C271.738 302.363 271 304.143 271 306C271 307.857 271.738 309.637 273.05 310.95C274.363 312.262 276.143 313 278 313" fill="white"/>
<path d="M271 327V341H278C279.857 341 281.637 340.262 282.95 338.95C284.262 337.637 285 335.857 285 334C285 332.143 284.262 330.363 282.95 329.05C281.637 327.738 279.857 327 278 327" fill="white"/>
<path d="M271 411H285V404C285 402.143 284.262 400.363 282.95 399.05C281.637 397.738 279.857 397 278 397C276.143 397 274.363 397.738 273.05 399.05C271.738 400.363 271 402.143 271 404" fill="white"/>
<path d="M285 411H271V425H285V411Z" fill="white"/>
<path d="M271 453H285V446C285 444.143 284.262 442.363 282.95 441.05C281.637 439.738 279.857 439 278 439C276.143 439 274.363 439.738 273.05 441.05C271.738 442.363 271 444.143 271 446" fill="white"/>
<path d="M285 453H271V460C271 461.857 271.738 463.637 273.05 464.95C274.363 466.262 276.143 467 278 467C279.857 467 281.637 466.262 282.95 464.95C284.262 463.637 285 461.857 285 460" fill="white"/>
<path d="M285 47H299V40C299 38.1435 298.263 36.363 296.95 35.0503C295.637 33.7375 293.857 33 292 33C290.143 33 288.363 33.7375 287.05 35.0503C285.737 36.363 285 38.1435 285 40" fill="white"/>
<path d="M299 47H285V61H292C293.857 61 295.637 60.2625 296.95 58.9497C298.263 57.637 299 55.8565 299 54" fill="white"/>
<path d="M292 103C295.866 103 299 99.866 299 96C299 92.134 295.866 89 292 89C288.134 89 285 92.134 285 96C285 99.866 288.134 103 292 103Z" fill="white"/>
<path d="M299 145H285V159H299V145Z" fill="white"/>
<path d="M285 187V201H292C293.857 201 295.637 200.263 296.95 198.95C298.262 197.637 299 195.857 299 194C299 192.143 298.262 190.363 296.95 189.05C295.637 187.737 293.857 187 292 187" fill="white"/>
<path d="M299 243V229H292C290.143 229 288.363 229.737 287.05 231.05C285.738 232.363 285 234.143 285 236C285 237.857 285.738 239.637 287.05 240.95C288.363 242.263 290.143 243 292 243" fill="white"/>
<path d="M285 271H299V257H292C290.143 257 288.363 257.738 287.05 259.05C285.738 260.363 285 262.143 285 264" fill="white"/>
<path d="M299 271H285V285H299V271Z" fill="white"/>
<path d="M299 285H285V299H299V285Z" fill="white"/>
<path d="M299 299H285V313H299V299Z" fill="white"/>
<path d="M299 313H285V320C285 321.857 285.738 323.637 287.05 324.95C288.363 326.262 290.143 327 292 327C293.857 327 295.637 326.262 296.95 324.95C298.262 323.637 299 321.857 299 320" fill="white"/>
<path d="M285 355H299V348C299 346.143 298.262 344.363 296.95 343.05C295.637 341.738 293.857 341 292 341C290.143 341 288.363 341.738 287.05 343.05C285.738 344.363 285 346.143 285 348" fill="white"/>
<path d="M299 355H285V362C285 363.857 285.738 365.637 287.05 366.95C288.363 368.262 290.143 369 292 369C293.857 369 295.637 368.262 296.95 366.95C298.262 365.637 299 363.857 299 362" fill="white"/>
<path d="M285 411V425H292C293.857 425 295.637 424.262 296.95 422.95C298.262 421.637 299 419.857 299 418C299 416.143 298.262 414.363 296.95 413.05C295.637 411.738 293.857 411 292 411" fill="white"/>
<path d="M299 75H313V61H306C304.143 61 302.363 61.7375 301.05 63.0503C299.737 64.363 299 66.1435 299 68" fill="white"/>
<path d="M313 89V75H299V82C299 83.8565 299.738 85.637 301.05 86.9497C302.363 88.2625 304.143 89 306 89" fill="white"/>
<path d="M306 117C309.866 117 313 113.866 313 110C313 106.134 309.866 103 306 103C302.134 103 299 106.134 299 110C299 113.866 302.134 117 306 117Z" fill="white"/>
<path d="M299 145H313V131H306C304.143 131 302.363 131.738 301.05 133.05C299.737 134.363 299 136.143 299 138" fill="white"/>
<path d="M313 145H299V159H313V145Z" fill="white"/>
<path d="M313 159H299V173H313V159Z" fill="white"/>
<path d="M313 187V173H299V180C299 181.857 299.738 183.637 301.05 184.95C302.363 186.263 304.143 187 306 187" fill="white"/>
<path d="M313 229H299V243H313V229Z" fill="white"/>
<path d="M313 257H299V271H313V257Z" fill="white"/>
<path d="M313 271H299V285H306C307.857 285 309.637 284.262 310.95 282.95C312.262 281.637 313 279.857 313 278" fill="white"/>
<path d="M299 299V313H306C307.857 313 309.637 312.262 310.95 310.95C312.262 309.637 313 307.857 313 306C313 304.143 312.262 302.363 310.95 301.05C309.637 299.738 307.857 299 306 299" fill="white"/>
<path d="M313 411V397H306C304.143 397 302.363 397.738 301.05 399.05C299.738 400.363 299 402.143 299 404C299 405.857 299.738 407.637 301.05 408.95C302.363 410.262 304.143 411 306 411" fill="white"/>
<path d="M299 439H313V432C313 430.143 312.262 428.363 310.95 427.05C309.637 425.738 307.857 425 306 425C304.143 425 302.363 425.738 301.05 427.05C299.738 428.363 299 430.143 299 432" fill="white"/>
<path d="M313 439H299V453H313V439Z" fill="white"/>
<path d="M313 453H299V460C299 461.857 299.738 463.637 301.05 464.95C302.363 466.262 304.143 467 306 467C307.857 467 309.637 466.262 310.95 464.95C312.262 463.637 313 461.857 313 460" fill="white"/>
<path d="M320 33C323.866 33 327 29.866 327 26C327 22.134 323.866 19 320 19C316.134 19 313 22.134 313 26C313 29.866 316.134 33 320 33Z" fill="white"/>
<path d="M327 61H313V75H327V61Z" fill="white"/>
<path d="M327 75H313V89H327V75Z" fill="white"/>
<path d="M327 89H313V96C313 97.8565 313.738 99.637 315.05 100.95C316.363 102.262 318.143 103 320 103C321.857 103 323.637 102.262 324.95 100.95C326.262 99.637 327 97.8565 327 96" fill="white"/>
<path d="M313 131V145H320C321.857 145 323.637 144.263 324.95 142.95C326.262 141.637 327 139.857 327 138C327 136.143 326.262 134.363 324.95 133.05C323.637 131.737 321.857 131 320 131" fill="white"/>
<path d="M313 159V173H327V166C327 164.143 326.262 162.363 324.95 161.05C323.637 159.737 321.857 159 320 159" fill="white"/>
<path d="M327 173H313V187H327V173Z" fill="white"/>
<path d="M327 229H313V243H327V229Z" fill="white"/>
<path d="M327 243H313V257H327V243Z" fill="white"/>
<path d="M327 257H313V271H320C321.857 271 323.637 270.262 324.95 268.95C326.262 267.637 327 265.857 327 264" fill="white"/>
<path d="M327 355V341H320C318.143 341 316.363 341.738 315.05 343.05C313.738 344.363 313 346.143 313 348C313 349.857 313.738 351.637 315.05 352.95C316.363 354.262 318.143 355 320 355" fill="white"/>
<path d="M313 383H327V376C327 374.143 326.262 372.363 324.95 371.05C323.637 369.738 321.857 369 320 369C318.143 369 316.363 369.738 315.05 371.05C313.738 372.363 313 374.143 313 376" fill="white"/>
<path d="M327 383H313V397H327V383Z" fill="white"/>
<path d="M327 397H313V411H327V397Z" fill="white"/>
<path d="M313 439V453H320C321.857 453 323.637 452.262 324.95 450.95C326.262 449.637 327 447.857 327 446C327 444.143 326.262 442.363 324.95 441.05C323.637 439.738 321.857 439 320 439" fill="white"/>
<path d="M327 481V467H320C318.143 467 316.363 467.738 315.05 469.05C313.738 470.363 313 472.143 313 474C313 475.857 313.738 477.637 315.05 478.95C316.363 480.262 318.143 481 320 481" fill="white"/>
<path d="M341 61H327V75H341V61Z" fill="white"/>
<path d="M327 117H341V110C341 108.143 340.262 106.363 338.95 105.05C337.637 103.738 335.857 103 334 103C332.143 103 330.363 103.738 329.05 105.05C327.738 106.363 327 108.143 327 110" fill="white"/>
<path d="M341 117H327V124C327 125.857 327.737 127.637 329.05 128.95C330.363 130.262 332.143 131 334 131C335.857 131 337.637 130.262 338.95 128.95C340.262 127.637 341 125.857 341 124" fill="white"/>
<path d="M327 173V187H341V180C341 178.143 340.262 176.363 338.95 175.05C337.637 173.737 335.857 173 334 173" fill="white"/>
<path d="M341 187H327V194C327 195.857 327.737 197.637 329.05 198.95C330.363 200.262 332.143 201 334 201C335.857 201 337.637 200.262 338.95 198.95C340.263 197.637 341 195.857 341 194" fill="white"/>
<path d="M327 229H341V215H334C332.143 215 330.363 215.738 329.05 217.05C327.737 218.363 327 220.143 327 222" fill="white"/>
<path d="M341 229H327V243H341V229Z" fill="white"/>
<path d="M341 285V271H334C332.143 271 330.363 271.738 329.05 273.05C327.738 274.363 327 276.143 327 278C327 279.857 327.738 281.637 329.05 282.95C330.363 284.262 332.143 285 334 285" fill="white"/>
<path d="M327 341H341V327H334C332.143 327 330.363 327.738 329.05 329.05C327.738 330.363 327 332.143 327 334" fill="white"/>
<path d="M341 341H327V355H334C335.857 355 337.637 354.262 338.95 352.95C340.262 351.637 341 349.857 341 348" fill="white"/>
<path d="M327 383V397H341V390C341 388.143 340.262 386.363 338.95 385.05C337.637 383.738 335.857 383 334 383" fill="white"/>
<path d="M341 397H327V411H334C335.857 411 337.637 410.262 338.95 408.95C340.262 407.637 341 405.857 341 404" fill="white"/>
<path d="M334 439C337.866 439 341 435.866 341 432C341 428.134 337.866 425 334 425C330.134 425 327 428.134 327 432C327 435.866 330.134 439 334 439Z" fill="white"/>
<path d="M327 467H341V453H334C332.143 453 330.363 453.738 329.05 455.05C327.738 456.363 327 458.143 327 460" fill="white"/>
<path d="M341 467H327V481H334C335.857 481 337.637 480.262 338.95 478.95C340.262 477.637 341 475.857 341 474" fill="white"/>
<path d="M341 47H355V40C355 38.1435 354.263 36.363 352.95 35.0503C351.637 33.7375 349.857 33 348 33C346.143 33 344.363 33.7375 343.05 35.0503C341.737 36.363 341 38.1435 341 40" fill="white"/>
<path d="M355 47H341V61H355V47Z" fill="white"/>
<path d="M355 61H341V75H355V61Z" fill="white"/>
<path d="M355 215H341V229H355V215Z" fill="white"/>
<path d="M355 229H341V243H348C349.857 243 351.637 242.262 352.95 240.95C354.263 239.637 355 237.857 355 236" fill="white"/>
<path d="M341 271H355V257H348C346.143 257 344.363 257.738 343.05 259.05C341.738 260.363 341 262.143 341 264" fill="white"/>
<path d="M355 271H341V285H355V271Z" fill="white"/>
<path d="M355 285H341V292C341 293.857 341.738 295.637 343.05 296.95C344.363 298.262 346.143 299 348 299C349.857 299 351.637 298.262 352.95 296.95C354.262 295.637 355 293.857 355 292" fill="white"/>
<path d="M355 327H341V341H355V327Z" fill="white"/>
<path d="M355 383V369H348C346.143 369 344.363 369.738 343.05 371.05C341.738 372.363 341 374.143 341 376C341 377.857 341.738 379.637 343.05 380.95C344.363 382.262 346.143 383 348 383" fill="white"/>
<path d="M355 453H341V467H355V453Z" fill="white"/>
<path d="M362 33C365.866 33 369 29.866 369 26C369 22.134 365.866 19 362 19C358.134 19 355 22.134 355 26C355 29.866 358.134 33 362 33Z" fill="white"/>
<path d="M355 47V61H369V54C369 52.1435 368.262 50.363 366.95 49.0503C365.637 47.7375 363.857 47 362 47" fill="white"/>
<path d="M369 61H355V75H362C363.857 75 365.637 74.2625 366.95 72.9497C368.263 71.637 369 69.8565 369 68" fill="white"/>
<path d="M355 117H369V110C369 108.143 368.262 106.363 366.95 105.05C365.637 103.738 363.857 103 362 103C360.143 103 358.363 103.738 357.05 105.05C355.738 106.363 355 108.143 355 110" fill="white"/>
<path d="M369 117H355V124C355 125.857 355.737 127.637 357.05 128.95C358.363 130.262 360.143 131 362 131C363.857 131 365.637 130.262 366.95 128.95C368.262 127.637 369 125.857 369 124" fill="white"/>
<path d="M355 173H369V166C369 164.143 368.263 162.363 366.95 161.05C365.637 159.738 363.857 159 362 159C360.143 159 358.363 159.738 357.05 161.05C355.737 162.363 355 164.143 355 166" fill="white"/>
<path d="M369 173H355V187H369V173Z" fill="white"/>
<path d="M369 187H355V194C355 195.857 355.737 197.637 357.05 198.95C358.363 200.262 360.143 201 362 201C363.857 201 365.637 200.262 366.95 198.95C368.263 197.637 369 195.857 369 194" fill="white"/>
<path d="M355 215V229H362C363.857 229 365.637 228.263 366.95 226.95C368.262 225.637 369 223.857 369 222C369 220.143 368.262 218.363 366.95 217.05C365.637 215.737 363.857 215 362 215" fill="white"/>
<path d="M355 257H369V250C369 248.143 368.263 246.363 366.95 245.05C365.637 243.738 363.857 243 362 243C360.143 243 358.363 243.738 357.05 245.05C355.737 246.363 355 248.143 355 250" fill="white"/>
<path d="M369 257H355V271H362C363.857 271 365.637 270.262 366.95 268.95C368.262 267.637 369 265.857 369 264" fill="white"/>
<path d="M355 327V341H369V334C369 332.143 368.262 330.363 366.95 329.05C365.637 327.738 363.857 327 362 327" fill="white"/>
<path d="M369 341H355V355H369V341Z" fill="white"/>
<path d="M369 355H355V369H369V355Z" fill="white"/>
<path d="M369 369H355V383H369V369Z" fill="white"/>
<path d="M369 383H355V397H369V383Z" fill="white"/>
<path d="M369 397H355V411H369V397Z" fill="white"/>
<path d="M369 425V411H355V418C355 419.857 355.738 421.637 357.05 422.95C358.363 424.262 360.143 425 362 425" fill="white"/>
<path d="M369 453H355V467H369V453Z" fill="white"/>
<path d="M369 145H383V138C383 136.143 382.263 134.363 380.95 133.05C379.637 131.738 377.857 131 376 131C374.143 131 372.363 131.738 371.05 133.05C369.737 134.363 369 136.143 369 138" fill="white"/>
<path d="M383 145H369V152C369 153.857 369.737 155.637 371.05 156.95C372.363 158.262 374.143 159 376 159C377.857 159 379.637 158.262 380.95 156.95C382.263 155.637 383 153.857 383 152" fill="white"/>
<path d="M369 173V187H376C377.857 187 379.637 186.263 380.95 184.95C382.262 183.637 383 181.857 383 180C383 178.143 382.262 176.363 380.95 175.05C379.637 173.737 377.857 173 376 173" fill="white"/>
<path d="M376 243C379.866 243 383 239.866 383 236C383 232.134 379.866 229 376 229C372.134 229 369 232.134 369 236C369 239.866 372.134 243 376 243Z" fill="white"/>
<path d="M369 285H383V278C383 276.143 382.262 274.363 380.95 273.05C379.637 271.738 377.857 271 376 271C374.143 271 372.363 271.738 371.05 273.05C369.738 274.363 369 276.143 369 278" fill="white"/>
<path d="M383 299V285H369V292C369 293.857 369.738 295.637 371.05 296.95C372.363 298.262 374.143 299 376 299" fill="white"/>
<path d="M383 341H369V355H383V341Z" fill="white"/>
<path d="M383 355H369V369H383V355Z" fill="white"/>
<path d="M383 411H369V425H383V411Z" fill="white"/>
<path d="M383 425H369V432C369 433.857 369.738 435.637 371.05 436.95C372.363 438.262 374.143 439 376 439C377.857 439 379.637 438.262 380.95 436.95C382.262 435.637 383 433.857 383 432" fill="white"/>
<path d="M369 453V467H376C377.857 467 379.637 466.262 380.95 464.95C382.262 463.637 383 461.857 383 460C383 458.143 382.262 456.363 380.95 455.05C379.637 453.738 377.857 453 376 453" fill="white"/>
<path d="M390 229C393.866 229 397 225.866 397 222C397 218.134 393.866 215 390 215C386.134 215 383 218.134 383 222C383 225.866 386.134 229 390 229Z" fill="white"/>
<path d="M383 257H397V243H390C388.143 243 386.363 243.738 385.05 245.05C383.737 246.363 383 248.143 383 250" fill="white"/>
<path d="M397 257H383V264C383 265.857 383.738 267.637 385.05 268.95C386.363 270.262 388.143 271 390 271C391.857 271 393.637 270.262 394.95 268.95C396.262 267.637 397 265.857 397 264" fill="white"/>
<path d="M397 285H383V299H397V285Z" fill="white"/>
<path d="M383 341H397V327H390C388.143 327 386.363 327.738 385.05 329.05C383.738 330.363 383 332.143 383 334" fill="white"/>
<path d="M397 341H383V355H397V341Z" fill="white"/>
<path d="M397 355H383V369H397V355Z" fill="white"/>
<path d="M390 397C393.866 397 397 393.866 397 390C397 386.134 393.866 383 390 383C386.134 383 383 386.134 383 390C383 393.866 386.134 397 390 397Z" fill="white"/>
<path d="M397 411H383V425H397V411Z" fill="white"/>
<path d="M404 145C407.866 145 411 141.866 411 138C411 134.134 407.866 131 404 131C400.134 131 397 134.134 397 138C397 141.866 400.134 145 404 145Z" fill="white"/>
<path d="M411 187V173H404C402.143 173 400.363 173.737 399.05 175.05C397.738 176.363 397 178.143 397 180C397 181.857 397.738 183.637 399.05 184.95C400.363 186.263 402.143 187 404 187" fill="white"/>
<path d="M411 243H397V257H411V243Z" fill="white"/>
<path d="M411 285H397V299H411V285Z" fill="white"/>
<path d="M411 299H397V313H411V299Z" fill="white"/>
<path d="M411 313H397V327H411V313Z" fill="white"/>
<path d="M411 327H397V341H411V327Z" fill="white"/>
<path d="M411 341H397V355H411V341Z" fill="white"/>
<path d="M411 355H397V369H411V355Z" fill="white"/>
<path d="M411 411H397V425H411V411Z" fill="white"/>
<path d="M411 425H397V439H411V425Z" fill="white"/>
<path d="M411 439H397V453H411V439Z" fill="white"/>
<path d="M411 453H397V467H411V453Z" fill="white"/>
<path d="M411 467H397V474C397 475.857 397.738 477.637 399.05 478.95C400.363 480.262 402.143 481 404 481C405.857 481 407.637 480.262 408.95 478.95C410.262 477.637 411 475.857 411 474" fill="white"/>
<path d="M411 159H425V145H418C416.143 145 414.363 145.738 413.05 147.05C411.737 148.363 411 150.143 411 152" fill="white"/>
<path d="M425 159H411V173H425V159Z" fill="white"/>
<path d="M425 173H411V187H425V173Z" fill="white"/>
<path d="M425 201V187H411V194C411 195.857 411.738 197.637 413.05 198.95C414.363 200.263 416.143 201 418 201" fill="white"/>
<path d="M418 229C421.866 229 425 225.866 425 222C425 218.134 421.866 215 418 215C414.134 215 411 218.134 411 222C411 225.866 414.134 229 418 229Z" fill="white"/>
<path d="M425 243H411V257H425V243Z" fill="white"/>
<path d="M425 257H411V264C411 265.857 411.738 267.637 413.05 268.95C414.363 270.262 416.143 271 418 271C419.857 271 421.637 270.262 422.95 268.95C424.262 267.637 425 265.857 425 264" fill="white"/>
<path d="M425 285H411V299H425V285Z" fill="white"/>
<path d="M425 299H411V313H425V299Z" fill="white"/>
<path d="M411 341V355H425V348C425 346.143 424.262 344.363 422.95 343.05C421.637 341.738 419.857 341 418 341" fill="white"/>
<path d="M425 355H411V369H425V355Z" fill="white"/>
<path d="M425 369H411V383H425V369Z" fill="white"/>
<path d="M425 383H411V397H425V383Z" fill="white"/>
<path d="M425 397H411V411H425V397Z" fill="white"/>
<path d="M425 411H411V425H418C419.857 425 421.637 424.262 422.95 422.95C424.262 421.637 425 419.857 425 418" fill="white"/>
<path d="M425 439H411V453H425V439Z" fill="white"/>
<path d="M425 453H411V467H425V453Z" fill="white"/>
<path d="M425 145H439V131H432C430.143 131 428.363 131.738 427.05 133.05C425.737 134.363 425 136.143 425 138" fill="white"/>
<path d="M439 145H425V159H439V145Z" fill="white"/>
<path d="M439 159H425V173H432C433.857 173 435.637 172.262 436.95 170.95C438.263 169.637 439 167.857 439 166" fill="white"/>
<path d="M439 187H425V201H439V187Z" fill="white"/>
<path d="M439 201H425V208C425 209.857 425.737 211.637 427.05 212.95C428.363 214.262 430.143 215 432 215C433.857 215 435.637 214.262 436.95 212.95C438.263 211.637 439 209.857 439 208" fill="white"/>
<path d="M425 243H439V236C439 234.143 438.263 232.363 436.95 231.05C435.637 229.738 433.857 229 432 229C430.143 229 428.363 229.738 427.05 231.05C425.737 232.363 425 234.143 425 236" fill="white"/>
<path d="M439 243H425V257H439V243Z" fill="white"/>
<path d="M439 285H425V299H439V285Z" fill="white"/>
<path d="M439 299H425V313H439V299Z" fill="white"/>
<path d="M439 327V313H425V320C425 321.857 425.738 323.637 427.05 324.95C428.363 326.262 430.143 327 432 327" fill="white"/>
<path d="M439 397H425V411H439V397Z" fill="white"/>
<path d="M425 439H439V425H432C430.143 425 428.363 425.738 427.05 427.05C425.738 428.363 425 430.143 425 432" fill="white"/>
<path d="M439 439H425V453H439V439Z" fill="white"/>
<path d="M439 453H425V467H439V453Z" fill="white"/>
<path d="M439 467H425V474C425 475.857 425.738 477.637 427.05 478.95C428.363 480.262 430.143 481 432 481C433.857 481 435.637 480.262 436.95 478.95C438.262 477.637 439 475.857 439 474" fill="white"/>
<path d="M453 131H439V145H453V131Z" fill="white"/>
<path d="M453 145H439V159H446C447.857 159 449.637 158.262 450.95 156.95C452.263 155.637 453 153.857 453 152" fill="white"/>
<path d="M453 187H439V201H453V187Z" fill="white"/>
<path d="M453 229V215H446C444.143 215 442.363 215.737 441.05 217.05C439.738 218.363 439 220.143 439 222C439 223.857 439.738 225.637 441.05 226.95C442.363 228.263 444.143 229 446 229" fill="white"/>
<path d="M453 243H439V257H453V243Z" fill="white"/>
<path d="M453 271V257H439V264C439 265.857 439.738 267.637 441.05 268.95C442.363 270.262 444.143 271 446 271" fill="white"/>
<path d="M453 285H439V299H453V285Z" fill="white"/>
<path d="M439 313V327H446C447.857 327 449.637 326.262 450.95 324.95C452.262 323.637 453 321.857 453 320C453 318.143 452.262 316.363 450.95 315.05C449.637 313.738 447.857 313 446 313" fill="white"/>
<path d="M439 369H453V355H446C444.143 355 442.363 355.738 441.05 357.05C439.738 358.363 439 360.143 439 362" fill="white"/>
<path d="M453 369H439V383H453V369Z" fill="white"/>
<path d="M453 383H439V397H453V383Z" fill="white"/>
<path d="M453 397H439V411H453V397Z" fill="white"/>
<path d="M439 425V439H446C447.857 439 449.637 438.262 450.95 436.95C452.262 435.637 453 433.857 453 432C453 430.143 452.262 428.363 450.95 427.05C449.637 425.738 447.857 425 446 425" fill="white"/>
<path d="M453 131V145H460C461.857 145 463.637 144.263 464.95 142.95C466.262 141.637 467 139.857 467 138C467 136.143 466.262 134.363 464.95 133.05C463.637 131.737 461.857 131 460 131" fill="white"/>
<path d="M453 187V201H460C461.857 201 463.637 200.263 464.95 198.95C466.262 197.637 467 195.857 467 194C467 192.143 466.262 190.363 464.95 189.05C463.637 187.737 461.857 187 460 187" fill="white"/>
<path d="M467 215H453V229H467V215Z" fill="white"/>
<path d="M467 229H453V243H467V229Z" fill="white"/>
<path d="M467 243H453V257H467V243Z" fill="white"/>
<path d="M467 257H453V271H467V257Z" fill="white"/>
<path d="M467 271H453V285H467V271Z" fill="white"/>
<path d="M467 285H453V299H460C461.857 299 463.637 298.262 464.95 296.95C466.262 295.637 467 293.857 467 292" fill="white"/>
<path d="M453 341H467V334C467 332.143 466.262 330.363 464.95 329.05C463.637 327.738 461.857 327 460 327C458.143 327 456.363 327.738 455.05 329.05C453.738 330.363 453 332.143 453 334" fill="white"/>
<path d="M467 341H453V355H467V341Z" fill="white"/>
<path d="M467 355H453V369H467V355Z" fill="white"/>
<path d="M467 369H453V383H467V369Z" fill="white"/>
<path d="M467 383H453V397H467V383Z" fill="white"/>
<path d="M467 397H453V411H467V397Z" fill="white"/>
<path d="M467 425V411H453V418C453 419.857 453.738 421.637 455.05 422.95C456.363 424.262 458.143 425 460 425" fill="white"/>
<path d="M460 481C463.866 481 467 477.866 467 474C467 470.134 463.866 467 460 467C456.134 467 453 470.134 453 474C453 477.866 456.134 481 460 481Z" fill="white"/>
<path d="M474 159C477.866 159 481 155.866 481 152C481 148.134 477.866 145 474 145C470.134 145 467 148.134 467 152C467 155.866 470.134 159 474 159Z" fill="white"/>
<path d="M467 215H481V208C481 206.143 480.263 204.363 478.95 203.05C477.637 201.738 475.857 201 474 201C472.143 201 470.363 201.738 469.05 203.05C467.737 204.363 467 206.143 467 208" fill="white"/>
<path d="M481 215H467V229H481V215Z" fill="white"/>
<path d="M481 229H467V243H481V229Z" fill="white"/>
<path d="M481 243H467V257H481V243Z" fill="white"/>
<path d="M481 257H467V271H474C475.857 271 477.637 270.262 478.95 268.95C480.262 267.637 481 265.857 481 264" fill="white"/>
<path d="M474 327C477.866 327 481 323.866 481 320C481 316.134 477.866 313 474 313C470.134 313 467 316.134 467 320C467 323.866 470.134 327 474 327Z" fill="white"/>
<path d="M467 341V355H474C475.857 355 477.637 354.262 478.95 352.95C480.262 351.637 481 349.857 481 348C481 346.143 480.262 344.363 478.95 343.05C477.637 341.738 475.857 341 474 341" fill="white"/>
<path d="M467 411V425H481V418C481 416.143 480.262 414.363 478.95 413.05C477.637 411.738 475.857 411 474 411" fill="white"/>
<path d="M481 425H467V439H481V425Z" fill="white"/>
<path d="M481 439H467V446C467 447.857 467.738 449.637 469.05 450.95C470.363 452.262 472.143 453 474 453C475.857 453 477.637 452.262 478.95 450.95C480.262 449.637 481 447.857 481 446" fill="white"/>
</mask>
<g mask="url(#mask0_214_3801)">
<path d="M500 0H0V500H500V0Z" fill="black"/>
</g>
<mask id="mask1_214_3801" style="mask-type:luminance" maskUnits="userSpaceOnUse" x="19" y="19" width="98" height="98">
<path fill-rule="evenodd" clip-rule="evenodd" d="M19 54V82C19 91.2826 22.6875 100.185 29.2513 106.749C35.815 113.313 44.7174 117 54 117H82C91.2826 117 100.185 113.313 106.749 106.749C113.313 100.185 117 91.2826 117 82V54C117 44.7174 113.313 35.815 106.749 29.2513C100.185 22.6875 91.2826 19 82 19H54C44.7174 19 35.815 22.6875 29.2513 29.2513C22.6875 35.815 19 44.7174 19 54ZM54 33H82C87.5695 33 92.911 35.2125 96.8492 39.1508C100.788 43.089 103 48.4305 103 54V82C103 87.5695 100.788 92.911 96.8492 96.8492C92.911 100.788 87.5695 103 82 103H54C48.4305 103 43.089 100.788 39.1508 96.8492C35.2125 92.911 33 87.5695 33 82V54C33 48.4305 35.2125 43.089 39.1508 39.1508C43.089 35.2125 48.4305 33 54 33Z" fill="white"/>
</mask>
<g mask="url(#mask1_214_3801)">
<path d="M117 19H19V117H117V19Z" fill="black"/>
</g>
<mask id="mask2_214_3801" style="mask-type:luminance" maskUnits="userSpaceOnUse" x="47" y="47" width="42" height="42">
<path d="M68 89C79.598 89 89 79.598 89 68C89 56.402 79.598 47 68 47C56.402 47 47 56.402 47 68C47 79.598 56.402 89 68 89Z" fill="white"/>
</mask>
<g mask="url(#mask2_214_3801)">
<path d="M89 47H47V89H89V47Z" fill="black"/>
</g>
<mask id="mask3_214_3801" style="mask-type:luminance" maskUnits="userSpaceOnUse" x="383" y="19" width="98" height="98">
<path fill-rule="evenodd" clip-rule="evenodd" d="M446 19H418C408.717 19 399.815 22.6875 393.251 29.2513C386.687 35.815 383 44.7174 383 54V82C383 91.2826 386.687 100.185 393.251 106.749C399.815 113.313 408.717 117 418 117H446C455.283 117 464.185 113.313 470.749 106.749C477.313 100.185 481 91.2826 481 82V54C481 44.7174 477.313 35.815 470.749 29.2513C464.185 22.6875 455.283 19 446 19ZM467 54V82C467 87.5695 464.788 92.911 460.849 96.8492C456.911 100.788 451.57 103 446 103H418C412.43 103 407.089 100.788 403.151 96.8492C399.212 92.911 397 87.5695 397 82V54C397 48.4305 399.212 43.089 403.151 39.1508C407.089 35.2125 412.43 33 418 33H446C451.57 33 456.911 35.2125 460.849 39.1508C464.788 43.089 467 48.4305 467 54Z" fill="white"/>
</mask>
<g mask="url(#mask3_214_3801)">
<path d="M481 19H383V117H481V19Z" fill="black"/>
</g>
<mask id="mask4_214_3801" style="mask-type:luminance" maskUnits="userSpaceOnUse" x="411" y="47" width="42" height="42">
<path d="M411 68C411 79.598 420.402 89 432 89C443.598 89 453 79.598 453 68C453 56.402 443.598 47 432 47C420.402 47 411 56.402 411 68Z" fill="white"/>
</mask>
<g mask="url(#mask4_214_3801)">
<path d="M453 47H411V89H453V47Z" fill="#5D2B9D"/>
</g>
<mask id="mask5_214_3801" style="mask-type:luminance" maskUnits="userSpaceOnUse" x="19" y="383" width="98" height="98">
<path fill-rule="evenodd" clip-rule="evenodd" d="M54 481H82C91.2826 481 100.185 477.313 106.749 470.749C113.313 464.185 117 455.283 117 446V418C117 408.717 113.313 399.815 106.749 393.251C100.185 386.687 91.2826 383 82 383H54C44.7174 383 35.815 386.687 29.2513 393.251C22.6875 399.815 19 408.717 19 418V446C19 455.283 22.6875 464.185 29.2513 470.749C35.815 477.313 44.7174 481 54 481ZM33 446V418C33 412.43 35.2125 407.089 39.1508 403.151C43.089 399.212 48.4305 397 54 397H82C87.5695 397 92.911 399.212 96.8492 403.151C100.788 407.089 103 412.43 103 418V446C103 451.57 100.788 456.911 96.8492 460.849C92.911 464.788 87.5695 467 82 467H54C48.4305 467 43.089 464.788 39.1508 460.849C35.2125 456.911 33 451.57 33 446Z" fill="white"/>
</mask>
<g mask="url(#mask5_214_3801)">
<path d="M117 383H19V481H117V383Z" fill="black"/>
</g>
<mask id="mask6_214_3801" style="mask-type:luminance" maskUnits="userSpaceOnUse" x="47" y="411" width="42" height="42">
<path d="M89 432C89 420.402 79.598 411 68 411C56.402 411 47 420.402 47 432C47 443.598 56.402 453 68 453C79.598 453 89 443.598 89 432Z" fill="white"/>
</mask>
<g mask="url(#mask6_214_3801)">
<path d="M89 411H47V453H89V411Z" fill="#5D2B9D"/>
</g>
</g>
<defs>
<clipPath id="clip0_214_3801">
<rect width="500" height="500" fill="white"/>
</clipPath>
</defs>
</svg>
