<svg width="32" height="32" viewBox="0 0 32 32" fill="none" xmlns="http://www.w3.org/2000/svg">
<path fill-rule="evenodd" clip-rule="evenodd" d="M4.76513 3C4.77675 3 4.7884 3 4.80008 3L27.235 3C27.5784 2.99998 27.8937 2.99995 28.1572 3.02149C28.4414 3.04471 28.7523 3.09786 29.0594 3.25432C29.4984 3.47803 29.8554 3.83498 30.0791 4.27403C30.2356 4.5811 30.2887 4.892 30.3119 5.17617C30.3335 5.43977 30.3334 5.7551 30.3334 6.09844V8.56824C30.3334 8.91157 30.3335 9.2269 30.3119 9.4905C30.2887 9.77468 30.2356 10.0856 30.0791 10.3926C29.8554 10.8317 29.4984 11.1886 29.0594 11.4124C28.8147 11.537 28.5675 11.5961 28.3334 11.6267V21.6427C28.3334 22.7266 28.3334 23.6007 28.2756 24.3086C28.2161 25.0375 28.0902 25.6777 27.7885 26.27C27.3091 27.2108 26.5442 27.9757 25.6034 28.455C25.0111 28.7568 24.3709 28.8826 23.642 28.9422C22.9342 29 22.06 29 20.9763 29H11.0239C9.94015 29 9.066 29 8.35813 28.9422C7.62928 28.8826 6.98909 28.7568 6.3968 28.455C5.45599 27.9757 4.69109 27.2108 4.21172 26.27C3.90993 25.6777 3.78412 25.0375 3.72457 24.3086C3.66673 23.6007 3.66674 22.7266 3.66675 21.6428L3.66675 11.6267C3.43264 11.5961 3.18549 11.537 2.94077 11.4124C2.50173 11.1886 2.14477 10.8317 1.92107 10.3926C1.76461 10.0856 1.71146 9.77468 1.68824 9.4905C1.6667 9.22692 1.66673 8.91161 1.66675 8.56829C1.66675 8.55667 1.66675 8.54502 1.66675 8.53334V6.13334C1.66675 6.12165 1.66675 6.11 1.66675 6.09838C1.66673 5.75506 1.6667 5.43976 1.68824 5.17617C1.71146 4.892 1.76461 4.5811 1.92107 4.27403C2.14477 3.83498 2.50173 3.47803 2.94077 3.25432C3.24785 3.09786 3.55875 3.04471 3.84292 3.02149C4.1065 2.99995 4.42181 2.99998 4.76513 3ZM5.66675 11.6667V21.6C5.66675 22.7366 5.66753 23.5289 5.71793 24.1458C5.76737 24.7509 5.85955 25.0986 5.99373 25.362C6.28135 25.9265 6.74029 26.3854 7.30478 26.673C7.56814 26.8072 7.91582 26.8994 8.52099 26.9488C9.13783 26.9992 9.93015 27 11.0668 27H20.9334C22.07 27 22.8623 26.9992 23.4792 26.9488C24.0843 26.8994 24.432 26.8072 24.6954 26.673C25.2599 26.3854 25.7188 25.9265 26.0064 25.362C26.1406 25.0986 26.2328 24.7509 26.2822 24.1458C26.3326 23.5289 26.3334 22.7366 26.3334 21.6V11.6667H5.66675ZM3.84125 5.03964C3.84121 5.03963 3.84185 5.03936 3.84327 5.03889L3.84125 5.03964ZM3.8447 5.03843C3.85654 5.03476 3.90071 5.02343 4.00579 5.01485C4.17796 5.00078 4.41022 5 4.80008 5H27.2001C27.59 5 27.8222 5.00078 27.9944 5.01485C28.0995 5.02343 28.1436 5.03476 28.1555 5.03843C28.215 5.0698 28.2636 5.11844 28.295 5.17796C28.2987 5.1898 28.31 5.23396 28.3186 5.33904C28.3326 5.51121 28.3334 5.74347 28.3334 6.13334V8.53334C28.3334 8.92321 28.3326 9.15547 28.3186 9.32764C28.31 9.43272 28.2987 9.47689 28.295 9.48872C28.2636 9.54824 28.215 9.59688 28.1555 9.62824C28.1436 9.63191 28.0995 9.64324 27.9944 9.65183C27.8222 9.66589 27.59 9.66667 27.2001 9.66667H4.80009C4.41022 9.66667 4.17796 9.66589 4.00579 9.65183C3.90071 9.64324 3.85654 9.63191 3.8447 9.62824C3.78518 9.59688 3.73654 9.54824 3.70518 9.48872C3.70151 9.47688 3.69018 9.43271 3.6816 9.32764C3.66753 9.15547 3.66675 8.92321 3.66675 8.53334V6.13334C3.66675 5.74347 3.66753 5.51121 3.6816 5.33904C3.69018 5.23396 3.70151 5.18979 3.70518 5.17795C3.73654 5.11843 3.78518 5.06979 3.8447 5.03843ZM3.70639 5.1745C3.7064 5.17454 3.70617 5.17525 3.70564 5.17652L3.70639 5.1745ZM3.70639 9.49217C3.70637 9.49221 3.70612 9.49158 3.70566 9.49019L3.70639 9.49217ZM3.84125 9.62703C3.84129 9.62702 3.84199 9.62725 3.84323 9.62777L3.84125 9.62703ZM28.1589 9.62703C28.159 9.62704 28.1583 9.6273 28.1569 9.62777L28.1589 9.62703ZM28.2938 9.49217C28.2938 9.49215 28.294 9.49144 28.2945 9.49017L28.2938 9.49217ZM28.2938 5.1745C28.2938 5.17447 28.2941 5.1751 28.2945 5.17653L28.2938 5.1745ZM28.1589 5.03964C28.1589 5.03965 28.1582 5.03942 28.157 5.03892L28.1589 5.03964ZM12.7651 14.3333H19.2351C19.5784 14.3333 19.8937 14.3333 20.1572 14.3548C20.4414 14.378 20.7523 14.4312 21.0594 14.5877C21.4984 14.8114 21.8554 15.1683 22.0791 15.6074C22.2356 15.9144 22.2887 16.2253 22.3119 16.5095C22.3335 16.7731 22.3334 17.0884 22.3334 17.4318V18.5682C22.3334 18.9116 22.3335 19.2269 22.3119 19.4905C22.2887 19.7747 22.2356 20.0856 22.0791 20.3926C21.8554 20.8317 21.4984 21.1886 21.0594 21.4124C20.7523 21.5688 20.4414 21.622 20.1572 21.6452C19.8937 21.6667 19.5783 21.6667 19.235 21.6667H12.7652C12.4218 21.6667 12.1065 21.6667 11.8429 21.6452C11.5587 21.622 11.2478 21.5688 10.9408 21.4124C10.5017 21.1886 10.1448 20.8317 9.92107 20.3927C9.76461 20.0856 9.71146 19.7747 9.68824 19.4905C9.6667 19.2269 9.66672 18.9116 9.66675 18.5683V17.4317C9.66672 17.0884 9.6667 16.7731 9.68824 16.5095C9.71146 16.2253 9.76461 15.9144 9.92107 15.6074C10.1448 15.1683 10.5017 14.8114 10.9408 14.5877C11.2478 14.4312 11.5587 14.378 11.8429 14.3548C12.1065 14.3333 12.4218 14.3333 12.7651 14.3333ZM11.8413 16.373C11.8412 16.373 11.8418 16.3727 11.8432 16.3722L11.8413 16.373ZM11.8447 16.3718C11.8566 16.3681 11.9007 16.3568 12.0058 16.3482C12.178 16.3341 12.4102 16.3333 12.8001 16.3333H19.2001C19.59 16.3333 19.8222 16.3341 19.9944 16.3482C20.0995 16.3568 20.1436 16.3681 20.1555 16.3718C20.215 16.4031 20.2636 16.4518 20.295 16.5113C20.2987 16.5231 20.31 16.5673 20.3186 16.6724C20.3326 16.8445 20.3334 17.0768 20.3334 17.4667V18.5333C20.3334 18.9232 20.3326 19.1555 20.3186 19.3276C20.31 19.4327 20.2987 19.4769 20.295 19.4887C20.2636 19.5482 20.215 19.5969 20.1555 19.6282C20.1436 19.6319 20.0995 19.6432 19.9944 19.6518C19.8222 19.6659 19.59 19.6667 19.2001 19.6667H12.8001C12.4102 19.6667 12.178 19.6659 12.0058 19.6518C11.9007 19.6432 11.8565 19.6319 11.8447 19.6282C11.7852 19.5969 11.7365 19.5482 11.7052 19.4887C11.7015 19.4769 11.6902 19.4327 11.6816 19.3276C11.6675 19.1555 11.6668 18.9232 11.6668 18.5333V17.4667C11.6668 17.0768 11.6675 16.8445 11.6816 16.6724C11.6902 16.5673 11.7015 16.5231 11.7052 16.5113C11.7365 16.4518 11.7852 16.4031 11.8447 16.3718ZM11.7064 16.5078C11.7064 16.5079 11.7062 16.5086 11.7057 16.5098L11.7064 16.5078ZM11.7064 19.4922C11.7064 19.4922 11.7061 19.4916 11.7056 19.4902L11.7064 19.4922ZM11.8413 19.627C11.8413 19.627 11.842 19.6273 11.8433 19.6278L11.8413 19.627ZM20.1589 19.627C20.159 19.627 20.1584 19.6273 20.1569 19.6278L20.1589 19.627ZM20.2938 19.4922C20.2938 19.4922 20.294 19.4915 20.2945 19.4902L20.2938 19.4922ZM20.2938 16.5078C20.2938 16.5078 20.2941 16.5084 20.2945 16.5098L20.2938 16.5078Z" fill="#1F1F1F"/>
</svg>
