<svg width="32" height="32" viewBox="0 0 32 32" fill="none" xmlns="http://www.w3.org/2000/svg">
<mask id="mask0_609_13125" style="mask-type:alpha" maskUnits="userSpaceOnUse" x="0" y="0" width="32" height="32">
<rect width="32" height="32" fill="#D9D9D9"/>
</mask>
<g mask="url(#mask0_609_13125)">
<path fill-rule="evenodd" clip-rule="evenodd" d="M13.9931 4.48496C15.134 3.45814 16.8659 3.45814 18.0069 4.48496L25.6667 11.3788V18C25.6667 20.3853 25.6646 22.0737 25.4926 23.3531C25.3244 24.6038 25.0106 25.313 24.4951 25.8284C23.9797 26.3439 23.2705 26.6577 22.0198 26.8259C20.7404 26.9979 19.052 27 16.6667 27H15.3334C12.9481 27 11.2597 26.9979 9.98026 26.8259C8.72958 26.6577 8.02041 26.3439 7.50495 25.8284C6.98948 25.313 6.67567 24.6038 6.50752 23.3531C6.3355 22.0737 6.33337 20.3853 6.33337 18V11.3787L13.9931 4.48496ZM4.33337 13.1787L3.3356 14.0767C2.92509 14.4461 2.2928 14.4129 1.92334 14.0024C1.55388 13.5918 1.58716 12.9596 1.99767 12.5901L12.6551 2.99837C14.5567 1.287 17.4433 1.287 19.3448 2.99837L30.0023 12.5901C30.4128 12.9596 30.4461 13.5918 30.0766 14.0024C29.7071 14.4129 29.0748 14.4461 28.6643 14.0767L27.6667 13.1788V18.0748C27.6667 20.3683 27.6667 22.1914 27.4747 23.6196C27.2768 25.0921 26.8584 26.2936 25.9093 27.2426C24.9603 28.1916 23.7588 28.6101 22.2863 28.808C20.8581 29 19.0351 29 16.7415 29H15.2585C12.965 29 11.142 29 9.71377 28.808C8.24131 28.6101 7.03974 28.1916 6.09073 27.2426C5.14173 26.2936 4.72332 25.0921 4.52535 23.6196C4.33333 22.1914 4.33335 20.3684 4.33337 18.0748L4.33337 13.1787ZM12.3334 12C12.3334 11.4477 12.7811 11 13.3334 11H14.5434H18.8534C19.4057 11 19.8534 11.4477 19.8534 12C19.8534 12.5523 19.4057 13 18.8534 13H17.9327C18.083 13.2719 18.2016 13.5639 18.2834 13.8711H18.8533C19.4055 13.8711 19.8533 14.3188 19.8533 14.8711C19.8533 15.4234 19.4055 15.8711 18.8533 15.8711H18.2834C17.9561 17.1031 17.0385 18.0909 15.8499 18.5152L18.3208 20.5601C18.7463 20.9122 18.8058 21.5426 18.4537 21.9681C18.1016 22.3935 17.4712 22.453 17.0457 22.1009L12.7939 18.5821C12.5188 18.4055 12.3358 18.0978 12.3334 17.7471C12.3295 17.5169 12.4046 17.2842 12.5629 17.0929C12.7923 16.8157 13.1398 16.6939 13.4718 16.74H14.5434C15.212 16.74 15.7953 16.3945 16.1257 15.8711H13.3333C12.781 15.8711 12.3333 15.4234 12.3333 14.8711C12.3333 14.3188 12.781 13.8711 13.3333 13.8711H16.1246C15.7927 13.347 15.2075 13 14.5434 13H13.3334C12.7811 13 12.3334 12.5523 12.3334 12Z" fill="#1F1F1F"/>
</g>
</svg>
