<svg width="16" height="12" viewBox="0 0 16 12" fill="none" xmlns="http://www.w3.org/2000/svg">
<path d="M1.13281 5.23822C0.712095 5.23822 0.371037 5.57928 0.371037 6C0.371037 6.42072 0.712095 6.76178 1.13281 6.76178L1.13281 5.23822ZM15.406 6.53866C15.7035 6.24116 15.7035 5.75883 15.406 5.46134L10.5581 0.613431C10.2606 0.315939 9.77829 0.315939 9.4808 0.613431C9.18331 0.910923 9.18331 1.39325 9.4808 1.69074L13.7901 6L9.4808 10.3093C9.18331 10.6067 9.18331 11.0891 9.4808 11.3866C9.77829 11.6841 10.2606 11.6841 10.5581 11.3866L15.406 6.53866ZM1.13281 6.76178L14.8674 6.76177L14.8674 5.23822L1.13281 5.23822L1.13281 6.76178Z" fill="#7D47CE"/>
</svg>
