<svg width="104" height="111" viewBox="0 0 104 111" fill="none" xmlns="http://www.w3.org/2000/svg">
<mask id="mask0_214_4134" style="mask-type:luminance" maskUnits="userSpaceOnUse" x="8" y="0" width="90" height="111">
<path fill-rule="evenodd" clip-rule="evenodd" d="M8.2168 0.479492H97.2777V110.015H8.2168V0.479492Z" fill="white"/>
</mask>
<g mask="url(#mask0_214_4134)">
<path fill-rule="evenodd" clip-rule="evenodd" d="M93.86 19.0811L52.2665 0.479492L10.6748 19.0811C8.88672 19.8814 7.73608 21.664 7.73608 23.6304V50.2687C7.73608 77.8999 26.7358 103.741 52.2665 110.015C77.7972 103.741 96.797 77.8999 96.797 50.2687V23.6304C96.797 21.664 95.6463 19.8814 93.86 19.0811Z" fill="white"/>
</g>
<path fill-rule="evenodd" clip-rule="evenodd" d="M29.3375 52.1H22.5233V33.1148L18.0062 34.2184V27.8643L28.7137 24.4014H29.3375V52.1Z" fill="#663AB5"/>
<path fill-rule="evenodd" clip-rule="evenodd" d="M46.153 34.6961C46.153 33.5244 46.069 32.5373 45.8992 31.7366C45.7312 30.9359 45.4934 30.2861 45.1823 29.7872C44.8731 29.2901 44.4995 28.9315 44.0526 28.7167C43.6128 28.5019 43.1105 28.3936 42.5474 28.3936C41.9842 28.3936 41.4801 28.5019 41.0404 28.7167C40.5952 28.9315 40.2252 29.2901 39.9213 29.7872C39.6192 30.2861 39.3868 30.9359 39.2277 31.7366C39.065 32.5373 38.9828 33.5244 38.9828 34.6961V41.7656C38.9828 42.964 39.065 43.967 39.2277 44.7748C39.3868 45.5826 39.6228 46.2324 39.932 46.7242C40.2431 47.216 40.6221 47.5693 41.0708 47.7841C41.5195 47.9989 42.0254 48.1072 42.5885 48.1072C43.1373 48.1072 43.6307 47.9989 44.0776 47.7841C44.5173 47.5693 44.8927 47.216 45.2038 46.7242C45.5148 46.2324 45.749 45.5826 45.9081 44.7748C46.0708 43.967 46.153 42.964 46.153 41.7656V34.6961ZM53.2591 40.937C53.2591 43.0657 52.9999 44.9068 52.4779 46.462C51.9577 48.0172 51.2283 49.3061 50.2862 50.3305C49.3423 51.3531 48.2197 52.1147 46.9111 52.6118C45.6044 53.1107 44.1653 53.3593 42.5886 53.3593C41.0012 53.3593 39.5496 53.1107 38.2339 52.6118C36.92 52.1147 35.7938 51.3531 34.8517 50.3305C33.9078 49.3061 33.1731 48.0172 32.6493 46.462C32.1184 44.9068 31.8556 43.0657 31.8556 40.937V35.5648C31.8556 33.4503 32.1148 31.6128 32.6368 30.0505C33.157 28.4882 33.8864 27.1957 34.8302 26.1731C35.7723 25.1505 36.8968 24.3889 38.2035 23.89C39.5103 23.3929 40.9601 23.1426 42.5475 23.1426C44.1224 23.1426 45.5651 23.3929 46.879 23.89C48.1947 24.3889 49.3209 25.1505 50.2648 26.1731C51.2069 27.1957 51.9398 28.4882 52.4689 30.0505C52.9927 31.6128 53.2591 33.4503 53.2591 35.5648V40.937Z" fill="#663AB5"/>
<path fill-rule="evenodd" clip-rule="evenodd" d="M70.0743 34.6961C70.0743 33.5244 69.9903 32.5373 69.8204 31.7366C69.6524 30.9359 69.4146 30.2861 69.1035 29.7872C68.7942 29.2901 68.4206 28.9315 67.9736 28.7167C67.5338 28.5019 67.0315 28.3936 66.4683 28.3936C65.9052 28.3936 65.4028 28.5019 64.963 28.7167C64.5178 28.9315 64.146 29.2901 63.842 29.7872C63.5399 30.2861 63.3093 30.9359 63.1484 31.7366C62.9857 32.5373 62.9034 33.5244 62.9034 34.6961V41.7656C62.9034 42.964 62.9857 43.967 63.1484 44.7748C63.3093 45.5826 63.5435 46.2324 63.8545 46.7242C64.1638 47.216 64.5429 47.5693 64.9916 47.7841C65.4403 47.9989 65.9463 48.1072 66.5112 48.1072C67.0583 48.1072 67.5535 47.9989 67.9987 47.7841C68.4385 47.5693 68.8157 47.216 69.1268 46.7242C69.436 46.2324 69.6702 45.5826 69.8294 44.7748C69.9921 43.967 70.0743 42.964 70.0743 41.7656V34.6961ZM77.1806 40.937C77.1806 43.0657 76.9214 44.9068 76.4011 46.462C75.8791 48.0172 75.1497 49.3061 74.2075 50.3305C73.2635 51.3531 72.1408 52.1147 70.8339 52.6118C69.5252 53.1107 68.0861 53.3593 66.511 53.3593C64.9217 53.3593 63.4718 53.1107 62.1542 52.6118C60.8401 52.1147 59.7138 51.3531 58.7717 50.3305C57.8277 49.3061 57.0929 48.0172 56.5691 46.462C56.0381 44.9068 55.7771 43.0657 55.7771 40.937V35.5648C55.7771 33.4503 56.0345 31.6128 56.5566 30.0505C57.0768 28.4882 57.808 27.1957 58.7502 26.1731C59.6924 25.1505 60.8169 24.3889 62.1238 23.89C63.4307 23.3929 64.8806 23.1426 66.4681 23.1426C68.0432 23.1426 69.4877 23.3929 70.7999 23.89C72.1176 24.3889 73.2421 25.1505 74.186 26.1731C75.1282 27.1957 75.8612 28.4882 76.3904 30.0505C76.916 31.6128 77.1806 33.4503 77.1806 35.5648V40.937Z" fill="#663AB5"/>
<path fill-rule="evenodd" clip-rule="evenodd" d="M87.3704 50.8371C87.3704 50.9665 87.3964 51.0891 87.4436 51.2116C87.4909 51.3325 87.556 51.4378 87.6407 51.531C87.727 51.6242 87.8247 51.6967 87.9371 51.7485C88.0495 51.8037 88.1716 51.8296 88.3002 51.8296C88.4908 51.8296 88.6471 51.8037 88.7644 51.7485C88.8833 51.6967 88.9745 51.6242 89.038 51.531C89.1031 51.4378 89.1471 51.3325 89.1683 51.2116C89.1862 51.0891 89.1959 50.9665 89.1959 50.8371V50.1898C89.1959 50.0603 89.178 49.936 89.1406 49.8152C89.1031 49.6944 89.0477 49.5874 88.9712 49.4959C88.8963 49.4027 88.8002 49.3302 88.6846 49.2767C88.569 49.2232 88.4354 49.1973 88.284 49.1973C88.1325 49.1973 87.9973 49.2232 87.8817 49.2767C87.7661 49.3302 87.6716 49.4027 87.5967 49.4959C87.5186 49.5874 87.4632 49.6944 87.4257 49.8152C87.3899 49.936 87.3704 50.0603 87.3704 50.1898V50.8371ZM85.5464 50.1896C85.5464 49.8478 85.6034 49.5216 85.719 49.2144C85.8347 48.9054 86.0073 48.6378 86.2337 48.41C86.4633 48.1821 86.7483 48.0026 87.0919 47.868C87.4355 47.7333 87.8329 47.666 88.284 47.666C88.7465 47.666 89.1503 47.7333 89.4956 47.868C89.8441 48.0026 90.1275 48.1821 90.3538 48.41C90.5802 48.6378 90.7479 48.9054 90.8619 49.2144C90.9727 49.5216 91.0297 49.8478 91.0297 50.1896V50.8369C91.0297 51.1838 90.9727 51.5101 90.8619 51.8156C90.7479 52.1229 90.5802 52.3887 90.3538 52.6148C90.1275 52.8426 89.8457 53.0239 89.5054 53.1585C89.1634 53.2914 88.7611 53.3588 88.3003 53.3588C87.8443 53.3588 87.4453 53.2914 87.1 53.1585C86.7564 53.0239 86.4682 52.8426 86.2385 52.6148C86.0089 52.3887 85.8347 52.1229 85.719 51.8156C85.6034 51.5101 85.5464 51.1838 85.5464 50.8369V50.1896ZM82.9929 52.274L81.6672 51.6094L87.6749 42.0381L89.0021 42.7026L82.9929 52.274ZM81.5323 43.9473C81.5323 44.0767 81.5519 44.1993 81.5861 44.3184C81.6252 44.4358 81.6822 44.5411 81.7571 44.6325C81.8336 44.7257 81.9281 44.7982 82.0437 44.8518C82.1593 44.9053 82.2961 44.9312 82.4525 44.9312C82.6055 44.9312 82.7391 44.9053 82.8515 44.8518C82.9638 44.7982 83.055 44.7257 83.125 44.6325C83.1967 44.5411 83.2504 44.4358 83.2863 44.3184C83.3237 44.1993 83.34 44.0767 83.34 43.9473V43.3C83.34 43.1653 83.3237 43.0376 83.2863 42.9168C83.2504 42.7959 83.1951 42.6907 83.1218 42.5974C83.0485 42.506 82.954 42.4317 82.8384 42.38C82.7228 42.3247 82.5876 42.2988 82.4378 42.2988C82.2847 42.2988 82.1528 42.3247 82.0404 42.38C81.9281 42.4317 81.8336 42.506 81.7571 42.5974C81.6822 42.6907 81.6252 42.7959 81.5861 42.9168C81.5519 43.0376 81.5323 43.1653 81.5323 43.3V43.9473ZM79.6986 43.3008C79.6986 42.9538 79.7572 42.6276 79.8729 42.3203C79.9885 42.0148 80.1595 41.7473 80.3875 41.5177C80.6171 41.2881 80.9005 41.1051 81.2457 40.9705C81.5893 40.8376 81.9867 40.7686 82.4378 40.7686C82.8987 40.7686 83.3009 40.8376 83.6445 40.9705C83.9898 41.1051 84.2731 41.2881 84.4979 41.5177C84.7242 41.7473 84.8936 42.0148 85.006 42.3203C85.1167 42.6276 85.1737 42.9538 85.1737 43.3008V43.9481C85.1737 44.2898 85.1167 44.6143 85.006 44.9199C84.8936 45.2254 84.7242 45.4912 84.4979 45.7191C84.2731 45.9469 83.9914 46.1264 83.6494 46.2611C83.309 46.3957 82.9101 46.463 82.4524 46.463C81.9981 46.463 81.5975 46.3957 81.2538 46.2611C80.9102 46.1264 80.622 45.9469 80.3924 45.7191C80.1611 45.4912 79.9885 45.2254 79.8729 44.9199C79.7572 44.6143 79.6986 44.2898 79.6986 43.9481V43.3008Z" fill="#582DA4"/>
<path fill-rule="evenodd" clip-rule="evenodd" d="M100.456 63.4307C101.509 63.4307 102.456 63.9384 103.054 64.8261C103.652 65.7139 103.784 66.8004 103.412 67.8106L96.0606 87.7753C95.5985 89.0287 94.4097 89.8703 93.1027 89.8703H8.68792C7.25569 89.8703 5.99809 88.8778 5.63298 87.4592L0.486147 67.4946C0.23392 66.5146 0.434996 65.4937 1.03822 64.693C1.64145 63.8905 2.55335 63.4307 3.54109 63.4307H100.456Z" fill="#60E0F1"/>
<path fill-rule="evenodd" clip-rule="evenodd" d="M24.6134 80.1504C24.6134 79.9604 24.583 79.7877 24.5204 79.6322C24.4577 79.4785 24.3344 79.3334 24.1504 79.1952C23.9664 79.0588 23.7077 78.9223 23.3741 78.7876C23.0426 78.6528 22.6059 78.5095 22.0661 78.3592C21.4354 78.1778 20.8269 77.9757 20.2406 77.7512C19.6543 77.5266 19.1368 77.2606 18.6819 76.9514C18.227 76.644 17.8631 76.2847 17.5902 75.8702C17.3173 75.4591 17.1818 74.9789 17.1818 74.4279C17.1818 73.901 17.3193 73.4243 17.5963 73.0011C17.8732 72.5779 18.2574 72.2169 18.7506 71.9198C19.2439 71.6227 19.8282 71.393 20.5034 71.2306C21.1766 71.0665 21.9125 70.9854 22.709 70.9854C23.4914 70.9854 24.2131 71.0752 24.8701 71.2565C25.5292 71.4344 26.0932 71.6901 26.5683 72.0217C27.0414 72.3516 27.4113 72.7524 27.6782 73.2205C27.945 73.6886 28.0785 74.2119 28.0785 74.7889H24.6235C24.6235 74.5609 24.583 74.3484 24.5002 74.1532C24.4173 73.9615 24.2919 73.7939 24.1241 73.6575C23.9563 73.521 23.7501 73.4122 23.5035 73.3345C23.2569 73.255 22.9657 73.2153 22.6301 73.2153C22.3006 73.2153 22.0115 73.2481 21.7608 73.312C21.5102 73.3777 21.3019 73.4675 21.1341 73.5815C20.9663 73.6972 20.839 73.8285 20.7541 73.9788C20.6692 74.1273 20.6267 74.2845 20.6267 74.452C20.6267 74.6386 20.6874 74.8044 20.8087 74.953C20.93 75.1032 21.1058 75.2431 21.3323 75.3744C21.5587 75.5074 21.8356 75.6301 22.1611 75.7441C22.4866 75.8615 22.8525 75.9738 23.2609 76.0843C24.0251 76.2951 24.7064 76.5231 25.3048 76.777C25.9032 77.0274 26.4086 77.3176 26.819 77.6424C27.2314 77.9671 27.5447 78.335 27.757 78.7461C27.9713 79.1555 28.0785 79.6167 28.0785 80.1331C28.0785 80.6841 27.9511 81.1747 27.6984 81.6031C27.4457 82.0314 27.0858 82.3924 26.6229 82.6844C26.1579 82.9763 25.5999 83.1991 24.9449 83.3494C24.2899 83.4996 23.5601 83.5756 22.7575 83.5756C22.2642 83.5756 21.775 83.5411 21.2878 83.472C20.8006 83.4012 20.3356 83.2924 19.8908 83.1473C19.4461 83.0005 19.0316 82.8174 18.6475 82.5963C18.2614 82.3734 17.9298 82.1092 17.6509 81.8C17.3699 81.4908 17.1495 81.1401 16.9898 80.7498C16.826 80.356 16.7472 79.9172 16.7472 79.4353H20.2224C20.2224 79.7946 20.277 80.0969 20.3902 80.3404C20.5014 80.584 20.6651 80.7826 20.8835 80.9329C21.0998 81.0849 21.3646 81.1937 21.678 81.2576C21.9893 81.3232 22.3491 81.3543 22.7575 81.3543C23.087 81.3543 23.368 81.3232 23.6026 81.2576C23.835 81.1937 24.0271 81.1073 24.1787 80.9968C24.3303 80.888 24.4415 80.7601 24.5103 80.615C24.579 80.4682 24.6134 80.3145 24.6134 80.1504Z" fill="#424242"/>
<path fill-rule="evenodd" clip-rule="evenodd" d="M38.5153 78.2407H33.675V81.24H39.3918V83.5756H30.5966V70.9854H39.4098V73.3281H33.675V75.9849H38.5153V78.2407Z" fill="#424242"/>
<path fill-rule="evenodd" clip-rule="evenodd" d="M50.7124 79.2604C50.6821 79.9007 50.5301 80.4842 50.2586 81.0158C49.987 81.544 49.6091 81.9997 49.1268 82.3777C48.6444 82.7557 48.0672 83.0492 47.393 83.2598C46.7189 83.4703 45.965 83.5756 45.1313 83.5756C44.2274 83.5756 43.4241 83.4393 42.7158 83.1648C42.0075 82.8904 41.4074 82.4951 40.9156 81.9824C40.4256 81.4681 40.0515 80.8432 39.7933 80.1061C39.5388 79.3674 39.4097 78.5406 39.4097 77.6223V76.956C39.4097 76.0377 39.5445 75.2074 39.8123 74.4721C40.0819 73.7351 40.4655 73.1085 40.963 72.5924C41.4606 72.0763 42.0588 71.6775 42.7576 71.4013C43.4564 71.1234 44.235 70.9854 45.0933 70.9854C45.9707 70.9854 46.7493 71.0975 47.4253 71.3168C48.1013 71.5377 48.6748 71.845 49.1458 72.2385C49.6148 72.6303 49.9832 73.0964 50.2491 73.6349C50.5149 74.1735 50.6783 74.7586 50.7409 75.3921H47.4956C47.4823 75.0504 47.431 74.7483 47.3417 74.4825C47.2525 74.2201 47.112 74.0009 46.9202 73.8283C46.7284 73.6539 46.4834 73.5227 46.1872 73.433C45.8909 73.3432 45.5263 73.2983 45.0933 73.2983C44.6927 73.2983 44.3432 73.3657 44.0451 73.5003C43.7489 73.6349 43.502 73.8473 43.3045 74.139C43.107 74.4307 42.9589 74.8087 42.8639 75.2696C42.7671 75.7322 42.7196 76.2897 42.7196 76.9387V77.6223C42.7196 78.2713 42.7633 78.8271 42.8487 79.2862C42.9361 79.7454 43.0747 80.1234 43.2627 80.4186C43.4507 80.712 43.6976 80.9261 44.0033 81.0607C44.3091 81.1953 44.6851 81.2626 45.1313 81.2626C45.8795 81.2626 46.4492 81.1021 46.8461 80.7845C47.2411 80.4635 47.4519 79.956 47.4766 79.2604H50.7124Z" fill="#424242"/>
<path fill-rule="evenodd" clip-rule="evenodd" d="M63.3313 70.9854V79.0987C63.3313 79.8253 63.1977 80.4679 62.9266 81.0247C62.6575 81.5832 62.275 82.0507 61.7793 82.4288C61.2856 82.807 60.6927 83.0924 59.9987 83.285C59.3026 83.4793 58.5296 83.5756 57.6818 83.5756C56.838 83.5756 56.0671 83.4793 55.369 83.285C54.6709 83.0924 54.074 82.807 53.5763 82.4288C53.0785 82.0507 52.692 81.5832 52.4148 81.0247C52.1376 80.4679 52 79.8253 52 79.0987V70.9854H55.4884V79.0987C55.4884 79.8656 55.6766 80.4206 56.055 80.762C56.4334 81.1017 56.9756 81.2733 57.6818 81.2733C58.3981 81.2733 58.9424 81.1017 59.3107 80.762C59.679 80.4206 59.8631 79.8656 59.8631 79.0987V70.9854H63.3313Z" fill="#424242"/>
<path fill-rule="evenodd" clip-rule="evenodd" d="M67.9767 76.7891H70.1196C70.764 76.7891 71.2484 76.6365 71.5726 76.3348C71.8968 76.0313 72.0589 75.6089 72.0589 75.0676C72.0589 74.5263 71.8948 74.1003 71.5666 73.7933C71.2385 73.4845 70.7561 73.3301 70.1196 73.3301H67.9767V76.7891ZM69.8112 79.1316H67.9767V83.5756H64.5903V70.9854H70.1196C70.9301 70.9854 71.6635 71.067 72.3198 71.232C72.9761 71.3971 73.5375 71.6385 74.0001 71.9579C74.4627 72.2792 74.8185 72.6749 75.0676 73.147C75.3147 73.6209 75.4373 74.1675 75.4373 74.7905C75.4373 75.2732 75.3799 75.7063 75.2653 76.0843C75.1486 76.4605 74.9826 76.7924 74.7691 77.0782C74.5516 77.3621 74.2927 77.6106 73.9902 77.8218C73.6897 78.0312 73.3537 78.2158 72.986 78.372L75.9216 83.4461V83.5756H72.2921L69.8112 79.1316Z" fill="#424242"/>
<path fill-rule="evenodd" clip-rule="evenodd" d="M85.0993 78.2407H80.259V81.24H85.9758V83.5756H77.1805V70.9854H85.9937V73.3281H80.259V75.9849H85.0993V78.2407Z" fill="#424242"/>
</svg>
