<svg width="107" height="78" viewBox="0 0 107 78" fill="none" xmlns="http://www.w3.org/2000/svg">
<mask id="mask0_1187_1616" style="mask-type:alpha" maskUnits="userSpaceOnUse" x="57" y="11" width="49" height="67">
<path d="M87.7546 11.7139H85.6173L72.3315 12.8238L57.8834 77.9991H99.5395C103.24 77.9991 105.996 74.5849 105.217 70.9677L93.4318 16.2977C92.8553 13.6233 90.4904 11.7139 87.7546 11.7139Z" fill="#727272"/>
</mask>
<g mask="url(#mask0_1187_1616)">
<path d="M87.7546 11.7139H85.6173L72.3315 12.8238L57.8834 77.9991H99.5395C103.24 77.9991 105.996 74.5849 105.217 70.9677L93.4318 16.2977C92.8553 13.6233 90.4904 11.7139 87.7546 11.7139Z" fill="#4B60CE"/>
<path d="M94.1115 71.6671L88.114 11.6416L66.5674 12.338L49.9481 78.0522L88.3327 78.0522C91.7684 78.0522 94.4531 75.0859 94.1115 71.6671Z" fill="#8095FF"/>
<path d="M82.6951 72.4266L84.5988 11.8233L66.5674 12.3378L49.9481 78.0519H76.8904C80.0268 78.0519 82.5966 75.5616 82.6951 72.4266Z" fill="#AEBCFF"/>
<path d="M97.0638 28.7317H77.4152L81.3696 10.1953L94.2833 12.1725L97.0638 28.7317Z" fill="#652B2C"/>
</g>
<mask id="mask1_1187_1616" style="mask-type:alpha" maskUnits="userSpaceOnUse" x="4" y="11" width="82" height="68">
<path d="M85.5803 11.6826L26.0948 13.897C24.1498 13.9694 22.4562 15.2464 21.8514 17.0963L4.41714 70.4304C3.18989 74.1848 5.98746 78.0425 9.93732 78.0425H63.4099C66.1934 78.0425 68.5855 76.0676 69.1125 73.3345L80.0938 16.3866C80.6055 13.7331 82.8798 11.7832 85.5803 11.6826Z" fill="#E2DFDF"/>
</mask>
<g mask="url(#mask1_1187_1616)">
<path d="M85.5803 11.6826L26.0948 13.897C24.1498 13.9694 22.4562 15.2464 21.8514 17.0963L4.41714 70.4304C3.18989 74.1848 5.98746 78.0425 9.93732 78.0425H63.4099C66.1934 78.0425 68.5855 76.0676 69.1125 73.3345L80.0938 16.3866C80.6055 13.7331 82.8798 11.7832 85.5803 11.6826Z" fill="#E5EAFF"/>
<mask id="mask2_1187_1616" style="mask-type:alpha" maskUnits="userSpaceOnUse" x="13" y="5" width="76" height="24">
<path d="M84.843 28.6726H13.1892L18.1035 10.3589L88.3408 5.02441L84.843 28.6726Z" fill="#ADADAD"/>
</mask>
<g mask="url(#mask2_1187_1616)">
<path d="M84.843 28.6726H13.1892L18.1035 10.3589L88.3408 5.02441L84.843 28.6726Z" fill="#C55859"/>
<ellipse cx="33.7615" cy="16.4443" rx="38.8496" ry="24.4668" transform="rotate(-179.626 33.7615 16.4443)" fill="#EF7476"/>
</g>
</g>
<path d="M36.7633 19.1505C37.109 17.7095 36.5081 16.33 35.4211 16.0692C34.3341 15.8085 33.1727 16.7652 32.827 18.2063C32.4813 19.6473 33.0823 21.0268 34.1692 21.2876C35.2562 21.5483 36.4176 20.5915 36.7633 19.1505Z" fill="#600338"/>
<path d="M66.258 18.0958C66.6037 16.6548 66.0028 15.2753 64.9158 15.0145C63.8288 14.7538 62.6674 15.7106 62.3217 17.1516C61.976 18.5926 62.577 19.9721 63.6639 20.2329C64.7509 20.4936 65.9123 19.5369 66.258 18.0958Z" fill="#600338"/>
<path fill-rule="evenodd" clip-rule="evenodd" d="M59.0775 10.0353C59.3204 4.59945 63.9119 0.447415 69.3477 0.759685C74.5522 1.06039 79.1375 5.34319 78.4869 11.3178C77.7562 11.4075 76.9007 11.4823 76.2439 11.4823C77.0898 6.52354 73.1181 3.15375 69.1858 2.94557C65.1379 2.72583 61.6104 5.7907 61.2866 9.83864C61.0668 12.6028 62.3621 15.1125 64.4555 16.5929C64.8487 16.8705 65.0222 17.3678 64.8719 17.8304C64.6406 18.5359 63.8078 18.8251 63.2064 18.3971C60.5811 16.5582 58.9272 13.4587 59.0775 10.0353ZM29.5833 11.0919C29.8262 5.65609 34.4177 1.50406 39.8535 1.81633C45.058 2.11703 49.6432 6.39983 48.9926 12.3744C48.262 12.4641 47.4065 12.5389 46.7496 12.5389C47.5956 7.58018 43.6239 4.21039 39.6916 4.00222C35.6437 3.78247 32.1162 6.84734 31.7923 10.8953C31.5726 13.6594 32.8679 16.1692 34.9613 17.6496C35.3545 17.9271 35.528 18.4244 35.3776 18.8871C35.1463 19.5926 34.3136 19.8817 33.7122 19.4538C31.0868 17.6149 29.433 14.5153 29.5833 11.0919Z" fill="#652B2C"/>
<path d="M69.3477 0.759685L69.3812 0.179889L69.3811 0.179878L69.3477 0.759685ZM59.0775 10.0353L58.4974 10.0093L58.4973 10.0098L59.0775 10.0353ZM78.4869 11.3178L78.5576 11.8942L79.0144 11.8381L79.0642 11.3806L78.4869 11.3178ZM76.2439 11.4823L75.6714 11.3846L75.5556 12.0631H76.2439V11.4823ZM69.1858 2.94557L69.1543 3.52548L69.1551 3.52553L69.1858 2.94557ZM61.2866 9.83864L60.7076 9.79233L60.7076 9.79261L61.2866 9.83864ZM64.4555 16.5929L64.1202 17.0671L64.1206 17.0674L64.4555 16.5929ZM64.8719 17.8304L65.4237 18.0114L65.4242 18.0099L64.8719 17.8304ZM63.2064 18.3971L63.5431 17.9239L63.5396 17.9215L63.2064 18.3971ZM39.8535 1.81633L39.887 1.23653L39.8868 1.23652L39.8535 1.81633ZM29.5833 11.0919L29.0031 11.066L29.0031 11.0664L29.5833 11.0919ZM48.9926 12.3744L49.0634 12.9508L49.5202 12.8947L49.57 12.4373L48.9926 12.3744ZM46.7496 12.5389L46.1771 12.4413L46.0614 13.1197H46.7496V12.5389ZM39.6916 4.00222L39.6601 4.58212L39.6609 4.58217L39.6916 4.00222ZM31.7923 10.8953L31.2134 10.849L31.2134 10.8493L31.7923 10.8953ZM34.9613 17.6496L34.626 18.1237L34.6264 18.124L34.9613 17.6496ZM35.3776 18.8871L35.9295 19.068L35.93 19.0666L35.3776 18.8871ZM33.7122 19.4538L34.0489 18.9806L34.0454 18.9781L33.7122 19.4538ZM69.3811 0.179878C63.6217 -0.150976 58.7547 4.25061 58.4974 10.0093L59.6577 10.0612C59.8862 4.94828 64.2021 1.04581 69.3144 1.33949L69.3811 0.179878ZM79.0642 11.3806C79.756 5.02755 74.8671 0.496849 69.3812 0.179889L69.3142 1.33948C74.2374 1.62393 78.5189 5.65883 77.9095 11.2549L79.0642 11.3806ZM76.2439 12.0631C76.9352 12.0631 77.8174 11.9851 78.5576 11.8942L78.4161 10.7413C77.695 10.8299 76.8663 10.9015 76.2439 10.9015V12.0631ZM69.1551 3.52553C72.8277 3.71996 76.4452 6.84905 75.6714 11.3846L76.8163 11.58C77.7345 6.19804 73.4085 2.58755 69.2165 2.36562L69.1551 3.52553ZM61.8655 9.88495C62.1641 6.15263 65.4192 3.32272 69.1543 3.52548L69.2173 2.36567C64.8565 2.12894 61.0567 5.42877 60.7076 9.79233L61.8655 9.88495ZM64.7908 16.1187C62.8566 14.7509 61.6628 12.4348 61.8655 9.88466L60.7076 9.79261C60.4709 12.7708 61.8677 15.4742 64.1202 17.0671L64.7908 16.1187ZM65.4242 18.0099C65.6552 17.2991 65.3862 16.539 64.7904 16.1185L64.1206 17.0674C64.3112 17.2019 64.3892 17.4366 64.3195 17.6509L65.4242 18.0099ZM62.8697 18.8703C63.8032 19.5345 65.0755 19.0736 65.4237 18.0114L64.32 17.6495C64.2056 17.9983 63.8125 18.1156 63.5431 17.9239L62.8697 18.8703ZM58.4973 10.0098C58.3379 13.6396 60.0921 16.9248 62.8732 18.8728L63.5396 17.9215C61.07 16.1916 59.5165 13.2777 59.6577 10.0607L58.4973 10.0098ZM39.8868 1.23652C34.1275 0.905664 29.2604 5.30725 29.0031 11.066L30.1635 11.1178C30.3919 6.00493 34.7079 2.10245 39.8202 2.39613L39.8868 1.23652ZM49.57 12.4373C50.2618 6.08419 45.3729 1.55349 39.887 1.23653L39.82 2.39612C44.7432 2.68057 49.0247 6.71547 48.4153 12.3115L49.57 12.4373ZM46.7496 13.1197C47.4409 13.1197 48.3232 13.0417 49.0634 12.9508L48.9218 11.798C48.2007 11.8865 47.372 11.9582 46.7496 11.9582V13.1197ZM39.6609 4.58217C43.3335 4.7766 46.9509 7.90569 46.1771 12.4413L47.3221 12.6366C48.2403 7.25468 43.9143 3.64419 39.7223 3.42226L39.6609 4.58217ZM32.3712 10.9416C32.6698 7.20927 35.925 4.37936 39.6601 4.58212L39.7231 3.42231C35.3623 3.18558 31.5625 6.48541 31.2134 10.849L32.3712 10.9416ZM35.2966 17.1754C33.3624 15.8075 32.1685 13.4915 32.3713 10.9413L31.2134 10.8493C30.9766 13.8274 32.3735 16.5308 34.626 18.1237L35.2966 17.1754ZM35.93 19.0666C36.161 18.3557 35.892 17.5957 35.2962 17.1751L34.6264 18.124C34.817 18.2586 34.895 18.4932 34.8253 18.7076L35.93 19.0666ZM33.3755 19.927C34.3089 20.5911 35.5812 20.1302 35.9295 19.068L34.8258 18.7061C34.7114 19.0549 34.3183 19.1723 34.0489 18.9806L33.3755 19.927ZM29.0031 11.0664C28.8437 14.6963 30.5979 17.9814 33.379 19.9295L34.0454 18.9781C31.5758 17.2483 30.0222 14.3343 30.1635 11.1174L29.0031 11.0664Z" fill="#652B2C"/>
<path d="M46.3627 76.0194L44.2629 66.0647C43.9878 64.3339 42.6032 63.0654 40.9802 63.0654H11.2985V78.0297H44.7031C45.7484 78.0297 46.537 77.0622 46.3627 76.0086V76.0194Z" fill="#240544"/>
<mask id="mask3_1187_1616" style="mask-type:luminance" maskUnits="userSpaceOnUse" x="11" y="63" width="36" height="16">
<path d="M46.3687 76.0223L44.2689 66.0677C43.9938 64.3369 42.6092 63.0684 40.9862 63.0684H11.3044V78.0326H44.709C45.7544 78.0326 46.5429 77.0651 46.3687 76.0116V76.0223Z" fill="white"/>
</mask>
<g mask="url(#mask3_1187_1616)">
<path d="M23.3 76.9063C35.6009 76.9063 45.5728 70.712 45.5728 63.0708C45.5728 55.4297 35.6009 49.2354 23.3 49.2354C10.999 49.2354 1.02716 55.4297 1.02716 63.0708C1.02716 70.712 10.999 76.9063 23.3 76.9063Z" fill="#240544"/>
</g>
<path d="M21.396 78.0404H2.24089C1.19557 78.0404 0.434496 77.0729 0.636226 76.0194L3.02947 66.0647C3.35041 64.3339 4.78085 63.0654 6.40386 63.0654H18.1134C19.7364 63.0654 21.0935 64.3339 21.3135 66.0647L23.1107 76.0194C23.2575 77.0729 22.4322 78.0404 21.3869 78.0404H21.396Z" fill="#FFC56C"/>
<path d="M72.5586 76.0194L70.4588 66.0647C70.1837 64.3339 68.7991 63.0654 67.1761 63.0654H37.4943V78.0297H70.8989C71.9442 78.0297 72.7328 77.0622 72.5586 76.0086V76.0194Z" fill="#794134"/>
<mask id="mask4_1187_1616" style="mask-type:luminance" maskUnits="userSpaceOnUse" x="37" y="63" width="36" height="16">
<path d="M72.5742 76.0223L70.4743 66.0677C70.1993 64.3369 68.8147 63.0684 67.1917 63.0684H37.5099V78.0326H70.9145C71.9598 78.0326 72.7484 77.0651 72.5742 76.0116V76.0223Z" fill="white"/>
</mask>
<g mask="url(#mask4_1187_1616)">
<path d="M49.497 76.9063C61.798 76.9063 71.7698 70.712 71.7698 63.0708C71.7698 55.4297 61.798 49.2354 49.497 49.2354C37.1961 49.2354 27.2242 55.4297 27.2242 63.0708C27.2242 70.712 37.1961 76.9063 49.497 76.9063Z" fill="#E87E66"/>
</g>
<path d="M47.589 78.0404H28.4338C27.3885 78.0404 26.6274 77.0729 26.8292 76.0194L29.2224 66.0647C29.5433 64.3339 30.9738 63.0654 32.5968 63.0654H44.3063C45.9293 63.0654 47.2864 64.3339 47.5064 66.0647L49.3037 76.0194C49.4504 77.0729 48.6251 78.0404 47.5798 78.0404H47.589Z" fill="#FFC56C"/>
<path d="M56.7243 61.0536L54.6245 51.0989C54.3494 49.3681 52.9648 48.0996 51.3418 48.0996H23.6406V63.0639H55.0646C56.1099 63.0639 56.8985 62.0963 56.7243 61.0428V61.0536Z" fill="#794134"/>
<mask id="mask5_1187_1616" style="mask-type:alpha" maskUnits="userSpaceOnUse" x="23" y="48" width="34" height="16">
<path d="M56.709 61.0565L54.6092 51.1018C54.3341 49.3711 52.9495 48.1025 51.3265 48.1025H23.6254V63.0668H55.0493C56.0947 63.0668 56.8833 62.0993 56.709 61.0458V61.0565Z" fill="#9E513F"/>
</mask>
<g mask="url(#mask5_1187_1616)">
<path d="M35.6438 59.7862C47.9447 59.7862 57.9166 53.5919 57.9166 45.9507C57.9166 38.3096 47.9447 32.1152 35.6438 32.1152C23.3429 32.1152 13.371 38.3096 13.371 45.9507C13.371 53.5919 23.3429 59.7862 35.6438 59.7862Z" fill="#E87E66"/>
</g>
<path d="M33.7453 63.0697H14.5901C13.5448 63.0697 12.7837 62.1022 12.9855 61.0487L15.3787 51.094C15.6997 49.3632 17.1301 48.0947 18.7531 48.0947H30.4626C32.0856 48.0947 33.4427 49.3632 33.6628 51.094L35.46 61.0487C35.6067 62.1022 34.7814 63.0697 33.7361 63.0697H33.7453Z" fill="#FDE6C4"/>
<mask id="mask6_1187_1616" style="mask-type:luminance" maskUnits="userSpaceOnUse" x="12" y="48" width="24" height="16">
<path d="M33.7387 63.0727H14.5835C13.5382 63.0727 12.7771 62.1051 12.9789 61.0516L15.3721 51.097C15.6931 49.3662 17.1235 48.0977 18.7465 48.0977H30.456C32.079 48.0977 33.4361 49.3662 33.6562 51.097L35.4534 61.0516C35.6001 62.1051 34.7749 63.0727 33.7295 63.0727H33.7387Z" fill="white"/>
</mask>
<g mask="url(#mask6_1187_1616)">
<path d="M34.6128 64.9782L13.2845 65.3867C11.9824 65.4082 11.0288 64.2579 11.2855 62.9894L13.9814 52.2392C14.3023 50.5622 15.8061 49.4334 17.53 49.5302L28.8635 50.2505C30.3765 50.3365 31.7978 51.5297 32.2562 53.0992L35.9332 62.8067C36.2725 63.9139 35.6398 64.9675 34.6036 64.9782H34.6128Z" fill="#F9C372"/>
</g>
<path d="M21.396 78.0404H2.24083C1.19551 78.0404 0.434435 77.0729 0.636165 76.0194L3.02941 66.0647C3.35035 64.3339 4.78079 63.0654 6.4038 63.0654H18.1133C19.7363 63.0654 21.0934 64.3339 21.3135 66.0647L23.1107 76.0194C23.2574 77.0729 22.4321 78.0404 21.3868 78.0404H21.396Z" fill="#FFECD0"/>
<mask id="mask7_1187_1616" style="mask-type:luminance" maskUnits="userSpaceOnUse" x="0" y="63" width="24" height="16">
<path d="M21.3951 78.0434H2.23998C1.19465 78.0434 0.433581 77.0759 0.63531 76.0223L3.02856 66.0677C3.34949 64.3369 4.77994 63.0684 6.40295 63.0684H18.1124C19.7354 63.0684 21.0925 64.3369 21.3126 66.0677L23.1098 76.0223C23.2565 77.0759 22.4313 78.0434 21.386 78.0434H21.3951Z" fill="white"/>
</mask>
<g mask="url(#mask7_1187_1616)">
<path d="M22.266 79.9362L0.937685 80.3447C-0.364388 80.3662 -1.31802 79.2159 -1.06127 77.9474L1.63457 67.1972C1.9555 65.5202 3.4593 64.3914 5.18318 64.4882L16.5167 65.2085C18.0297 65.2945 19.451 66.4877 19.9094 68.0572L23.5864 77.7647C23.9257 78.8719 23.293 79.9254 22.2568 79.9362H22.266Z" fill="#F9C372"/>
</g>
<path d="M47.5863 78.0404H28.4311C27.3858 78.0404 26.6247 77.0729 26.8265 76.0194L29.2197 66.0647C29.5407 64.3339 30.9711 63.0654 32.5941 63.0654H44.3036C45.9266 63.0654 47.2837 64.3339 47.5038 66.0647L49.301 76.0194C49.4477 77.0729 48.6224 78.0404 47.5771 78.0404H47.5863Z" fill="#FFECD0"/>
<mask id="mask8_1187_1616" style="mask-type:luminance" maskUnits="userSpaceOnUse" x="26" y="63" width="24" height="16">
<path d="M47.5823 78.0434H28.4271C27.3818 78.0434 26.6207 77.0759 26.8224 76.0223L29.2157 66.0677C29.5366 64.3369 30.9671 63.0684 32.5901 63.0684H44.2996C45.9226 63.0684 47.2797 64.3369 47.4997 66.0677L49.297 76.0223C49.4437 77.0759 48.6184 78.0434 47.5731 78.0434H47.5823Z" fill="white"/>
</mask>
<g mask="url(#mask8_1187_1616)">
<path d="M48.4587 79.9362L27.1304 80.3447C25.8283 80.3662 24.8747 79.2159 25.1314 77.9474L27.8273 67.1972C28.1482 65.5202 29.652 64.3914 31.3759 64.4882L42.7094 65.2085C44.2224 65.2945 45.6437 66.4877 46.1021 68.0572L49.7791 77.7647C50.1184 78.8719 49.4857 79.9254 48.4495 79.9362H48.4587Z" fill="#F9C372"/>
</g>
<path d="M20.0281 62.5459H35.6714" stroke="#7E3E30" stroke-width="0.610093" stroke-miterlimit="10" stroke-linecap="round"/>
<path d="M2.88977 77.5371H54.8627" stroke="#7E3E30" stroke-width="0.610093" stroke-miterlimit="10" stroke-linecap="round"/>
<path d="M14.1981 62.5459H23.6427" stroke="#D1674F" stroke-width="0.610093" stroke-miterlimit="10" stroke-linecap="round"/>
<rect x="14.4164" y="28.9902" width="7.43827" height="7.43827" rx="1.84131" transform="rotate(52.7264 14.4164 28.9902)" fill="#F9C372"/>
<rect x="22.397" y="40.5283" width="4.00371" height="4.00371" rx="0.920654" transform="rotate(72.1268 22.397 40.5283)" fill="#F9C372"/>
</svg>
