<svg width="306" height="271" viewBox="0 0 306 271" fill="none" xmlns="http://www.w3.org/2000/svg">
<rect x="0.773438" y="0.512939" width="234.179" height="230.789" rx="43" fill="#FC658D"/>
<rect x="63.1582" y="39.9531" width="242.301" height="230.789" rx="43" fill="#C4A0EC"/>
<path fill-rule="evenodd" clip-rule="evenodd" d="M234.83 40.1099C234.927 41.2837 234.976 42.471 234.976 43.6697V188.459C234.976 212.207 215.724 231.459 191.976 231.459H63.3269C63.2307 230.285 63.1816 229.098 63.1816 227.899V83.1098C63.1816 59.3616 82.4334 40.1099 106.182 40.1099H234.83Z" fill="white"/>
<path d="M149.673 180.835L128.088 143.18V134.306H135.283C138.161 134.306 140.679 133.906 142.838 133.107C145.076 132.227 146.915 130.988 148.354 129.389C149.873 127.79 150.913 125.872 151.472 123.633H128.088V114.759H151.352C150.873 112.68 150.033 110.842 148.834 109.243C147.715 107.644 146.196 106.405 144.277 105.525C142.438 104.566 140.2 104.086 137.561 104.086H128.088V95.212H182.172V104.086H163.344C164.703 105.605 165.823 107.244 166.702 109.003C167.661 110.762 168.301 112.68 168.621 114.759H182.172V123.633H168.861C168.061 129.549 165.783 134.186 162.025 137.544C158.268 140.822 153.431 143.06 147.515 144.259L171.019 180.835H149.673Z" fill="#1E1E1E"/>
</svg>
