<svg width="100" height="87" viewBox="0 0 100 87" fill="none" xmlns="http://www.w3.org/2000/svg">
<g clip-path="url(#clip0_679_2663)">
<path d="M301.438 7.01335H60.7989C59.9285 7.01335 59.2322 6.31703 59.2322 5.44662C59.2322 4.57621 59.9285 3.87988 60.7989 3.87988H301.438C302.308 3.87988 303.005 4.57621 303.005 5.44662C303.005 6.31703 302.308 7.01335 301.438 7.01335Z" fill="#F9C372"/>
<path d="M113.348 15.3789C112.981 15.3789 112.573 15.1749 112.369 14.8078C110.288 11.1767 106.371 8.93285 102.21 8.93285H81.9741C77.7719 8.93285 73.8961 11.1767 71.8154 14.8078C71.489 15.3381 70.8363 15.5421 70.3059 15.2157C69.7755 14.8894 69.5715 14.2366 69.8979 13.7062C72.3866 9.38163 76.9968 6.68896 82.0149 6.68896H102.251C107.228 6.68896 111.879 9.38163 114.368 13.7062C114.694 14.2366 114.49 14.9302 113.96 15.2157C113.797 15.2973 113.593 15.3789 113.389 15.3789H113.348Z" fill="#3A086F"/>
<path d="M82.8762 34.3483C82.8762 34.3483 82.5906 34.3483 82.4682 34.2667C81.8971 34.0627 81.6115 33.4099 81.8155 32.8388L91.5662 7.42162C91.7702 6.85044 92.423 6.56486 92.9941 6.76885C93.5653 6.97284 93.8509 7.62561 93.6469 8.19678L83.8962 33.6139C83.733 34.0627 83.2842 34.3483 82.8762 34.3483Z" fill="#3A086F"/>
<path d="M129.139 24.4839V72.2985C129.139 74.8549 126.582 76.9143 123.411 76.9143H23V19.8682H123.411C126.582 19.8682 129.139 21.9275 129.139 24.4839Z" fill="#D6932A"/>
<mask id="mask0_679_2663" style="mask-type:alpha" maskUnits="userSpaceOnUse" x="23" y="19" width="107" height="58">
<path d="M129.139 24.4983V72.3129C129.139 74.8693 126.582 76.9287 123.411 76.9287H23V19.8826H123.411C126.582 19.8826 129.139 21.9419 129.139 24.4983Z" fill="#DB902D"/>
</mask>
<g mask="url(#mask0_679_2663)">
<ellipse cx="110.822" cy="79.2674" rx="46.1576" ry="30.7718" transform="rotate(-2.35556 110.822 79.2674)" fill="#D27572"/>
</g>
<path d="M38.9741 19.854H24.7244C16.8185 19.854 10.0487 25.5113 8.67578 33.2989L3.32623 63.1475C2.04801 70.367 7.58693 76.9711 14.9011 76.9711H38.9505H80.8474H64.491C57.1768 76.9711 51.6142 70.3434 52.9161 63.1475L58.2657 33.2989C59.6622 25.5113 66.432 19.854 74.3143 19.854L37.8379 19.9013" fill="#F9C372"/>
<path d="M14.0669 47.0077C13.3568 47.0077 12.6704 46.629 12.1733 45.9899C11.6762 45.3508 11.4632 44.5223 11.6052 43.7885L13.8302 32.0243C14.1143 30.5803 15.2268 29.5862 16.6234 29.5862H29.2871C29.9973 29.5862 30.6837 29.9649 31.1808 30.604C31.6779 31.2431 31.8909 32.0716 31.7489 32.8054L29.5238 44.5697C29.2398 46.0136 28.1273 47.0077 26.7307 47.0077H14.0669Z" fill="#5F259F"/>
<path d="M34.8677 47.0077C34.1576 47.0077 33.4712 46.629 32.9741 45.9899C32.477 45.3508 32.264 44.5223 32.406 43.7885L34.631 32.0243C34.9151 30.5803 36.0276 29.5862 37.4241 29.5862H50.0879C50.798 29.5862 51.4845 29.9649 51.9816 30.604C52.4786 31.2431 52.6917 32.0716 52.5497 32.8054L50.3246 44.5697C50.0406 46.0136 48.9281 47.0077 47.5315 47.0077H34.8677Z" fill="#5F259F"/>
<mask id="mask1_679_2663" style="mask-type:alpha" maskUnits="userSpaceOnUse" x="11" y="29" width="42" height="19">
<path d="M14.0774 47.0077C13.3673 47.0077 12.6809 46.629 12.1838 45.9899C11.6867 45.3508 11.4737 44.5223 11.6157 43.7885L13.8407 32.0243C14.1248 30.5803 15.2373 29.5862 16.6339 29.5862H29.2976C30.0078 29.5862 30.6942 29.9649 31.1913 30.604C31.6884 31.2431 31.9014 32.0716 31.7594 32.8054L29.5343 44.5697C29.2503 46.0136 28.1378 47.0077 26.7412 47.0077H14.0774Z" fill="#5F259F"/>
<path d="M34.8785 47.0077C34.1684 47.0077 33.4819 46.629 32.9848 45.9899C32.4877 45.3508 32.2747 44.5223 32.4167 43.7885L34.6418 32.0243C34.9258 30.5803 36.0383 29.5862 37.4349 29.5862H50.0987C50.8088 29.5862 51.4952 29.9649 51.9923 30.604C52.4894 31.2431 52.7024 32.0716 52.5604 32.8054L50.3354 44.5697C50.0513 46.0136 48.9388 47.0077 47.5422 47.0077H34.8785Z" fill="#5F259F"/>
</mask>
<g mask="url(#mask1_679_2663)">
<ellipse cx="20.5117" cy="8.84647" rx="46.1576" ry="30.7718" fill="#8B54C7"/>
</g>
<path d="M14.6328 70.9309C17.2602 70.9309 19.3669 68.8005 19.3669 66.1968C19.3669 63.593 17.2366 61.4626 14.6328 61.4626C12.029 61.4626 9.89868 63.593 9.89868 66.1968C9.89868 68.8005 12.029 70.9309 14.6328 70.9309Z" fill="#3A086F"/>
<path d="M13.5334 70.9316C16.1609 70.9316 18.2676 68.8013 18.2676 66.1975C18.2676 63.5937 16.1372 61.4634 13.5334 61.4634C10.9297 61.4634 8.79932 63.5937 8.79932 66.1975C8.79932 68.8013 10.9297 70.9316 13.5334 70.9316Z" fill="#670FC4"/>
<path d="M43.708 70.9309C46.3354 70.9309 48.4421 68.8005 48.4421 66.1968C48.4421 63.593 46.3118 61.4626 43.708 61.4626C41.1042 61.4626 38.9739 63.593 38.9739 66.1968C38.9739 68.8005 41.1042 70.9309 43.708 70.9309Z" fill="#3A086F"/>
<path d="M42.6262 70.9309C45.2536 70.9309 47.3603 68.8005 47.3603 66.1968C47.3603 63.593 45.23 61.4626 42.6262 61.4626C40.0224 61.4626 37.8921 63.593 37.8921 66.1968C37.8921 68.8005 40.0224 70.9309 42.6262 70.9309Z" fill="#670FC4"/>
<path d="M48.6131 10.3137H37.8667C35.2155 10.3137 33.0615 12.4677 33.0615 15.1188C33.0615 17.77 35.2155 19.924 37.8667 19.924H48.6131C51.2642 19.924 53.4182 17.77 53.4182 15.1188C53.4182 12.4677 51.2642 10.3137 48.6131 10.3137Z" fill="#F9C372"/>
<mask id="mask2_679_2663" style="mask-type:alpha" maskUnits="userSpaceOnUse" x="33" y="10" width="21" height="10">
<path d="M48.6131 10.3137H37.8667C35.2155 10.3137 33.0615 12.4677 33.0615 15.1188C33.0615 17.77 35.2155 19.924 37.8667 19.924H48.6131C51.2642 19.924 53.4182 17.77 53.4182 15.1188C53.4182 12.4677 51.2642 10.3137 48.6131 10.3137Z" fill="#FFA726"/>
</mask>
<g mask="url(#mask2_679_2663)">
<ellipse cx="49.3926" cy="23.3713" rx="19.205" ry="9.59212" transform="rotate(-2.35556 49.3926 23.3713)" fill="#D6932A"/>
</g>
<path d="M36.8477 10.314H29.2731C26.622 10.314 24.468 12.468 24.468 15.1191C24.468 17.7702 26.622 19.9242 29.2731 19.9242H36.8477C39.4988 19.9242 41.6529 17.7702 41.6529 15.1191C41.6529 12.468 39.4988 10.314 36.8477 10.314Z" fill="#3A086F"/>
<path d="M29.2735 18.0302C27.6639 18.0302 26.3621 16.7284 26.3621 15.1188C26.3621 13.5092 27.6639 12.2073 29.2735 12.2073H36.8481C38.4577 12.2073 39.7596 13.5092 39.7596 15.1188C39.7596 16.7284 38.4577 18.0302 36.8481 18.0302H29.2735Z" fill="white"/>
<path d="M87.3875 29.6074H100.974C102.679 29.6074 104.052 30.9803 104.052 32.6846V40.6379C104.052 42.3422 102.679 43.7151 100.974 43.7151H87.3875C85.6832 43.7151 84.3103 42.3422 84.3103 40.6379V32.6846C84.3103 30.9803 85.6832 29.6074 87.3875 29.6074Z" fill="#461B76"/>
<path d="M76.0434 45.4884H67.0723C64.8473 45.4884 63.1666 43.4764 63.569 41.2987L65.1786 32.5406C65.4864 30.86 66.9539 29.6292 68.6819 29.6292H76.0434C78.0081 29.6292 79.594 31.2151 79.594 33.1797V41.9379C79.594 43.9025 78.0081 45.4884 76.0434 45.4884Z" fill="#461B76"/>
<mask id="mask3_679_2663" style="mask-type:alpha" maskUnits="userSpaceOnUse" x="63" y="29" width="65" height="17">
<path d="M87.3806 29.6074H100.968C102.672 29.6074 104.045 30.9803 104.045 32.6846V40.6379C104.045 42.3422 102.672 43.7151 100.968 43.7151H87.3806C85.6764 43.7151 84.3035 42.3422 84.3035 40.6379V32.6846C84.3035 30.9803 85.6764 29.6074 87.3806 29.6074Z" fill="#461B76"/>
<path d="M76.0369 45.4884H67.0657C64.8407 45.4884 63.1601 43.4764 63.5625 41.2987L65.1721 32.5406C65.4798 30.86 66.9473 29.6292 68.6753 29.6292H76.0369C78.0015 29.6292 79.5874 31.2151 79.5874 33.1797V41.9379C79.5874 43.9025 78.0015 45.4884 76.0369 45.4884Z" fill="#461B76"/>
</mask>
<g mask="url(#mask3_679_2663)">
<ellipse cx="73.6227" cy="8.85355" rx="46.1576" ry="30.7718" fill="#7A3E94"/>
</g>
<path d="M123.007 76.9905H6.52424C3.13835 76.9905 0.393555 79.7353 0.393555 83.1212C0.393555 86.507 3.13835 89.2518 6.52424 89.2518H123.007C126.393 89.2518 129.138 86.507 129.138 83.1212C129.138 79.7353 126.393 76.9905 123.007 76.9905Z" fill="#3A086F"/>
<path d="M113.305 76.9892H76.0715L80.5216 68.3731C82.1549 65.2249 85.3977 63.2366 88.9483 63.2366H100.405C103.955 63.2366 107.222 65.2249 108.832 68.3731L113.282 76.9892H113.305Z" fill="#3A086F"/>
<path d="M40.1756 52.71H12.1259C10.9232 52.71 9.94824 53.6796 9.94824 54.8758C9.94824 56.072 10.9232 57.0417 12.1259 57.0417H40.1756C41.3783 57.0417 42.3533 56.072 42.3533 54.8758C42.3533 53.6796 41.3783 52.71 40.1756 52.71Z" fill="#D6932A"/>
</g>
<defs>
<clipPath id="clip0_679_2663">
<rect width="101.263" height="101.263" fill="white"/>
</clipPath>
</defs>
</svg>
