<svg width="32" height="32" viewBox="0 0 32 32" fill="none" xmlns="http://www.w3.org/2000/svg">
<mask id="mask0_609_13138" style="mask-type:alpha" maskUnits="userSpaceOnUse" x="0" y="0" width="32" height="32">
<rect width="32" height="32" fill="#D9D9D9"/>
</mask>
<g mask="url(#mask0_609_13138)">
<path fill-rule="evenodd" clip-rule="evenodd" d="M8.90915 13.7619C10.4124 9.96804 12.5261 8.0071 15.9631 5.27027C19.9342 8.69475 22.1595 11.0398 23.4064 14.26C24.2992 16.5657 24.3989 19.1268 23.5639 21.3998C23.071 22.7413 22.2969 24.1452 21.0932 25.2076C19.9098 26.2522 18.2593 27.0144 15.8998 27.0144C13.7577 27.0144 12.2189 26.401 11.0918 25.5387C9.95117 24.6659 9.17471 23.493 8.64814 22.2992C7.49663 19.6885 7.78703 16.5938 8.90915 13.7619ZM17.2653 3.75234C16.5393 3.12634 15.4692 3.10696 14.7206 3.70299C11.2129 6.49595 8.75285 8.7271 7.04979 13.0251C5.80708 16.1614 5.37905 19.8434 6.81823 23.1063C7.43765 24.5106 8.39502 25.9935 9.87646 27.1271C11.3715 28.271 13.343 29.0144 15.8998 29.0144C18.7396 29.0144 20.8625 28.0789 22.4167 26.7071C23.9505 25.3533 24.8781 23.6223 25.4412 22.0895C26.461 19.3133 26.321 16.2484 25.2715 13.5378C23.8315 9.81882 21.2614 7.19811 17.2653 3.75234ZM21.8673 18.6172C21.8673 18.0649 21.4196 17.6172 20.8673 17.6172C20.315 17.6172 19.8673 18.0649 19.8673 18.6172C19.8673 20.5923 18.2879 22.1772 16.3873 22.1772C15.835 22.1772 15.3873 22.6249 15.3873 23.1772C15.3873 23.7295 15.835 24.1772 16.3873 24.1772C19.4268 24.1772 21.8673 21.6621 21.8673 18.6172Z" fill="#1F1F1F"/>
</g>
</svg>
