<svg width="32" height="32" viewBox="0 0 32 32" fill="none" xmlns="http://www.w3.org/2000/svg">
<path fill-rule="evenodd" clip-rule="evenodd" d="M6.58479 2.50613C7.00155 2.86852 7.04564 3.50015 6.68325 3.91692C3.92104 7.09363 3.05405 11.3502 4.08826 15.2067C4.23131 15.7402 3.91484 16.2886 3.3814 16.4316C2.84797 16.5747 2.29956 16.2582 2.15651 15.7248C0.95618 11.2487 1.96002 6.30089 5.174 2.6046C5.53639 2.18783 6.16802 2.14375 6.58479 2.50613ZM25.4104 2.50619C25.8272 2.1438 26.4588 2.18789 26.8212 2.60466C30.0352 6.30094 31.039 11.2488 29.8387 15.7248C29.6956 16.2583 29.1472 16.5747 28.6138 16.4317C28.0804 16.2886 27.7639 15.7402 27.907 15.2068C28.9412 11.3502 28.0742 7.09369 25.312 3.91697C24.9496 3.50021 24.9937 2.86858 25.4104 2.50619ZM21.6614 6.26013C22.0946 5.91756 22.7235 5.99102 23.0661 6.42422C24.8703 8.70573 25.4106 11.6555 24.6929 14.3354C24.55 14.8689 24.0017 15.1855 23.4682 15.0426C22.9347 14.8998 22.6181 14.3515 22.761 13.818C23.3204 11.7291 22.8972 9.43502 21.4973 7.6648C21.1547 7.2316 21.2282 6.60271 21.6614 6.26013ZM10.3384 6.2602C10.7716 6.60277 10.8451 7.23166 10.5025 7.66486C9.10261 9.43509 8.67943 11.7292 9.23887 13.818C9.38175 14.3515 9.0651 14.8998 8.53162 15.0427C7.99813 15.1856 7.44983 14.8689 7.30695 14.3354C6.58923 11.6556 7.12954 8.70579 8.93378 6.42428C9.27636 5.99108 9.90525 5.91762 10.3384 6.2602ZM15.9999 10.9996C16.5522 10.9996 16.9999 11.4473 16.9999 11.9996V18.9996H25.1072C25.8194 18.9996 26.4138 18.9996 26.8995 19.0392C27.406 19.0806 27.8815 19.1701 28.3312 19.3992C29.0211 19.7508 29.5821 20.3117 29.9336 21.0016C30.1627 21.4513 30.2522 21.9268 30.2936 22.4334C30.3333 22.919 30.3333 23.5135 30.3333 24.2256V25.1069C30.3333 25.819 30.3333 26.4135 30.2936 26.8991C30.2522 27.4057 30.1627 27.8812 29.9336 28.3309C29.5821 29.0208 29.0211 29.5817 28.3312 29.9333C27.8815 30.1624 27.406 30.2519 26.8995 30.2933C26.4138 30.3329 25.8194 30.3329 25.1072 30.3329H6.89265C6.18045 30.3329 5.586 30.3329 5.10036 30.2933C4.59385 30.2519 4.1183 30.1624 3.66862 29.9333C2.97869 29.5817 2.41776 29.0208 2.06623 28.3309C1.8371 27.8812 1.74762 27.4057 1.70624 26.8991C1.66656 26.4135 1.66657 25.819 1.66659 25.1068V24.2257C1.66657 23.5135 1.66656 22.919 1.70624 22.4334C1.74762 21.9268 1.8371 21.4513 2.06623 21.0016C2.41776 20.3117 2.97869 19.7508 3.66862 19.3992C4.1183 19.1701 4.59385 19.0806 5.10036 19.0392C5.586 18.9996 6.18045 18.9996 6.89265 18.9996H14.9999V11.9996C14.9999 11.4473 15.4476 10.9996 15.9999 10.9996ZM6.93325 20.9996C6.17001 20.9996 5.65773 21.0004 5.26322 21.0326C4.88039 21.0639 4.69735 21.1197 4.5766 21.1812C4.263 21.341 4.00803 21.596 3.84824 21.9096C3.78672 22.0303 3.73087 22.2134 3.6996 22.5962C3.66736 22.9907 3.66659 23.503 3.66659 24.2663V25.0663C3.66659 25.8295 3.66736 26.3418 3.6996 26.7363C3.73087 27.1191 3.78672 27.3022 3.84824 27.4229C4.00803 27.7365 4.263 27.9915 4.5766 28.1513C4.69735 28.2128 4.88039 28.2686 5.26322 28.2999C5.65773 28.3321 6.17001 28.3329 6.93325 28.3329H25.0666C25.8298 28.3329 26.3421 28.3321 26.7366 28.2999C27.1194 28.2686 27.3025 28.2128 27.4232 28.1513C27.7368 27.9915 27.9918 27.7365 28.1516 27.4229C28.2131 27.3022 28.269 27.1191 28.3002 26.7363C28.3325 26.3418 28.3333 25.8295 28.3333 25.0663V24.2663C28.3333 23.503 28.3325 22.9907 28.3002 22.5962C28.269 22.2134 28.2131 22.0303 28.1516 21.9096C27.9918 21.596 27.7368 21.341 27.4232 21.1812C27.3025 21.1197 27.1194 21.0639 26.7366 21.0326C26.3421 21.0004 25.8298 20.9996 25.0666 20.9996H6.93325ZM6.33325 24.6663C6.33325 24.114 6.78097 23.6663 7.33325 23.6663H12.6666C13.2189 23.6663 13.6666 24.114 13.6666 24.6663C13.6666 25.2185 13.2189 25.6663 12.6666 25.6663H7.33325C6.78097 25.6663 6.33325 25.2185 6.33325 24.6663Z" fill="#1F1F1F"/>
</svg>
